{"duration": 300, "history": {"redo": [{"key": ["clips", {"id": "MFS21WEFL5"}], "value": null, "type": "delete", "partial": false, "old_values": {"duration": 86400.0, "crop_y": {"Points": [{"co": {"Y": 0.0, "X": 1.0}, "interpolation": 2}]}, "wave_color": {"alpha": {"Points": [{"handle_right": {"Y": 0.0, "X": 0.5}, "co": {"Y": 255.0, "X": 1.0}, "handle_left": {"Y": 1.0, "X": 0.5}, "handle_type": 0, "interpolation": 0}]}, "green": {"Points": [{"handle_right": {"Y": 0.0, "X": 0.5}, "co": {"Y": 123.0, "X": 1.0}, "handle_left": {"Y": 1.0, "X": 0.5}, "handle_type": 0, "interpolation": 0}]}, "red": {"Points": [{"handle_right": {"Y": 0.0, "X": 0.5}, "co": {"Y": 0.0, "X": 1.0}, "handle_left": {"Y": 1.0, "X": 0.5}, "handle_type": 0, "interpolation": 0}]}, "blue": {"Points": [{"handle_right": {"Y": 0.0, "X": 0.5}, "co": {"Y": 255.0, "X": 1.0}, "handle_left": {"Y": 1.0, "X": 0.5}, "handle_type": 0, "interpolation": 0}]}}, "crop_height": {"Points": [{"co": {"Y": -1.0, "X": 1.0}, "interpolation": 2}]}, "shear_x": {"Points": [{"co": {"Y": 0.0, "X": 1.0}, "interpolation": 2}]}, "alpha": {"Points": [{"co": {"Y": 1.0, "X": 1.0}, "interpolation": 2}]}, "layer": 2, "rotation": {"Points": [{"co": {"Y": 0.0, "X": 1.0}, "interpolation": 2}]}, "anchor": 0, "perspective_c1_y": {"Points": [{"co": {"Y": -1.0, "X": 1.0}, "interpolation": 2}]}, "scale": 1, "perspective_c1_x": {"Points": [{"co": {"Y": -1.0, "X": 1.0}, "interpolation": 2}]}, "volume": {"Points": [{"co": {"Y": 1.0, "X": 1.0}, "interpolation": 2}]}, "time": {"Points": [{"co": {"Y": 1.0, "X": 1.0}, "interpolation": 2}]}, "perspective_c3_y": {"Points": [{"co": {"Y": -1.0, "X": 1.0}, "interpolation": 2}]}, "channel_filter": {"Points": [{"co": {"Y": -1.0, "X": 1.0}, "interpolation": 2}]}, "image": "C:\\Users\\Luca\\.openshot_qt\\thumbnail\\1V1XR4MF1P.png", "shear_y": {"Points": [{"co": {"Y": 0.0, "X": 1.0}, "interpolation": 2}]}, "end": 18.169999999999998, "waveform": false, "crop_x": {"Points": [{"co": {"Y": 0.0, "X": 1.0}, "interpolation": 2}]}, "effects": [], "gravity": 4, "reader": {"vcodec": "", "audio_timebase": {"num": 1, "den": 1}, "duration": 86400.0, "file_size": "61952", "audio_bit_rate": 0, "pixel_ratio": {"num": 1, "den": 1}, "pixel_format": -1, "width": 121, "video_stream_index": -1, "video_bit_rate": 0, "has_single_image": true, "path": "C:\\Users\\Luca\\Desktop\\autonomous_category_formation\\manuscript\\figs\\6mm.jpg", "top_field_first": true, "channel_layout": 4, "video_length": "2592000", "sample_rate": 0, "display_ratio": {"num": 121, "den": 128}, "has_video": true, "acodec": "", "video_timebase": {"num": 1, "den": 30}, "height": 128, "interlaced_frame": false, "fps": {"num": 30, "den": 1}, "channels": 0, "audio_stream_index": -1, "type": "QtImageReader", "has_audio": false}, "perspective_c2_x": {"Points": [{"co": {"Y": -1.0, "X": 1.0}, "interpolation": 2}]}, "has_video": {"Points": [{"co": {"Y": -1.0, "X": 1.0}, "interpolation": 2}]}, "scale_x": {"Points": [{"co": {"Y": 1.0, "X": 1.0}, "interpolation": 2}, {"co": {"Y": 0.35, "X": 7}, "interpolation": 0}, {"co": {"Y": 0.2117647283217486, "X": 63}, "interpolation": 0}, {"co": {"Y": 0.2180167639956755, "X": 4}, "interpolation": 0}]}, "file_id": "1V1XR4MF1P", "perspective_c4_x": {"Points": [{"co": {"Y": -1.0, "X": 1.0}, "interpolation": 2}]}, "id": "MFS21WEFL5", "start": 0, "perspective_c2_y": {"Points": [{"co": {"Y": -1.0, "X": 1.0}, "interpolation": 2}]}, "scale_y": {"Points": [{"co": {"Y": 1.0, "X": 1.0}, "interpolation": 2}, {"co": {"Y": 0.06527415143603134, "X": 7}, "interpolation": 0}, {"co": {"Y": 0.21148825485463554, "X": 63}, "interpolation": 0}, {"co": {"Y": 0.24569019604797715, "X": 4}, "interpolation": 0}]}, "title": "6mm.jpg", "perspective_c4_y": {"Points": [{"co": {"Y": -1.0, "X": 1.0}, "interpolation": 2}]}, "position": 19.07125, "crop_width": {"Points": [{"co": {"Y": -1.0, "X": 1.0}, "interpolation": 2}]}, "channel_mapping": {"Points": [{"co": {"Y": -1.0, "X": 1.0}, "interpolation": 2}]}, "location_y": {"Points": [{"co": {"Y": 0.0, "X": 1.0}, "interpolation": 2}, {"co": {"Y": -0.38120104648736997, "X": 63}, "interpolation": 0}, {"co": {"Y": -0.39569105102659957, "X": 4}, "interpolation": 0}]}, "has_audio": {"Points": [{"co": {"Y": -1.0, "X": 1.0}, "interpolation": 2}]}, "location_x": {"Points": [{"co": {"Y": 0.0, "X": 1.0}, "interpolation": 2}, {"co": {"Y": -0.439705893572639, "X": 63}, "interpolation": 0}, {"co": {"Y": -0.4384201459614012, "X": 4}, "interpolation": 0}]}, "perspective_c3_x": {"Points": [{"co": {"Y": -1.0, "X": 1.0}, "interpolation": 2}]}, "display": 0}}, {"key": ["clips", {"id": "MFS21WEFL5"}], "value": {"scale_y": {"Points": [{"handle_right": {"Y": 0.0, "X": 0.5}, "co": {"Y": 1.0, "X": 1.0}, "handle_left": {"Y": 1.0, "X": 0.5}, "handle_type": 0, "interpolation": 0}, {"co": {"Y": -0.0026109660574412533, "X": 2}, "interpolation": 0}]}}, "type": "update", "partial": false, "old_values": {"duration": 86400.0, "volume": {"Points": [{"co": {"Y": 1.0, "X": 1.0}, "interpolation": 2}]}, "wave_color": {"alpha": {"Points": [{"handle_right": {"Y": 0.0, "X": 0.5}, "co": {"Y": 255.0, "X": 1.0}, "handle_left": {"Y": 1.0, "X": 0.5}, "handle_type": 0, "interpolation": 0}]}, "green": {"Points": [{"handle_right": {"Y": 0.0, "X": 0.5}, "co": {"Y": 123.0, "X": 1.0}, "handle_left": {"Y": 1.0, "X": 0.5}, "handle_type": 0, "interpolation": 0}]}, "red": {"Points": [{"handle_right": {"Y": 0.0, "X": 0.5}, "co": {"Y": 0.0, "X": 1.0}, "handle_left": {"Y": 1.0, "X": 0.5}, "handle_type": 0, "interpolation": 0}]}, "blue": {"Points": [{"handle_right": {"Y": 0.0, "X": 0.5}, "co": {"Y": 255.0, "X": 1.0}, "handle_left": {"Y": 1.0, "X": 0.5}, "handle_type": 0, "interpolation": 0}]}}, "channel_mapping": {"Points": [{"co": {"Y": -1.0, "X": 1.0}, "interpolation": 2}]}, "perspective_c3_x": {"Points": [{"co": {"Y": -1.0, "X": 1.0}, "interpolation": 2}]}, "alpha": {"Points": [{"co": {"Y": 1.0, "X": 1.0}, "interpolation": 2}]}, "crop_y": {"Points": [{"co": {"Y": 0.0, "X": 1.0}, "interpolation": 2}]}, "anchor": 0, "perspective_c1_y": {"Points": [{"co": {"Y": -1.0, "X": 1.0}, "interpolation": 2}]}, "reader": {"vcodec": "", "audio_timebase": {"num": 1, "den": 1}, "duration": 86400.0, "file_size": "61952", "audio_bit_rate": 0, "pixel_ratio": {"num": 1, "den": 1}, "pixel_format": -1, "width": 121, "video_stream_index": -1, "video_bit_rate": 0, "has_single_image": true, "path": "C:\\Users\\Luca\\Desktop\\autonomous_category_formation\\manuscript\\figs\\6mm.jpg", "top_field_first": true, "channel_layout": 4, "video_length": "2592000", "sample_rate": 0, "display_ratio": {"num": 121, "den": 128}, "has_video": true, "acodec": "", "video_timebase": {"num": 1, "den": 30}, "height": 128, "interlaced_frame": false, "fps": {"num": 30, "den": 1}, "channels": 0, "audio_stream_index": -1, "type": "QtImageReader", "has_audio": false}, "perspective_c1_x": {"Points": [{"co": {"Y": -1.0, "X": 1.0}, "interpolation": 2}]}, "shear_x": {"Points": [{"co": {"Y": 0.0, "X": 1.0}, "interpolation": 2}]}, "time": {"Points": [{"co": {"Y": 1.0, "X": 1.0}, "interpolation": 2}]}, "perspective_c3_y": {"Points": [{"co": {"Y": -1.0, "X": 1.0}, "interpolation": 2}]}, "channel_filter": {"Points": [{"co": {"Y": -1.0, "X": 1.0}, "interpolation": 2}]}, "shear_y": {"Points": [{"co": {"Y": 0.0, "X": 1.0}, "interpolation": 2}]}, "end": 18.169999999999998, "title": "6mm.jpg", "waveform": false, "crop_x": {"Points": [{"co": {"Y": 0.0, "X": 1.0}, "interpolation": 2}]}, "effects": [], "gravity": 4, "scale": 1, "location_x": {"Points": [{"handle_right": {"Y": 0.0, "X": 0.5}, "co": {"Y": 0.0, "X": 1.0}, "handle_left": {"Y": 1.0, "X": 0.5}, "handle_type": 0, "interpolation": 0}]}, "perspective_c2_x": {"Points": [{"co": {"Y": -1.0, "X": 1.0}, "interpolation": 2}]}, "has_video": {"Points": [{"co": {"Y": -1.0, "X": 1.0}, "interpolation": 2}]}, "scale_x": {"Points": [{"handle_right": {"Y": 0.0, "X": 0.5}, "co": {"Y": 1.0, "X": 1.0}, "handle_left": {"Y": 1.0, "X": 0.5}, "handle_type": 0, "interpolation": 0}, {"co": {"Y": 0.2088235294117647, "X": 2}, "interpolation": 0}]}, "file_id": "1V1XR4MF1P", "has_audio": {"Points": [{"co": {"Y": -1.0, "X": 1.0}, "interpolation": 2}]}, "start": 0, "scale_y": {"Points": [{"handle_right": {"Y": 0.0, "X": 0.5}, "co": {"Y": 1.0, "X": 1.0}, "handle_left": {"Y": 1.0, "X": 0.5}, "handle_type": 0, "interpolation": 0}, {"co": {"Y": -0.0026109660574412533, "X": 2}, "interpolation": 0}]}, "layer": 2, "perspective_c4_y": {"Points": [{"co": {"Y": -1.0, "X": 1.0}, "interpolation": 2}]}, "rotation": {"Points": [{"co": {"Y": 0.0, "X": 1.0}, "interpolation": 2}]}, "position": 21.77875, "perspective_c4_x": {"Points": [{"co": {"Y": -1.0, "X": 1.0}, "interpolation": 2}]}, "crop_height": {"Points": [{"co": {"Y": -1.0, "X": 1.0}, "interpolation": 2}]}, "location_y": {"Points": [{"handle_right": {"Y": 0.0, "X": 0.5}, "co": {"Y": 0.0, "X": 1.0}, "handle_left": {"Y": 1.0, "X": 0.5}, "handle_type": 0, "interpolation": 0}]}, "image": "C:\\Users\\Luca\\.openshot_qt\\thumbnail\\1V1XR4MF1P.png", "id": "MFS21WEFL5", "perspective_c2_y": {"Points": [{"co": {"Y": -1.0, "X": 1.0}, "interpolation": 2}]}, "crop_width": {"Points": [{"co": {"Y": -1.0, "X": 1.0}, "interpolation": 2}]}, "display": 0}}, {"key": ["clips", {"id": "MFS21WEFL5"}], "value": {"duration": 86400.0, "shear_x": {"Points": [{"co": {"Y": 0.0, "X": 1.0}, "interpolation": 2}]}, "shear_y": {"Points": [{"co": {"Y": 0.0, "X": 1.0}, "interpolation": 2}]}, "channel_mapping": {"Points": [{"co": {"Y": -1.0, "X": 1.0}, "interpolation": 2}]}, "crop_width": {"Points": [{"co": {"Y": -1.0, "X": 1.0}, "interpolation": 2}]}, "display": 0, "crop_y": {"Points": [{"co": {"Y": 0.0, "X": 1.0}, "interpolation": 2}]}, "anchor": 0, "perspective_c1_y": {"Points": [{"co": {"Y": -1.0, "X": 1.0}, "interpolation": 2}]}, "scale": 1, "perspective_c1_x": {"Points": [{"co": {"Y": -1.0, "X": 1.0}, "interpolation": 2}]}, "volume": {"Points": [{"co": {"Y": 1.0, "X": 1.0}, "interpolation": 2}]}, "time": {"Points": [{"co": {"Y": 1.0, "X": 1.0}, "interpolation": 2}]}, "perspective_c3_y": {"Points": [{"co": {"Y": -1.0, "X": 1.0}, "interpolation": 2}]}, "channel_filter": {"Points": [{"co": {"Y": -1.0, "X": 1.0}, "interpolation": 2}]}, "wave_color": {"alpha": {"Points": [{"handle_right": {"Y": 0.0, "X": 0.5}, "co": {"Y": 255.0, "X": 1.0}, "handle_left": {"Y": 1.0, "X": 0.5}, "handle_type": 0, "interpolation": 0}]}, "green": {"Points": [{"handle_right": {"Y": 0.0, "X": 0.5}, "co": {"Y": 123.0, "X": 1.0}, "handle_left": {"Y": 1.0, "X": 0.5}, "handle_type": 0, "interpolation": 0}]}, "red": {"Points": [{"handle_right": {"Y": 0.0, "X": 0.5}, "co": {"Y": 0.0, "X": 1.0}, "handle_left": {"Y": 1.0, "X": 0.5}, "handle_type": 0, "interpolation": 0}]}, "blue": {"Points": [{"handle_right": {"Y": 0.0, "X": 0.5}, "co": {"Y": 255.0, "X": 1.0}, "handle_left": {"Y": 1.0, "X": 0.5}, "handle_type": 0, "interpolation": 0}]}}, "end": 18.169999999999998, "layer": 2, "crop_x": {"Points": [{"co": {"Y": 0.0, "X": 1.0}, "interpolation": 2}]}, "effects": [], "gravity": 4, "alpha": {"Points": [{"co": {"Y": 1.0, "X": 1.0}, "interpolation": 2}]}, "perspective_c2_x": {"Points": [{"co": {"Y": -1.0, "X": 1.0}, "interpolation": 2}]}, "has_video": {"Points": [{"co": {"Y": -1.0, "X": 1.0}, "interpolation": 2}]}, "scale_x": {"Points": [{"handle_right": {"Y": 0.0, "X": 0.5}, "co": {"Y": 1.0, "X": 1.0}, "handle_left": {"Y": 1.0, "X": 0.5}, "handle_type": 0, "interpolation": 0}]}, "file_id": "1V1XR4MF1P", "has_audio": {"Points": [{"co": {"Y": -1.0, "X": 1.0}, "interpolation": 2}]}, "waveform": false, "start": 0, "scale_y": {"Points": [{"handle_right": {"Y": 0.0, "X": 0.5}, "co": {"Y": 1.0, "X": 1.0}, "handle_left": {"Y": 1.0, "X": 0.5}, "handle_type": 0, "interpolation": 0}]}, "title": "6mm.jpg", "perspective_c4_y": {"Points": [{"co": {"Y": -1.0, "X": 1.0}, "interpolation": 2}]}, "rotation": {"Points": [{"co": {"Y": 0.0, "X": 1.0}, "interpolation": 2}]}, "position": 21.77875, "perspective_c4_x": {"Points": [{"co": {"Y": -1.0, "X": 1.0}, "interpolation": 2}]}, "crop_height": {"Points": [{"co": {"Y": -1.0, "X": 1.0}, "interpolation": 2}]}, "id": "MFS21WEFL5", "image": "C:\\Users\\Luca\\.openshot_qt\\thumbnail\\1V1XR4MF1P.png", "location_x": {"Points": [{"handle_right": {"Y": 0.0, "X": 0.5}, "co": {"Y": 0.0, "X": 1.0}, "handle_left": {"Y": 1.0, "X": 0.5}, "handle_type": 0, "interpolation": 0}]}, "perspective_c2_y": {"Points": [{"co": {"Y": -1.0, "X": 1.0}, "interpolation": 2}]}, "perspective_c3_x": {"Points": [{"co": {"Y": -1.0, "X": 1.0}, "interpolation": 2}]}, "location_y": {"Points": [{"handle_right": {"Y": 0.0, "X": 0.5}, "co": {"Y": 0.0, "X": 1.0}, "handle_left": {"Y": 1.0, "X": 0.5}, "handle_type": 0, "interpolation": 0}]}}, "type": "update", "partial": false, "old_values": {"duration": 86400.0, "shear_x": {"Points": [{"co": {"Y": 0.0, "X": 1.0}, "interpolation": 2}]}, "position": 21.77875, "channel_mapping": {"Points": [{"co": {"Y": -1.0, "X": 1.0}, "interpolation": 2}]}, "alpha": {"Points": [{"co": {"Y": 1.0, "X": 1.0}, "interpolation": 2}]}, "crop_width": {"Points": [{"co": {"Y": -1.0, "X": 1.0}, "interpolation": 2}]}, "display": 0, "crop_y": {"Points": [{"co": {"Y": 0.0, "X": 1.0}, "interpolation": 2}]}, "anchor": 0, "perspective_c1_y": {"Points": [{"co": {"Y": -1.0, "X": 1.0}, "interpolation": 2}]}, "scale": 1, "perspective_c1_x": {"Points": [{"co": {"Y": -1.0, "X": 1.0}, "interpolation": 2}]}, "volume": {"Points": [{"co": {"Y": 1.0, "X": 1.0}, "interpolation": 2}]}, "time": {"Points": [{"co": {"Y": 1.0, "X": 1.0}, "interpolation": 2}]}, "perspective_c3_y": {"Points": [{"co": {"Y": -1.0, "X": 1.0}, "interpolation": 2}]}, "channel_filter": {"Points": [{"co": {"Y": -1.0, "X": 1.0}, "interpolation": 2}]}, "wave_color": {"alpha": {"Points": [{"handle_right": {"Y": 0.0, "X": 0.5}, "co": {"Y": 255.0, "X": 1.0}, "handle_left": {"Y": 1.0, "X": 0.5}, "handle_type": 0, "interpolation": 0}]}, "green": {"Points": [{"handle_right": {"Y": 0.0, "X": 0.5}, "co": {"Y": 123.0, "X": 1.0}, "handle_left": {"Y": 1.0, "X": 0.5}, "handle_type": 0, "interpolation": 0}]}, "red": {"Points": [{"handle_right": {"Y": 0.0, "X": 0.5}, "co": {"Y": 0.0, "X": 1.0}, "handle_left": {"Y": 1.0, "X": 0.5}, "handle_type": 0, "interpolation": 0}]}, "blue": {"Points": [{"handle_right": {"Y": 0.0, "X": 0.5}, "co": {"Y": 255.0, "X": 1.0}, "handle_left": {"Y": 1.0, "X": 0.5}, "handle_type": 0, "interpolation": 0}]}}, "end": 18.169999999999998, "layer": 2, "crop_x": {"Points": [{"co": {"Y": 0.0, "X": 1.0}, "interpolation": 2}]}, "effects": [], "gravity": 4, "reader": {"vcodec": "", "audio_timebase": {"num": 1, "den": 1}, "duration": 86400.0, "file_size": "61952", "audio_bit_rate": 0, "pixel_ratio": {"num": 1, "den": 1}, "pixel_format": -1, "width": 121, "video_stream_index": -1, "video_bit_rate": 0, "has_single_image": true, "path": "C:\\Users\\Luca\\Desktop\\autonomous_category_formation\\manuscript\\figs\\6mm.jpg", "top_field_first": true, "channel_layout": 4, "video_length": "2592000", "sample_rate": 0, "display_ratio": {"num": 121, "den": 128}, "has_video": true, "acodec": "", "video_timebase": {"num": 1, "den": 30}, "height": 128, "interlaced_frame": false, "fps": {"num": 30, "den": 1}, "channels": 0, "audio_stream_index": -1, "type": "QtImageReader", "has_audio": false}, "perspective_c2_x": {"Points": [{"co": {"Y": -1.0, "X": 1.0}, "interpolation": 2}]}, "has_video": {"Points": [{"co": {"Y": -1.0, "X": 1.0}, "interpolation": 2}]}, "scale_x": {"Points": [{"co": {"Y": 1.0, "X": 1.0}, "interpolation": 2}, {"co": {"Y": 0.35, "X": 7}, "interpolation": 0}, {"co": {"Y": 0.2117647283217486, "X": 63}, "interpolation": 0}, {"co": {"Y": 0.2180167639956755, "X": 4}, "interpolation": 0}]}, "file_id": "1V1XR4MF1P", "shear_y": {"Points": [{"co": {"Y": 0.0, "X": 1.0}, "interpolation": 2}]}, "waveform": false, "start": 0, "scale_y": {"Points": [{"co": {"Y": 1.0, "X": 1.0}, "interpolation": 2}, {"co": {"Y": 0.06527415143603134, "X": 7}, "interpolation": 0}, {"co": {"Y": 0.21148825485463554, "X": 63}, "interpolation": 0}, {"co": {"Y": 0.20391471143179724, "X": 4}, "interpolation": 0}]}, "title": "6mm.jpg", "perspective_c4_y": {"Points": [{"co": {"Y": -1.0, "X": 1.0}, "interpolation": 2}]}, "rotation": {"Points": [{"co": {"Y": 0.0, "X": 1.0}, "interpolation": 2}]}, "perspective_c2_y": {"Points": [{"co": {"Y": -1.0, "X": 1.0}, "interpolation": 2}]}, "perspective_c4_x": {"Points": [{"co": {"Y": -1.0, "X": 1.0}, "interpolation": 2}]}, "crop_height": {"Points": [{"co": {"Y": -1.0, "X": 1.0}, "interpolation": 2}]}, "id": "MFS21WEFL5", "image": "C:\\Users\\Luca\\.openshot_qt\\thumbnail\\1V1XR4MF1P.png", "has_audio": {"Points": [{"co": {"Y": -1.0, "X": 1.0}, "interpolation": 2}]}, "location_x": {"Points": [{"co": {"Y": 0.0, "X": 1.0}, "interpolation": 2}, {"co": {"Y": -0.439705893572639, "X": 63}, "interpolation": 0}, {"co": {"Y": -0.4384201459614012, "X": 4}, "interpolation": 0}]}, "perspective_c3_x": {"Points": [{"co": {"Y": -1.0, "X": 1.0}, "interpolation": 2}]}, "location_y": {"Points": [{"co": {"Y": 0.0, "X": 1.0}, "interpolation": 2}, {"co": {"Y": -0.38120104648736997, "X": 63}, "interpolation": 0}, {"co": {"Y": -0.39569105102659957, "X": 4}, "interpolation": 0}]}}}, {"key": ["clips", {"id": "MFS21WEFL5"}], "value": {"position": 21.77875, "start": 0, "end": 18.169999999999998, "id": "MFS21WEFL5", "layer": 2, "image": "C:\\Users\\Luca\\.openshot_qt\\thumbnail\\1V1XR4MF1P.png"}, "type": "update", "partial": false, "old_values": {"duration": 86400.0, "shear_x": {"Points": [{"co": {"Y": 0.0, "X": 1.0}, "interpolation": 2}]}, "position": 22.0875, "channel_mapping": {"Points": [{"co": {"Y": -1.0, "X": 1.0}, "interpolation": 2}]}, "alpha": {"Points": [{"co": {"Y": 1.0, "X": 1.0}, "interpolation": 2}]}, "crop_width": {"Points": [{"co": {"Y": -1.0, "X": 1.0}, "interpolation": 2}]}, "display": 0, "crop_y": {"Points": [{"co": {"Y": 0.0, "X": 1.0}, "interpolation": 2}]}, "anchor": 0, "perspective_c1_y": {"Points": [{"co": {"Y": -1.0, "X": 1.0}, "interpolation": 2}]}, "scale": 1, "perspective_c1_x": {"Points": [{"co": {"Y": -1.0, "X": 1.0}, "interpolation": 2}]}, "volume": {"Points": [{"co": {"Y": 1.0, "X": 1.0}, "interpolation": 2}]}, "time": {"Points": [{"co": {"Y": 1.0, "X": 1.0}, "interpolation": 2}]}, "perspective_c3_y": {"Points": [{"co": {"Y": -1.0, "X": 1.0}, "interpolation": 2}]}, "channel_filter": {"Points": [{"co": {"Y": -1.0, "X": 1.0}, "interpolation": 2}]}, "wave_color": {"alpha": {"Points": [{"handle_right": {"Y": 0.0, "X": 0.5}, "co": {"Y": 255.0, "X": 1.0}, "handle_left": {"Y": 1.0, "X": 0.5}, "handle_type": 0, "interpolation": 0}]}, "green": {"Points": [{"handle_right": {"Y": 0.0, "X": 0.5}, "co": {"Y": 123.0, "X": 1.0}, "handle_left": {"Y": 1.0, "X": 0.5}, "handle_type": 0, "interpolation": 0}]}, "red": {"Points": [{"handle_right": {"Y": 0.0, "X": 0.5}, "co": {"Y": 0.0, "X": 1.0}, "handle_left": {"Y": 1.0, "X": 0.5}, "handle_type": 0, "interpolation": 0}]}, "blue": {"Points": [{"handle_right": {"Y": 0.0, "X": 0.5}, "co": {"Y": 255.0, "X": 1.0}, "handle_left": {"Y": 1.0, "X": 0.5}, "handle_type": 0, "interpolation": 0}]}}, "end": 18.169999999999998, "layer": 2, "crop_x": {"Points": [{"co": {"Y": 0.0, "X": 1.0}, "interpolation": 2}]}, "effects": [], "gravity": 4, "reader": {"vcodec": "", "audio_timebase": {"num": 1, "den": 1}, "duration": 86400.0, "file_size": "61952", "audio_bit_rate": 0, "pixel_ratio": {"num": 1, "den": 1}, "pixel_format": -1, "width": 121, "video_stream_index": -1, "video_bit_rate": 0, "has_single_image": true, "path": "C:\\Users\\Luca\\Desktop\\autonomous_category_formation\\manuscript\\figs\\6mm.jpg", "top_field_first": true, "channel_layout": 4, "video_length": "2592000", "sample_rate": 0, "display_ratio": {"num": 121, "den": 128}, "has_video": true, "acodec": "", "video_timebase": {"num": 1, "den": 30}, "height": 128, "interlaced_frame": false, "fps": {"num": 30, "den": 1}, "channels": 0, "audio_stream_index": -1, "type": "QtImageReader", "has_audio": false}, "perspective_c2_x": {"Points": [{"co": {"Y": -1.0, "X": 1.0}, "interpolation": 2}]}, "has_video": {"Points": [{"co": {"Y": -1.0, "X": 1.0}, "interpolation": 2}]}, "scale_x": {"Points": [{"co": {"Y": 1.0, "X": 1.0}, "interpolation": 2}, {"co": {"Y": 0.35, "X": 7}, "interpolation": 0}, {"co": {"Y": 0.2117647283217486, "X": 63}, "interpolation": 0}, {"co": {"Y": 0.2180167639956755, "X": 4}, "interpolation": 0}]}, "file_id": "1V1XR4MF1P", "shear_y": {"Points": [{"co": {"Y": 0.0, "X": 1.0}, "interpolation": 2}]}, "waveform": false, "start": 0, "scale_y": {"Points": [{"co": {"Y": 1.0, "X": 1.0}, "interpolation": 2}, {"co": {"Y": 0.06527415143603134, "X": 7}, "interpolation": 0}, {"co": {"Y": 0.21148825485463554, "X": 63}, "interpolation": 0}, {"co": {"Y": 0.20391471143179724, "X": 4}, "interpolation": 0}]}, "title": "6mm.jpg", "perspective_c4_y": {"Points": [{"co": {"Y": -1.0, "X": 1.0}, "interpolation": 2}]}, "rotation": {"Points": [{"co": {"Y": 0.0, "X": 1.0}, "interpolation": 2}]}, "perspective_c2_y": {"Points": [{"co": {"Y": -1.0, "X": 1.0}, "interpolation": 2}]}, "perspective_c4_x": {"Points": [{"co": {"Y": -1.0, "X": 1.0}, "interpolation": 2}]}, "crop_height": {"Points": [{"co": {"Y": -1.0, "X": 1.0}, "interpolation": 2}]}, "id": "MFS21WEFL5", "image": "C:\\Users\\Luca\\.openshot_qt\\thumbnail\\1V1XR4MF1P.png", "has_audio": {"Points": [{"co": {"Y": -1.0, "X": 1.0}, "interpolation": 2}]}, "location_x": {"Points": [{"co": {"Y": 0.0, "X": 1.0}, "interpolation": 2}, {"co": {"Y": -0.439705893572639, "X": 63}, "interpolation": 0}, {"co": {"Y": -0.4384201459614012, "X": 4}, "interpolation": 0}]}, "perspective_c3_x": {"Points": [{"co": {"Y": -1.0, "X": 1.0}, "interpolation": 2}]}, "location_y": {"Points": [{"co": {"Y": 0.0, "X": 1.0}, "interpolation": 2}, {"co": {"Y": -0.38120104648736997, "X": 63}, "interpolation": 0}, {"co": {"Y": -0.39569105102659957, "X": 4}, "interpolation": 0}]}}}, {"key": ["clips", {"id": "MFS21WEFL5"}], "value": {"position": 22.0875, "start": 0, "end": 18.169999999999998, "id": "MFS21WEFL5", "layer": 2, "image": "C:\\Users\\Luca\\.openshot_qt\\thumbnail\\1V1XR4MF1P.png"}, "type": "update", "partial": false, "old_values": {"duration": 86400.0, "shear_x": {"Points": [{"co": {"Y": 0.0, "X": 1.0}, "interpolation": 2}]}, "position": 19.07125, "channel_mapping": {"Points": [{"co": {"Y": -1.0, "X": 1.0}, "interpolation": 2}]}, "alpha": {"Points": [{"co": {"Y": 1.0, "X": 1.0}, "interpolation": 2}]}, "crop_width": {"Points": [{"co": {"Y": -1.0, "X": 1.0}, "interpolation": 2}]}, "display": 0, "crop_y": {"Points": [{"co": {"Y": 0.0, "X": 1.0}, "interpolation": 2}]}, "anchor": 0, "perspective_c1_y": {"Points": [{"co": {"Y": -1.0, "X": 1.0}, "interpolation": 2}]}, "scale": 1, "perspective_c1_x": {"Points": [{"co": {"Y": -1.0, "X": 1.0}, "interpolation": 2}]}, "volume": {"Points": [{"co": {"Y": 1.0, "X": 1.0}, "interpolation": 2}]}, "time": {"Points": [{"co": {"Y": 1.0, "X": 1.0}, "interpolation": 2}]}, "perspective_c3_y": {"Points": [{"co": {"Y": -1.0, "X": 1.0}, "interpolation": 2}]}, "channel_filter": {"Points": [{"co": {"Y": -1.0, "X": 1.0}, "interpolation": 2}]}, "wave_color": {"alpha": {"Points": [{"handle_right": {"Y": 0.0, "X": 0.5}, "co": {"Y": 255.0, "X": 1.0}, "handle_left": {"Y": 1.0, "X": 0.5}, "handle_type": 0, "interpolation": 0}]}, "green": {"Points": [{"handle_right": {"Y": 0.0, "X": 0.5}, "co": {"Y": 123.0, "X": 1.0}, "handle_left": {"Y": 1.0, "X": 0.5}, "handle_type": 0, "interpolation": 0}]}, "red": {"Points": [{"handle_right": {"Y": 0.0, "X": 0.5}, "co": {"Y": 0.0, "X": 1.0}, "handle_left": {"Y": 1.0, "X": 0.5}, "handle_type": 0, "interpolation": 0}]}, "blue": {"Points": [{"handle_right": {"Y": 0.0, "X": 0.5}, "co": {"Y": 255.0, "X": 1.0}, "handle_left": {"Y": 1.0, "X": 0.5}, "handle_type": 0, "interpolation": 0}]}}, "end": 18.169999999999998, "layer": 2, "crop_x": {"Points": [{"co": {"Y": 0.0, "X": 1.0}, "interpolation": 2}]}, "effects": [], "gravity": 4, "reader": {"vcodec": "", "audio_timebase": {"num": 1, "den": 1}, "duration": 86400.0, "file_size": "61952", "audio_bit_rate": 0, "pixel_ratio": {"num": 1, "den": 1}, "pixel_format": -1, "width": 121, "video_stream_index": -1, "video_bit_rate": 0, "has_single_image": true, "path": "C:\\Users\\Luca\\Desktop\\autonomous_category_formation\\manuscript\\figs\\6mm.jpg", "top_field_first": true, "channel_layout": 4, "video_length": "2592000", "sample_rate": 0, "display_ratio": {"num": 121, "den": 128}, "has_video": true, "acodec": "", "video_timebase": {"num": 1, "den": 30}, "height": 128, "interlaced_frame": false, "fps": {"num": 30, "den": 1}, "channels": 0, "audio_stream_index": -1, "type": "QtImageReader", "has_audio": false}, "perspective_c2_x": {"Points": [{"co": {"Y": -1.0, "X": 1.0}, "interpolation": 2}]}, "has_video": {"Points": [{"co": {"Y": -1.0, "X": 1.0}, "interpolation": 2}]}, "scale_x": {"Points": [{"co": {"Y": 1.0, "X": 1.0}, "interpolation": 2}, {"co": {"Y": 0.35, "X": 7}, "interpolation": 0}, {"co": {"Y": 0.2117647283217486, "X": 63}, "interpolation": 0}, {"co": {"Y": 0.2180167639956755, "X": 4}, "interpolation": 0}]}, "file_id": "1V1XR4MF1P", "shear_y": {"Points": [{"co": {"Y": 0.0, "X": 1.0}, "interpolation": 2}]}, "waveform": false, "start": 0, "scale_y": {"Points": [{"co": {"Y": 1.0, "X": 1.0}, "interpolation": 2}, {"co": {"Y": 0.06527415143603134, "X": 7}, "interpolation": 0}, {"co": {"Y": 0.21148825485463554, "X": 63}, "interpolation": 0}, {"co": {"Y": 0.20391471143179724, "X": 4}, "interpolation": 0}]}, "title": "6mm.jpg", "perspective_c4_y": {"Points": [{"co": {"Y": -1.0, "X": 1.0}, "interpolation": 2}]}, "rotation": {"Points": [{"co": {"Y": 0.0, "X": 1.0}, "interpolation": 2}]}, "perspective_c2_y": {"Points": [{"co": {"Y": -1.0, "X": 1.0}, "interpolation": 2}]}, "perspective_c4_x": {"Points": [{"co": {"Y": -1.0, "X": 1.0}, "interpolation": 2}]}, "crop_height": {"Points": [{"co": {"Y": -1.0, "X": 1.0}, "interpolation": 2}]}, "id": "MFS21WEFL5", "image": "C:\\Users\\Luca\\.openshot_qt\\thumbnail\\1V1XR4MF1P.png", "has_audio": {"Points": [{"co": {"Y": -1.0, "X": 1.0}, "interpolation": 2}]}, "location_x": {"Points": [{"co": {"Y": 0.0, "X": 1.0}, "interpolation": 2}, {"co": {"Y": -0.439705893572639, "X": 63}, "interpolation": 0}, {"co": {"Y": -0.4384201459614012, "X": 4}, "interpolation": 0}]}, "perspective_c3_x": {"Points": [{"co": {"Y": -1.0, "X": 1.0}, "interpolation": 2}]}, "location_y": {"Points": [{"co": {"Y": 0.0, "X": 1.0}, "interpolation": 2}, {"co": {"Y": -0.38120104648736997, "X": 63}, "interpolation": 0}, {"co": {"Y": -0.39569105102659957, "X": 4}, "interpolation": 0}]}}}, {"key": ["clips", {"id": "MFS21WEFL5"}], "value": {"scale_y": {"Points": [{"co": {"Y": 1.0, "X": 1.0}, "interpolation": 2}, {"co": {"Y": 0.06527415143603134, "X": 7}, "interpolation": 0}, {"co": {"Y": 0.21148825485463554, "X": 63}, "interpolation": 0}, {"co": {"Y": 0.20391471143179724, "X": 4}, "interpolation": 0}]}}, "type": "update", "partial": false, "old_values": {"duration": 86400.0, "shear_x": {"Points": [{"co": {"Y": 0.0, "X": 1.0}, "interpolation": 2}]}, "position": 19.07125, "channel_mapping": {"Points": [{"co": {"Y": -1.0, "X": 1.0}, "interpolation": 2}]}, "alpha": {"Points": [{"co": {"Y": 1.0, "X": 1.0}, "interpolation": 2}]}, "crop_width": {"Points": [{"co": {"Y": -1.0, "X": 1.0}, "interpolation": 2}]}, "display": 0, "crop_y": {"Points": [{"co": {"Y": 0.0, "X": 1.0}, "interpolation": 2}]}, "anchor": 0, "perspective_c1_y": {"Points": [{"co": {"Y": -1.0, "X": 1.0}, "interpolation": 2}]}, "scale": 1, "perspective_c1_x": {"Points": [{"co": {"Y": -1.0, "X": 1.0}, "interpolation": 2}]}, "volume": {"Points": [{"co": {"Y": 1.0, "X": 1.0}, "interpolation": 2}]}, "time": {"Points": [{"co": {"Y": 1.0, "X": 1.0}, "interpolation": 2}]}, "perspective_c3_y": {"Points": [{"co": {"Y": -1.0, "X": 1.0}, "interpolation": 2}]}, "channel_filter": {"Points": [{"co": {"Y": -1.0, "X": 1.0}, "interpolation": 2}]}, "wave_color": {"alpha": {"Points": [{"handle_right": {"Y": 0.0, "X": 0.5}, "co": {"Y": 255.0, "X": 1.0}, "handle_left": {"Y": 1.0, "X": 0.5}, "handle_type": 0, "interpolation": 0}]}, "green": {"Points": [{"handle_right": {"Y": 0.0, "X": 0.5}, "co": {"Y": 123.0, "X": 1.0}, "handle_left": {"Y": 1.0, "X": 0.5}, "handle_type": 0, "interpolation": 0}]}, "red": {"Points": [{"handle_right": {"Y": 0.0, "X": 0.5}, "co": {"Y": 0.0, "X": 1.0}, "handle_left": {"Y": 1.0, "X": 0.5}, "handle_type": 0, "interpolation": 0}]}, "blue": {"Points": [{"handle_right": {"Y": 0.0, "X": 0.5}, "co": {"Y": 255.0, "X": 1.0}, "handle_left": {"Y": 1.0, "X": 0.5}, "handle_type": 0, "interpolation": 0}]}}, "end": 18.169999999999998, "layer": 2, "crop_x": {"Points": [{"co": {"Y": 0.0, "X": 1.0}, "interpolation": 2}]}, "effects": [], "gravity": 4, "reader": {"vcodec": "", "audio_timebase": {"num": 1, "den": 1}, "duration": 86400.0, "file_size": "61952", "audio_bit_rate": 0, "pixel_ratio": {"num": 1, "den": 1}, "pixel_format": -1, "width": 121, "video_stream_index": -1, "video_bit_rate": 0, "has_single_image": true, "path": "C:\\Users\\Luca\\Desktop\\autonomous_category_formation\\manuscript\\figs\\6mm.jpg", "top_field_first": true, "channel_layout": 4, "video_length": "2592000", "sample_rate": 0, "display_ratio": {"num": 121, "den": 128}, "has_video": true, "acodec": "", "video_timebase": {"num": 1, "den": 30}, "height": 128, "interlaced_frame": false, "fps": {"num": 30, "den": 1}, "channels": 0, "audio_stream_index": -1, "type": "QtImageReader", "has_audio": false}, "perspective_c2_x": {"Points": [{"co": {"Y": -1.0, "X": 1.0}, "interpolation": 2}]}, "has_video": {"Points": [{"co": {"Y": -1.0, "X": 1.0}, "interpolation": 2}]}, "scale_x": {"Points": [{"co": {"Y": 1.0, "X": 1.0}, "interpolation": 2}, {"co": {"Y": 0.35, "X": 7}, "interpolation": 0}, {"co": {"Y": 0.2117647283217486, "X": 63}, "interpolation": 0}, {"co": {"Y": 0.2180167639956755, "X": 4}, "interpolation": 0}]}, "file_id": "1V1XR4MF1P", "shear_y": {"Points": [{"co": {"Y": 0.0, "X": 1.0}, "interpolation": 2}]}, "waveform": false, "start": 0, "scale_y": {"Points": [{"co": {"Y": 1.0, "X": 1.0}, "interpolation": 2}, {"co": {"Y": 0.06527415143603134, "X": 7}, "interpolation": 0}, {"co": {"Y": 0.21148825485463554, "X": 63}, "interpolation": 0}, {"co": {"Y": 0.24569019604797715, "X": 4}, "interpolation": 0}]}, "title": "6mm.jpg", "perspective_c4_y": {"Points": [{"co": {"Y": -1.0, "X": 1.0}, "interpolation": 2}]}, "rotation": {"Points": [{"co": {"Y": 0.0, "X": 1.0}, "interpolation": 2}]}, "perspective_c2_y": {"Points": [{"co": {"Y": -1.0, "X": 1.0}, "interpolation": 2}]}, "perspective_c4_x": {"Points": [{"co": {"Y": -1.0, "X": 1.0}, "interpolation": 2}]}, "crop_height": {"Points": [{"co": {"Y": -1.0, "X": 1.0}, "interpolation": 2}]}, "id": "MFS21WEFL5", "image": "C:\\Users\\Luca\\.openshot_qt\\thumbnail\\1V1XR4MF1P.png", "has_audio": {"Points": [{"co": {"Y": -1.0, "X": 1.0}, "interpolation": 2}]}, "location_x": {"Points": [{"co": {"Y": 0.0, "X": 1.0}, "interpolation": 2}, {"co": {"Y": -0.439705893572639, "X": 63}, "interpolation": 0}, {"co": {"Y": -0.4384201459614012, "X": 4}, "interpolation": 0}]}, "perspective_c3_x": {"Points": [{"co": {"Y": -1.0, "X": 1.0}, "interpolation": 2}]}, "location_y": {"Points": [{"co": {"Y": 0.0, "X": 1.0}, "interpolation": 2}, {"co": {"Y": -0.38120104648736997, "X": 63}, "interpolation": 0}, {"co": {"Y": -0.39569105102659957, "X": 4}, "interpolation": 0}]}}}], "undo": [{"key": ["clips", {"id": "MFS21WEFL5"}], "value": {"scale_y": {"Points": [{"co": {"Y": 1.0, "X": 1.0}, "interpolation": 2}, {"co": {"Y": 0.06527415143603134, "X": 7}, "interpolation": 0}, {"co": {"Y": 0.21148825485463554, "X": 63}, "interpolation": 0}]}}, "type": "update", "partial": false, "old_values": {"duration": 86400.0, "shear_x": {"Points": [{"co": {"Y": 0.0, "X": 1.0}, "interpolation": 2}]}, "position": 17.3790625, "crop_height": {"Points": [{"co": {"Y": -1.0, "X": 1.0}, "interpolation": 2}]}, "reader": {"vcodec": "", "audio_timebase": {"num": 1, "den": 1}, "duration": 86400.0, "file_size": "61952", "channels": 0, "pixel_ratio": {"num": 1, "den": 1}, "pixel_format": -1, "width": 121, "video_stream_index": -1, "video_bit_rate": 0, "has_single_image": true, "path": "C:\\Users\\Luca\\Desktop\\autonomous_category_formation\\manuscript\\figs\\6mm.jpg", "display_ratio": {"num": 121, "den": 128}, "channel_layout": 4, "video_length": "2592000", "sample_rate": 0, "has_video": true, "acodec": "", "top_field_first": true, "video_timebase": {"num": 1, "den": 30}, "height": 128, "interlaced_frame": false, "fps": {"num": 30, "den": 1}, "audio_bit_rate": 0, "audio_stream_index": -1, "type": "QtImageReader", "has_audio": false}, "perspective_c3_x": {"Points": [{"co": {"Y": -1.0, "X": 1.0}, "interpolation": 2}]}, "crop_y": {"Points": [{"co": {"Y": 0.0, "X": 1.0}, "interpolation": 2}]}, "anchor": 0, "perspective_c1_y": {"Points": [{"co": {"Y": -1.0, "X": 1.0}, "interpolation": 2}]}, "scale": 1, "perspective_c1_x": {"Points": [{"co": {"Y": -1.0, "X": 1.0}, "interpolation": 2}]}, "volume": {"Points": [{"co": {"Y": 1.0, "X": 1.0}, "interpolation": 2}]}, "time": {"Points": [{"co": {"Y": 1.0, "X": 1.0}, "interpolation": 2}]}, "perspective_c3_y": {"Points": [{"co": {"Y": -1.0, "X": 1.0}, "interpolation": 2}]}, "channel_filter": {"Points": [{"co": {"Y": -1.0, "X": 1.0}, "interpolation": 2}]}, "wave_color": {"alpha": {"Points": [{"handle_right": {"Y": 0.0, "X": 0.5}, "co": {"Y": 255.0, "X": 1.0}, "handle_left": {"Y": 1.0, "X": 0.5}, "handle_type": 0, "interpolation": 0}]}, "blue": {"Points": [{"handle_right": {"Y": 0.0, "X": 0.5}, "co": {"Y": 255.0, "X": 1.0}, "handle_left": {"Y": 1.0, "X": 0.5}, "handle_type": 0, "interpolation": 0}]}, "red": {"Points": [{"handle_right": {"Y": 0.0, "X": 0.5}, "co": {"Y": 0.0, "X": 1.0}, "handle_left": {"Y": 1.0, "X": 0.5}, "handle_type": 0, "interpolation": 0}]}, "green": {"Points": [{"handle_right": {"Y": 0.0, "X": 0.5}, "co": {"Y": 123.0, "X": 1.0}, "handle_left": {"Y": 1.0, "X": 0.5}, "handle_type": 0, "interpolation": 0}]}}, "end": 18.169999999999998, "title": "6mm.jpg", "layer": 2, "crop_x": {"Points": [{"co": {"Y": 0.0, "X": 1.0}, "interpolation": 2}]}, "effects": [], "gravity": 4, "alpha": {"Points": [{"co": {"Y": 1.0, "X": 1.0}, "interpolation": 2}]}, "perspective_c4_y": {"Points": [{"co": {"Y": -1.0, "X": 1.0}, "interpolation": 2}]}, "perspective_c2_x": {"Points": [{"co": {"Y": -1.0, "X": 1.0}, "interpolation": 2}]}, "has_video": {"Points": [{"co": {"Y": -1.0, "X": 1.0}, "interpolation": 2}]}, "scale_x": {"Points": [{"co": {"Y": 1.0, "X": 1.0}, "interpolation": 2}, {"co": {"Y": 0.35, "X": 7}, "interpolation": 0}, {"co": {"Y": 0.22941176470588234, "X": 63}, "interpolation": 0}]}, "file_id": "1V1XR4MF1P", "has_audio": {"Points": [{"co": {"Y": -1.0, "X": 1.0}, "interpolation": 2}]}, "start": 0, "location_x": {"Points": [{"co": {"Y": 0.0, "X": 1.0}, "interpolation": 2}, {"co": {"Y": -0.43676470588235294, "X": 63}, "interpolation": 0}]}, "scale_y": {"Points": [{"co": {"Y": 1.0, "X": 1.0}, "interpolation": 2}, {"co": {"Y": 0.06527415143603134, "X": 7}, "interpolation": 0}, {"co": {"Y": 0.3472584856396867, "X": 63}, "interpolation": 0}]}, "waveform": false, "shear_y": {"Points": [{"co": {"Y": 0.0, "X": 1.0}, "interpolation": 2}]}, "rotation": {"Points": [{"co": {"Y": 0.0, "X": 1.0}, "interpolation": 2}]}, "perspective_c4_x": {"Points": [{"co": {"Y": -1.0, "X": 1.0}, "interpolation": 2}]}, "channel_mapping": {"Points": [{"co": {"Y": -1.0, "X": 1.0}, "interpolation": 2}]}, "location_y": {"Points": [{"co": {"Y": 0.0, "X": 1.0}, "interpolation": 2}, {"co": {"Y": -0.3185378590078329, "X": 63}, "interpolation": 0}]}, "image": "C:\\Users\\Luca\\.openshot_qt\\thumbnail\\1V1XR4MF1P.png", "id": "MFS21WEFL5", "perspective_c2_y": {"Points": [{"co": {"Y": -1.0, "X": 1.0}, "interpolation": 2}]}, "crop_width": {"Points": [{"co": {"Y": -1.0, "X": 1.0}, "interpolation": 2}]}, "display": 0}}, {"key": ["clips", {"id": "MFS21WEFL5"}], "value": {"scale_x": {"Points": [{"co": {"Y": 1.0, "X": 1.0}, "interpolation": 2}, {"co": {"Y": 0.35, "X": 7}, "interpolation": 0}, {"co": {"Y": 0.10294119890998392, "X": 63}, "interpolation": 0}]}}, "type": "update", "partial": false, "old_values": {"duration": 86400.0, "shear_x": {"Points": [{"co": {"Y": 0.0, "X": 1.0}, "interpolation": 2}]}, "position": 17.3790625, "crop_height": {"Points": [{"co": {"Y": -1.0, "X": 1.0}, "interpolation": 2}]}, "reader": {"vcodec": "", "audio_timebase": {"num": 1, "den": 1}, "duration": 86400.0, "file_size": "61952", "channels": 0, "pixel_ratio": {"num": 1, "den": 1}, "pixel_format": -1, "width": 121, "video_stream_index": -1, "video_bit_rate": 0, "has_single_image": true, "path": "C:\\Users\\Luca\\Desktop\\autonomous_category_formation\\manuscript\\figs\\6mm.jpg", "display_ratio": {"num": 121, "den": 128}, "channel_layout": 4, "video_length": "2592000", "sample_rate": 0, "has_video": true, "acodec": "", "top_field_first": true, "video_timebase": {"num": 1, "den": 30}, "height": 128, "interlaced_frame": false, "fps": {"num": 30, "den": 1}, "audio_bit_rate": 0, "audio_stream_index": -1, "type": "QtImageReader", "has_audio": false}, "perspective_c3_x": {"Points": [{"co": {"Y": -1.0, "X": 1.0}, "interpolation": 2}]}, "crop_y": {"Points": [{"co": {"Y": 0.0, "X": 1.0}, "interpolation": 2}]}, "anchor": 0, "perspective_c1_y": {"Points": [{"co": {"Y": -1.0, "X": 1.0}, "interpolation": 2}]}, "scale": 1, "perspective_c1_x": {"Points": [{"co": {"Y": -1.0, "X": 1.0}, "interpolation": 2}]}, "volume": {"Points": [{"co": {"Y": 1.0, "X": 1.0}, "interpolation": 2}]}, "time": {"Points": [{"co": {"Y": 1.0, "X": 1.0}, "interpolation": 2}]}, "perspective_c3_y": {"Points": [{"co": {"Y": -1.0, "X": 1.0}, "interpolation": 2}]}, "channel_filter": {"Points": [{"co": {"Y": -1.0, "X": 1.0}, "interpolation": 2}]}, "wave_color": {"alpha": {"Points": [{"handle_right": {"Y": 0.0, "X": 0.5}, "co": {"Y": 255.0, "X": 1.0}, "handle_left": {"Y": 1.0, "X": 0.5}, "handle_type": 0, "interpolation": 0}]}, "blue": {"Points": [{"handle_right": {"Y": 0.0, "X": 0.5}, "co": {"Y": 255.0, "X": 1.0}, "handle_left": {"Y": 1.0, "X": 0.5}, "handle_type": 0, "interpolation": 0}]}, "red": {"Points": [{"handle_right": {"Y": 0.0, "X": 0.5}, "co": {"Y": 0.0, "X": 1.0}, "handle_left": {"Y": 1.0, "X": 0.5}, "handle_type": 0, "interpolation": 0}]}, "green": {"Points": [{"handle_right": {"Y": 0.0, "X": 0.5}, "co": {"Y": 123.0, "X": 1.0}, "handle_left": {"Y": 1.0, "X": 0.5}, "handle_type": 0, "interpolation": 0}]}}, "end": 18.169999999999998, "title": "6mm.jpg", "layer": 2, "crop_x": {"Points": [{"co": {"Y": 0.0, "X": 1.0}, "interpolation": 2}]}, "effects": [], "gravity": 4, "alpha": {"Points": [{"co": {"Y": 1.0, "X": 1.0}, "interpolation": 2}]}, "perspective_c4_y": {"Points": [{"co": {"Y": -1.0, "X": 1.0}, "interpolation": 2}]}, "perspective_c2_x": {"Points": [{"co": {"Y": -1.0, "X": 1.0}, "interpolation": 2}]}, "has_video": {"Points": [{"co": {"Y": -1.0, "X": 1.0}, "interpolation": 2}]}, "scale_x": {"Points": [{"co": {"Y": 1.0, "X": 1.0}, "interpolation": 2}, {"co": {"Y": 0.35, "X": 7}, "interpolation": 0}, {"co": {"Y": 0.10294119890998392, "X": 63}, "interpolation": 0}]}, "file_id": "1V1XR4MF1P", "has_audio": {"Points": [{"co": {"Y": -1.0, "X": 1.0}, "interpolation": 2}]}, "start": 0, "location_x": {"Points": [{"co": {"Y": 0.0, "X": 1.0}, "interpolation": 2}, {"co": {"Y": -0.43676470588235294, "X": 63}, "interpolation": 0}]}, "scale_y": {"Points": [{"co": {"Y": 1.0, "X": 1.0}, "interpolation": 2}, {"co": {"Y": 0.06527415143603134, "X": 7}, "interpolation": 0}, {"co": {"Y": 0.21148825485463554, "X": 63}, "interpolation": 0}]}, "waveform": false, "shear_y": {"Points": [{"co": {"Y": 0.0, "X": 1.0}, "interpolation": 2}]}, "rotation": {"Points": [{"co": {"Y": 0.0, "X": 1.0}, "interpolation": 2}]}, "perspective_c4_x": {"Points": [{"co": {"Y": -1.0, "X": 1.0}, "interpolation": 2}]}, "channel_mapping": {"Points": [{"co": {"Y": -1.0, "X": 1.0}, "interpolation": 2}]}, "location_y": {"Points": [{"co": {"Y": 0.0, "X": 1.0}, "interpolation": 2}, {"co": {"Y": -0.3185378590078329, "X": 63}, "interpolation": 0}]}, "image": "C:\\Users\\Luca\\.openshot_qt\\thumbnail\\1V1XR4MF1P.png", "id": "MFS21WEFL5", "perspective_c2_y": {"Points": [{"co": {"Y": -1.0, "X": 1.0}, "interpolation": 2}]}, "crop_width": {"Points": [{"co": {"Y": -1.0, "X": 1.0}, "interpolation": 2}]}, "display": 0}}, {"key": ["clips", {"id": "MFS21WEFL5"}], "value": {"scale_x": {"Points": [{"co": {"Y": 1.0, "X": 1.0}, "interpolation": 2}, {"co": {"Y": 0.35, "X": 7}, "interpolation": 0}, {"co": {"Y": 0.10294119890998392, "X": 63}, "interpolation": 0}]}}, "type": "update", "partial": false, "old_values": {"duration": 86400.0, "shear_x": {"Points": [{"co": {"Y": 0.0, "X": 1.0}, "interpolation": 2}]}, "position": 17.3790625, "crop_height": {"Points": [{"co": {"Y": -1.0, "X": 1.0}, "interpolation": 2}]}, "reader": {"vcodec": "", "audio_timebase": {"num": 1, "den": 1}, "duration": 86400.0, "file_size": "61952", "channels": 0, "pixel_ratio": {"num": 1, "den": 1}, "pixel_format": -1, "width": 121, "video_stream_index": -1, "video_bit_rate": 0, "has_single_image": true, "path": "C:\\Users\\Luca\\Desktop\\autonomous_category_formation\\manuscript\\figs\\6mm.jpg", "display_ratio": {"num": 121, "den": 128}, "channel_layout": 4, "video_length": "2592000", "sample_rate": 0, "has_video": true, "acodec": "", "top_field_first": true, "video_timebase": {"num": 1, "den": 30}, "height": 128, "interlaced_frame": false, "fps": {"num": 30, "den": 1}, "audio_bit_rate": 0, "audio_stream_index": -1, "type": "QtImageReader", "has_audio": false}, "perspective_c3_x": {"Points": [{"co": {"Y": -1.0, "X": 1.0}, "interpolation": 2}]}, "crop_y": {"Points": [{"co": {"Y": 0.0, "X": 1.0}, "interpolation": 2}]}, "anchor": 0, "perspective_c1_y": {"Points": [{"co": {"Y": -1.0, "X": 1.0}, "interpolation": 2}]}, "scale": 1, "perspective_c1_x": {"Points": [{"co": {"Y": -1.0, "X": 1.0}, "interpolation": 2}]}, "volume": {"Points": [{"co": {"Y": 1.0, "X": 1.0}, "interpolation": 2}]}, "time": {"Points": [{"co": {"Y": 1.0, "X": 1.0}, "interpolation": 2}]}, "perspective_c3_y": {"Points": [{"co": {"Y": -1.0, "X": 1.0}, "interpolation": 2}]}, "channel_filter": {"Points": [{"co": {"Y": -1.0, "X": 1.0}, "interpolation": 2}]}, "wave_color": {"alpha": {"Points": [{"handle_right": {"Y": 0.0, "X": 0.5}, "co": {"Y": 255.0, "X": 1.0}, "handle_left": {"Y": 1.0, "X": 0.5}, "handle_type": 0, "interpolation": 0}]}, "blue": {"Points": [{"handle_right": {"Y": 0.0, "X": 0.5}, "co": {"Y": 255.0, "X": 1.0}, "handle_left": {"Y": 1.0, "X": 0.5}, "handle_type": 0, "interpolation": 0}]}, "red": {"Points": [{"handle_right": {"Y": 0.0, "X": 0.5}, "co": {"Y": 0.0, "X": 1.0}, "handle_left": {"Y": 1.0, "X": 0.5}, "handle_type": 0, "interpolation": 0}]}, "green": {"Points": [{"handle_right": {"Y": 0.0, "X": 0.5}, "co": {"Y": 123.0, "X": 1.0}, "handle_left": {"Y": 1.0, "X": 0.5}, "handle_type": 0, "interpolation": 0}]}}, "end": 18.169999999999998, "title": "6mm.jpg", "layer": 2, "crop_x": {"Points": [{"co": {"Y": 0.0, "X": 1.0}, "interpolation": 2}]}, "effects": [], "gravity": 4, "alpha": {"Points": [{"co": {"Y": 1.0, "X": 1.0}, "interpolation": 2}]}, "perspective_c4_y": {"Points": [{"co": {"Y": -1.0, "X": 1.0}, "interpolation": 2}]}, "perspective_c2_x": {"Points": [{"co": {"Y": -1.0, "X": 1.0}, "interpolation": 2}]}, "has_video": {"Points": [{"co": {"Y": -1.0, "X": 1.0}, "interpolation": 2}]}, "scale_x": {"Points": [{"co": {"Y": 1.0, "X": 1.0}, "interpolation": 2}, {"co": {"Y": 0.35, "X": 7}, "interpolation": 0}, {"co": {"Y": 0.10294119890998392, "X": 63}, "interpolation": 0}]}, "file_id": "1V1XR4MF1P", "has_audio": {"Points": [{"co": {"Y": -1.0, "X": 1.0}, "interpolation": 2}]}, "start": 0, "location_x": {"Points": [{"co": {"Y": 0.0, "X": 1.0}, "interpolation": 2}, {"co": {"Y": -0.43676470588235294, "X": 63}, "interpolation": 0}]}, "scale_y": {"Points": [{"co": {"Y": 1.0, "X": 1.0}, "interpolation": 2}, {"co": {"Y": 0.06527415143603134, "X": 7}, "interpolation": 0}, {"co": {"Y": 0.21148825485463554, "X": 63}, "interpolation": 0}]}, "waveform": false, "shear_y": {"Points": [{"co": {"Y": 0.0, "X": 1.0}, "interpolation": 2}]}, "rotation": {"Points": [{"co": {"Y": 0.0, "X": 1.0}, "interpolation": 2}]}, "perspective_c4_x": {"Points": [{"co": {"Y": -1.0, "X": 1.0}, "interpolation": 2}]}, "channel_mapping": {"Points": [{"co": {"Y": -1.0, "X": 1.0}, "interpolation": 2}]}, "location_y": {"Points": [{"co": {"Y": 0.0, "X": 1.0}, "interpolation": 2}, {"co": {"Y": -0.3185378590078329, "X": 63}, "interpolation": 0}]}, "image": "C:\\Users\\Luca\\.openshot_qt\\thumbnail\\1V1XR4MF1P.png", "id": "MFS21WEFL5", "perspective_c2_y": {"Points": [{"co": {"Y": -1.0, "X": 1.0}, "interpolation": 2}]}, "crop_width": {"Points": [{"co": {"Y": -1.0, "X": 1.0}, "interpolation": 2}]}, "display": 0}}, {"key": ["clips", {"id": "MFS21WEFL5"}], "value": {"scale_x": {"Points": [{"co": {"Y": 1.0, "X": 1.0}, "interpolation": 2}, {"co": {"Y": 0.35, "X": 7}, "interpolation": 0}, {"co": {"Y": 0.2117647283217486, "X": 63}, "interpolation": 0}]}}, "type": "update", "partial": false, "old_values": {"duration": 86400.0, "shear_x": {"Points": [{"co": {"Y": 0.0, "X": 1.0}, "interpolation": 2}]}, "position": 17.3790625, "crop_height": {"Points": [{"co": {"Y": -1.0, "X": 1.0}, "interpolation": 2}]}, "reader": {"vcodec": "", "audio_timebase": {"num": 1, "den": 1}, "duration": 86400.0, "file_size": "61952", "channels": 0, "pixel_ratio": {"num": 1, "den": 1}, "pixel_format": -1, "width": 121, "video_stream_index": -1, "video_bit_rate": 0, "has_single_image": true, "path": "C:\\Users\\Luca\\Desktop\\autonomous_category_formation\\manuscript\\figs\\6mm.jpg", "display_ratio": {"num": 121, "den": 128}, "channel_layout": 4, "video_length": "2592000", "sample_rate": 0, "has_video": true, "acodec": "", "top_field_first": true, "video_timebase": {"num": 1, "den": 30}, "height": 128, "interlaced_frame": false, "fps": {"num": 30, "den": 1}, "audio_bit_rate": 0, "audio_stream_index": -1, "type": "QtImageReader", "has_audio": false}, "perspective_c3_x": {"Points": [{"co": {"Y": -1.0, "X": 1.0}, "interpolation": 2}]}, "crop_y": {"Points": [{"co": {"Y": 0.0, "X": 1.0}, "interpolation": 2}]}, "anchor": 0, "perspective_c1_y": {"Points": [{"co": {"Y": -1.0, "X": 1.0}, "interpolation": 2}]}, "scale": 1, "perspective_c1_x": {"Points": [{"co": {"Y": -1.0, "X": 1.0}, "interpolation": 2}]}, "volume": {"Points": [{"co": {"Y": 1.0, "X": 1.0}, "interpolation": 2}]}, "time": {"Points": [{"co": {"Y": 1.0, "X": 1.0}, "interpolation": 2}]}, "perspective_c3_y": {"Points": [{"co": {"Y": -1.0, "X": 1.0}, "interpolation": 2}]}, "channel_filter": {"Points": [{"co": {"Y": -1.0, "X": 1.0}, "interpolation": 2}]}, "wave_color": {"alpha": {"Points": [{"handle_right": {"Y": 0.0, "X": 0.5}, "co": {"Y": 255.0, "X": 1.0}, "handle_left": {"Y": 1.0, "X": 0.5}, "handle_type": 0, "interpolation": 0}]}, "blue": {"Points": [{"handle_right": {"Y": 0.0, "X": 0.5}, "co": {"Y": 255.0, "X": 1.0}, "handle_left": {"Y": 1.0, "X": 0.5}, "handle_type": 0, "interpolation": 0}]}, "red": {"Points": [{"handle_right": {"Y": 0.0, "X": 0.5}, "co": {"Y": 0.0, "X": 1.0}, "handle_left": {"Y": 1.0, "X": 0.5}, "handle_type": 0, "interpolation": 0}]}, "green": {"Points": [{"handle_right": {"Y": 0.0, "X": 0.5}, "co": {"Y": 123.0, "X": 1.0}, "handle_left": {"Y": 1.0, "X": 0.5}, "handle_type": 0, "interpolation": 0}]}}, "end": 18.169999999999998, "title": "6mm.jpg", "layer": 2, "crop_x": {"Points": [{"co": {"Y": 0.0, "X": 1.0}, "interpolation": 2}]}, "effects": [], "gravity": 4, "alpha": {"Points": [{"co": {"Y": 1.0, "X": 1.0}, "interpolation": 2}]}, "perspective_c4_y": {"Points": [{"co": {"Y": -1.0, "X": 1.0}, "interpolation": 2}]}, "perspective_c2_x": {"Points": [{"co": {"Y": -1.0, "X": 1.0}, "interpolation": 2}]}, "has_video": {"Points": [{"co": {"Y": -1.0, "X": 1.0}, "interpolation": 2}]}, "scale_x": {"Points": [{"co": {"Y": 1.0, "X": 1.0}, "interpolation": 2}, {"co": {"Y": 0.35, "X": 7}, "interpolation": 0}, {"co": {"Y": 0.10294119890998392, "X": 63}, "interpolation": 0}]}, "file_id": "1V1XR4MF1P", "has_audio": {"Points": [{"co": {"Y": -1.0, "X": 1.0}, "interpolation": 2}]}, "start": 0, "location_x": {"Points": [{"co": {"Y": 0.0, "X": 1.0}, "interpolation": 2}, {"co": {"Y": -0.43676470588235294, "X": 63}, "interpolation": 0}]}, "scale_y": {"Points": [{"co": {"Y": 1.0, "X": 1.0}, "interpolation": 2}, {"co": {"Y": 0.06527415143603134, "X": 7}, "interpolation": 0}, {"co": {"Y": 0.21148825485463554, "X": 63}, "interpolation": 0}]}, "waveform": false, "shear_y": {"Points": [{"co": {"Y": 0.0, "X": 1.0}, "interpolation": 2}]}, "rotation": {"Points": [{"co": {"Y": 0.0, "X": 1.0}, "interpolation": 2}]}, "perspective_c4_x": {"Points": [{"co": {"Y": -1.0, "X": 1.0}, "interpolation": 2}]}, "channel_mapping": {"Points": [{"co": {"Y": -1.0, "X": 1.0}, "interpolation": 2}]}, "location_y": {"Points": [{"co": {"Y": 0.0, "X": 1.0}, "interpolation": 2}, {"co": {"Y": -0.3185378590078329, "X": 63}, "interpolation": 0}]}, "image": "C:\\Users\\Luca\\.openshot_qt\\thumbnail\\1V1XR4MF1P.png", "id": "MFS21WEFL5", "perspective_c2_y": {"Points": [{"co": {"Y": -1.0, "X": 1.0}, "interpolation": 2}]}, "crop_width": {"Points": [{"co": {"Y": -1.0, "X": 1.0}, "interpolation": 2}]}, "display": 0}}, {"key": ["clips", {"id": "MFS21WEFL5"}], "value": {"location_y": {"Points": [{"co": {"Y": 0.0, "X": 1.0}, "interpolation": 2}, {"co": {"Y": -0.38120104648736997, "X": 63}, "interpolation": 0}]}}, "type": "update", "partial": false, "old_values": {"duration": 86400.0, "shear_x": {"Points": [{"co": {"Y": 0.0, "X": 1.0}, "interpolation": 2}]}, "position": 17.3790625, "crop_height": {"Points": [{"co": {"Y": -1.0, "X": 1.0}, "interpolation": 2}]}, "reader": {"vcodec": "", "audio_timebase": {"num": 1, "den": 1}, "duration": 86400.0, "file_size": "61952", "channels": 0, "pixel_ratio": {"num": 1, "den": 1}, "pixel_format": -1, "width": 121, "video_stream_index": -1, "video_bit_rate": 0, "has_single_image": true, "path": "C:\\Users\\Luca\\Desktop\\autonomous_category_formation\\manuscript\\figs\\6mm.jpg", "display_ratio": {"num": 121, "den": 128}, "channel_layout": 4, "video_length": "2592000", "sample_rate": 0, "has_video": true, "acodec": "", "top_field_first": true, "video_timebase": {"num": 1, "den": 30}, "height": 128, "interlaced_frame": false, "fps": {"num": 30, "den": 1}, "audio_bit_rate": 0, "audio_stream_index": -1, "type": "QtImageReader", "has_audio": false}, "perspective_c3_x": {"Points": [{"co": {"Y": -1.0, "X": 1.0}, "interpolation": 2}]}, "crop_y": {"Points": [{"co": {"Y": 0.0, "X": 1.0}, "interpolation": 2}]}, "anchor": 0, "perspective_c1_y": {"Points": [{"co": {"Y": -1.0, "X": 1.0}, "interpolation": 2}]}, "scale": 1, "perspective_c1_x": {"Points": [{"co": {"Y": -1.0, "X": 1.0}, "interpolation": 2}]}, "volume": {"Points": [{"co": {"Y": 1.0, "X": 1.0}, "interpolation": 2}]}, "time": {"Points": [{"co": {"Y": 1.0, "X": 1.0}, "interpolation": 2}]}, "perspective_c3_y": {"Points": [{"co": {"Y": -1.0, "X": 1.0}, "interpolation": 2}]}, "channel_filter": {"Points": [{"co": {"Y": -1.0, "X": 1.0}, "interpolation": 2}]}, "wave_color": {"alpha": {"Points": [{"handle_right": {"Y": 0.0, "X": 0.5}, "co": {"Y": 255.0, "X": 1.0}, "handle_left": {"Y": 1.0, "X": 0.5}, "handle_type": 0, "interpolation": 0}]}, "blue": {"Points": [{"handle_right": {"Y": 0.0, "X": 0.5}, "co": {"Y": 255.0, "X": 1.0}, "handle_left": {"Y": 1.0, "X": 0.5}, "handle_type": 0, "interpolation": 0}]}, "red": {"Points": [{"handle_right": {"Y": 0.0, "X": 0.5}, "co": {"Y": 0.0, "X": 1.0}, "handle_left": {"Y": 1.0, "X": 0.5}, "handle_type": 0, "interpolation": 0}]}, "green": {"Points": [{"handle_right": {"Y": 0.0, "X": 0.5}, "co": {"Y": 123.0, "X": 1.0}, "handle_left": {"Y": 1.0, "X": 0.5}, "handle_type": 0, "interpolation": 0}]}}, "end": 18.169999999999998, "title": "6mm.jpg", "layer": 2, "crop_x": {"Points": [{"co": {"Y": 0.0, "X": 1.0}, "interpolation": 2}]}, "effects": [], "gravity": 4, "alpha": {"Points": [{"co": {"Y": 1.0, "X": 1.0}, "interpolation": 2}]}, "perspective_c4_y": {"Points": [{"co": {"Y": -1.0, "X": 1.0}, "interpolation": 2}]}, "perspective_c2_x": {"Points": [{"co": {"Y": -1.0, "X": 1.0}, "interpolation": 2}]}, "has_video": {"Points": [{"co": {"Y": -1.0, "X": 1.0}, "interpolation": 2}]}, "scale_x": {"Points": [{"co": {"Y": 1.0, "X": 1.0}, "interpolation": 2}, {"co": {"Y": 0.35, "X": 7}, "interpolation": 0}, {"co": {"Y": 0.2117647283217486, "X": 63}, "interpolation": 0}]}, "file_id": "1V1XR4MF1P", "has_audio": {"Points": [{"co": {"Y": -1.0, "X": 1.0}, "interpolation": 2}]}, "start": 0, "location_x": {"Points": [{"co": {"Y": 0.0, "X": 1.0}, "interpolation": 2}, {"co": {"Y": -0.43676470588235294, "X": 63}, "interpolation": 0}]}, "scale_y": {"Points": [{"co": {"Y": 1.0, "X": 1.0}, "interpolation": 2}, {"co": {"Y": 0.06527415143603134, "X": 7}, "interpolation": 0}, {"co": {"Y": 0.21148825485463554, "X": 63}, "interpolation": 0}]}, "waveform": false, "shear_y": {"Points": [{"co": {"Y": 0.0, "X": 1.0}, "interpolation": 2}]}, "rotation": {"Points": [{"co": {"Y": 0.0, "X": 1.0}, "interpolation": 2}]}, "perspective_c4_x": {"Points": [{"co": {"Y": -1.0, "X": 1.0}, "interpolation": 2}]}, "channel_mapping": {"Points": [{"co": {"Y": -1.0, "X": 1.0}, "interpolation": 2}]}, "location_y": {"Points": [{"co": {"Y": 0.0, "X": 1.0}, "interpolation": 2}, {"co": {"Y": -0.3185378590078329, "X": 63}, "interpolation": 0}]}, "image": "C:\\Users\\Luca\\.openshot_qt\\thumbnail\\1V1XR4MF1P.png", "id": "MFS21WEFL5", "perspective_c2_y": {"Points": [{"co": {"Y": -1.0, "X": 1.0}, "interpolation": 2}]}, "crop_width": {"Points": [{"co": {"Y": -1.0, "X": 1.0}, "interpolation": 2}]}, "display": 0}}, {"key": ["clips", {"id": "MFS21WEFL5"}], "value": {"position": 21.16125, "start": 0, "end": 18.169999999999998, "id": "MFS21WEFL5", "layer": 2, "image": "C:\\Users\\Luca\\.openshot_qt\\thumbnail\\1V1XR4MF1P.png"}, "type": "update", "partial": false, "old_values": {"duration": 86400.0, "shear_x": {"Points": [{"co": {"Y": 0.0, "X": 1.0}, "interpolation": 2}]}, "position": 17.3790625, "crop_height": {"Points": [{"co": {"Y": -1.0, "X": 1.0}, "interpolation": 2}]}, "reader": {"vcodec": "", "audio_timebase": {"num": 1, "den": 1}, "duration": 86400.0, "file_size": "61952", "channels": 0, "pixel_ratio": {"num": 1, "den": 1}, "pixel_format": -1, "width": 121, "video_stream_index": -1, "video_bit_rate": 0, "has_single_image": true, "path": "C:\\Users\\Luca\\Desktop\\autonomous_category_formation\\manuscript\\figs\\6mm.jpg", "display_ratio": {"num": 121, "den": 128}, "channel_layout": 4, "video_length": "2592000", "sample_rate": 0, "has_video": true, "acodec": "", "top_field_first": true, "video_timebase": {"num": 1, "den": 30}, "height": 128, "interlaced_frame": false, "fps": {"num": 30, "den": 1}, "audio_bit_rate": 0, "audio_stream_index": -1, "type": "QtImageReader", "has_audio": false}, "perspective_c3_x": {"Points": [{"co": {"Y": -1.0, "X": 1.0}, "interpolation": 2}]}, "crop_y": {"Points": [{"co": {"Y": 0.0, "X": 1.0}, "interpolation": 2}]}, "anchor": 0, "perspective_c1_y": {"Points": [{"co": {"Y": -1.0, "X": 1.0}, "interpolation": 2}]}, "scale": 1, "perspective_c1_x": {"Points": [{"co": {"Y": -1.0, "X": 1.0}, "interpolation": 2}]}, "volume": {"Points": [{"co": {"Y": 1.0, "X": 1.0}, "interpolation": 2}]}, "time": {"Points": [{"co": {"Y": 1.0, "X": 1.0}, "interpolation": 2}]}, "perspective_c3_y": {"Points": [{"co": {"Y": -1.0, "X": 1.0}, "interpolation": 2}]}, "channel_filter": {"Points": [{"co": {"Y": -1.0, "X": 1.0}, "interpolation": 2}]}, "wave_color": {"alpha": {"Points": [{"handle_right": {"Y": 0.0, "X": 0.5}, "co": {"Y": 255.0, "X": 1.0}, "handle_left": {"Y": 1.0, "X": 0.5}, "handle_type": 0, "interpolation": 0}]}, "blue": {"Points": [{"handle_right": {"Y": 0.0, "X": 0.5}, "co": {"Y": 255.0, "X": 1.0}, "handle_left": {"Y": 1.0, "X": 0.5}, "handle_type": 0, "interpolation": 0}]}, "red": {"Points": [{"handle_right": {"Y": 0.0, "X": 0.5}, "co": {"Y": 0.0, "X": 1.0}, "handle_left": {"Y": 1.0, "X": 0.5}, "handle_type": 0, "interpolation": 0}]}, "green": {"Points": [{"handle_right": {"Y": 0.0, "X": 0.5}, "co": {"Y": 123.0, "X": 1.0}, "handle_left": {"Y": 1.0, "X": 0.5}, "handle_type": 0, "interpolation": 0}]}}, "end": 18.169999999999998, "title": "6mm.jpg", "layer": 2, "crop_x": {"Points": [{"co": {"Y": 0.0, "X": 1.0}, "interpolation": 2}]}, "effects": [], "gravity": 4, "alpha": {"Points": [{"co": {"Y": 1.0, "X": 1.0}, "interpolation": 2}]}, "perspective_c4_y": {"Points": [{"co": {"Y": -1.0, "X": 1.0}, "interpolation": 2}]}, "perspective_c2_x": {"Points": [{"co": {"Y": -1.0, "X": 1.0}, "interpolation": 2}]}, "has_video": {"Points": [{"co": {"Y": -1.0, "X": 1.0}, "interpolation": 2}]}, "scale_x": {"Points": [{"co": {"Y": 1.0, "X": 1.0}, "interpolation": 2}, {"co": {"Y": 0.35, "X": 7}, "interpolation": 0}, {"co": {"Y": 0.2117647283217486, "X": 63}, "interpolation": 0}]}, "file_id": "1V1XR4MF1P", "has_audio": {"Points": [{"co": {"Y": -1.0, "X": 1.0}, "interpolation": 2}]}, "start": 0, "location_x": {"Points": [{"co": {"Y": 0.0, "X": 1.0}, "interpolation": 2}, {"co": {"Y": -0.439705893572639, "X": 63}, "interpolation": 0}]}, "scale_y": {"Points": [{"co": {"Y": 1.0, "X": 1.0}, "interpolation": 2}, {"co": {"Y": 0.06527415143603134, "X": 7}, "interpolation": 0}, {"co": {"Y": 0.21148825485463554, "X": 63}, "interpolation": 0}]}, "waveform": false, "shear_y": {"Points": [{"co": {"Y": 0.0, "X": 1.0}, "interpolation": 2}]}, "rotation": {"Points": [{"co": {"Y": 0.0, "X": 1.0}, "interpolation": 2}]}, "perspective_c4_x": {"Points": [{"co": {"Y": -1.0, "X": 1.0}, "interpolation": 2}]}, "channel_mapping": {"Points": [{"co": {"Y": -1.0, "X": 1.0}, "interpolation": 2}]}, "location_y": {"Points": [{"co": {"Y": 0.0, "X": 1.0}, "interpolation": 2}, {"co": {"Y": -0.38120104648736997, "X": 63}, "interpolation": 0}]}, "image": "C:\\Users\\Luca\\.openshot_qt\\thumbnail\\1V1XR4MF1P.png", "id": "MFS21WEFL5", "perspective_c2_y": {"Points": [{"co": {"Y": -1.0, "X": 1.0}, "interpolation": 2}]}, "crop_width": {"Points": [{"co": {"Y": -1.0, "X": 1.0}, "interpolation": 2}]}, "display": 0}}, {"key": ["effects", {"id": "P99NP7TE2U"}], "value": {"reader": {"vcodec": "", "audio_timebase": {"num": 1, "den": 1}, "pixel_format": -1, "duration": 86400.0, "file_size": "1658880", "channels": 0, "pixel_ratio": {"num": 1, "den": 1}, "type": "QtImageReader", "width": 720, "video_stream_index": -1, "video_bit_rate": 0, "has_single_image": true, "path": "C:\\Program Files\\OpenShot Video Editor\\transitions\\common\\fade.svg", "display_ratio": {"num": 5, "den": 4}, "channel_layout": 4, "video_length": "2592000", "sample_rate": 0, "has_video": true, "acodec": "", "video_timebase": {"num": 1, "den": 30}, "height": 576, "interlaced_frame": false, "fps": {"num": 30, "den": 1}, "audio_bit_rate": 0, "audio_stream_index": -1, "top_field_first": true, "has_audio": false}, "brightness": {"Points": [{"handle_right": {"Y": 0.0, "X": 0.5}, "co": {"Y": -1.0, "X": 1.0}, "handle_left": {"Y": 1.0, "X": 0.5}, "handle_type": 0, "interpolation": 0}, {"handle_right": {"Y": 0.0, "X": 0.5}, "co": {"Y": 1.0, "X": 107}, "handle_left": {"Y": 1.0, "X": 0.5}, "handle_type": 0, "interpolation": 0}]}, "position": 17.3790625, "replace_image": false, "start": 0, "type": "Mask", "contrast": {"Points": [{"co": {"Y": 3.0, "X": 1.0}, "interpolation": 2}]}, "end": 4.400937499999998, "id": "P99NP7TE2U", "layer": 2, "title": "Transition"}, "type": "update", "partial": false, "old_values": {"reader": {"vcodec": "", "audio_timebase": {"num": 1, "den": 1}, "duration": 86400.0, "file_size": "1658880", "channels": 0, "pixel_ratio": {"num": 1, "den": 1}, "pixel_format": -1, "width": 720, "video_stream_index": -1, "video_bit_rate": 0, "has_single_image": true, "path": "C:\\Program Files\\OpenShot Video Editor\\transitions\\common\\fade.svg", "display_ratio": {"num": 5, "den": 4}, "channel_layout": 4, "video_length": "2592000", "sample_rate": 0, "has_video": true, "acodec": "", "top_field_first": true, "video_timebase": {"num": 1, "den": 30}, "height": 576, "interlaced_frame": false, "fps": {"num": 30, "den": 1}, "audio_bit_rate": 0, "audio_stream_index": -1, "type": "QtImageReader", "has_audio": false}, "brightness": {"Points": [{"handle_right": {"Y": 0.0, "X": 0.5}, "co": {"Y": 1.0, "X": 1.0}, "handle_left": {"Y": 1.0, "X": 0.5}, "handle_type": 0, "interpolation": 0}, {"handle_right": {"Y": 0.0, "X": 0.5}, "co": {"Y": -1.0, "X": 107.0}, "handle_left": {"Y": 1.0, "X": 0.5}, "handle_type": 0, "interpolation": 0}]}, "position": 17.3790625, "replace_image": false, "start": 0, "type": "Mask", "contrast": {"Points": [{"co": {"Y": 3.0, "X": 1.0}, "interpolation": 2}]}, "end": 4.400937499999998, "id": "P99NP7TE2U", "layer": 2, "title": "Transition"}}, {"key": ["effects", {"id": "P99NP7TE2U"}], "value": {"brightness": {"Points": [{"handle_right": {"Y": 0, "X": 0.5}, "co": {"Y": -1, "X": 1}, "handle_left": {"Y": 1, "X": 0.5}, "handle_type": 0, "interpolation": 0}, {"handle_right": {"Y": 0, "X": 0.5}, "co": {"Y": 1, "X": 107}, "handle_left": {"Y": 1, "X": 0.5}, "handle_type": 0, "interpolation": 0}]}, "position": 30.299062499999998, "start": 0, "contrast": {"Points": [{"co": {"Y": 3, "X": 1}, "interpolation": 2}]}, "end": 4.400937499999998, "id": "P99NP7TE2U", "layer": 2}, "type": "update", "partial": false, "old_values": {"reader": {"vcodec": "", "audio_timebase": {"num": 1, "den": 1}, "duration": 86400.0, "file_size": "1658880", "channels": 0, "pixel_ratio": {"num": 1, "den": 1}, "pixel_format": -1, "width": 720, "video_stream_index": -1, "video_bit_rate": 0, "has_single_image": true, "path": "C:\\Program Files\\OpenShot Video Editor\\transitions\\common\\fade.svg", "display_ratio": {"num": 5, "den": 4}, "channel_layout": 4, "video_length": "2592000", "sample_rate": 0, "has_video": true, "acodec": "", "top_field_first": true, "video_timebase": {"num": 1, "den": 30}, "height": 576, "interlaced_frame": false, "fps": {"num": 30, "den": 1}, "audio_bit_rate": 0, "audio_stream_index": -1, "type": "QtImageReader", "has_audio": false}, "brightness": {"Points": [{"handle_right": {"Y": 0.0, "X": 0.5}, "co": {"Y": -1.0, "X": 1.0}, "handle_left": {"Y": 1.0, "X": 0.5}, "handle_type": 0, "interpolation": 0}, {"handle_right": {"Y": 0.0, "X": 0.5}, "co": {"Y": 1.0, "X": 107}, "handle_left": {"Y": 1.0, "X": 0.5}, "handle_type": 0, "interpolation": 0}]}, "position": 17.3790625, "replace_image": false, "start": 0, "contrast": {"Points": [{"co": {"Y": 3.0, "X": 1.0}, "interpolation": 2}]}, "end": 4.400937499999998, "title": "Transition", "id": "P99NP7TE2U", "layer": 2, "type": "Mask"}}, {"key": ["effects", {"id": "P99NP7TE2U"}], "value": {"brightness": {"Points": [{"handle_right": {"Y": 0, "X": 0.5}, "co": {"Y": -1, "X": 1}, "handle_left": {"Y": 1, "X": 0.5}, "handle_type": 0, "interpolation": 0}, {"handle_right": {"Y": 0, "X": 0.5}, "co": {"Y": 1, "X": 107}, "handle_left": {"Y": 1, "X": 0.5}, "handle_type": 0, "interpolation": 0}]}, "position": 81.9790625, "start": 0, "contrast": {"Points": [{"co": {"Y": 3, "X": 1}, "interpolation": 2}]}, "end": 4.400937499999998, "id": "P99NP7TE2U", "layer": 2}, "type": "update", "partial": false, "old_values": {"reader": {"vcodec": "", "audio_timebase": {"num": 1, "den": 1}, "duration": 86400.0, "file_size": "1658880", "channels": 0, "pixel_ratio": {"num": 1, "den": 1}, "pixel_format": -1, "width": 720, "video_stream_index": -1, "video_bit_rate": 0, "has_single_image": true, "path": "C:\\Program Files\\OpenShot Video Editor\\transitions\\common\\fade.svg", "display_ratio": {"num": 5, "den": 4}, "channel_layout": 4, "video_length": "2592000", "sample_rate": 0, "has_video": true, "acodec": "", "top_field_first": true, "video_timebase": {"num": 1, "den": 30}, "height": 576, "interlaced_frame": false, "fps": {"num": 30, "den": 1}, "audio_bit_rate": 0, "audio_stream_index": -1, "type": "QtImageReader", "has_audio": false}, "brightness": {"Points": [{"handle_right": {"Y": 0, "X": 0.5}, "co": {"Y": -1, "X": 1}, "handle_left": {"Y": 1, "X": 0.5}, "handle_type": 0, "interpolation": 0}, {"handle_right": {"Y": 0, "X": 0.5}, "co": {"Y": 1, "X": 107}, "handle_left": {"Y": 1, "X": 0.5}, "handle_type": 0, "interpolation": 0}]}, "position": 30.299062499999998, "replace_image": false, "start": 0, "contrast": {"Points": [{"co": {"Y": 3, "X": 1}, "interpolation": 2}]}, "end": 4.400937499999998, "title": "Transition", "id": "P99NP7TE2U", "layer": 2, "type": "Mask"}}, {"key": ["effects", {"id": "P99NP7TE2U"}], "value": null, "type": "delete", "partial": false, "old_values": {"reader": {"vcodec": "", "audio_timebase": {"num": 1, "den": 1}, "duration": 86400.0, "file_size": "1658880", "channels": 0, "pixel_ratio": {"num": 1, "den": 1}, "pixel_format": -1, "width": 720, "video_stream_index": -1, "video_bit_rate": 0, "has_single_image": true, "path": "C:\\Program Files\\OpenShot Video Editor\\transitions\\common\\fade.svg", "display_ratio": {"num": 5, "den": 4}, "channel_layout": 4, "video_length": "2592000", "sample_rate": 0, "has_video": true, "acodec": "", "top_field_first": true, "video_timebase": {"num": 1, "den": 30}, "height": 576, "interlaced_frame": false, "fps": {"num": 30, "den": 1}, "audio_bit_rate": 0, "audio_stream_index": -1, "type": "QtImageReader", "has_audio": false}, "brightness": {"Points": [{"handle_right": {"Y": 0, "X": 0.5}, "co": {"Y": -1, "X": 1}, "handle_left": {"Y": 1, "X": 0.5}, "handle_type": 0, "interpolation": 0}, {"handle_right": {"Y": 0, "X": 0.5}, "co": {"Y": 1, "X": 107}, "handle_left": {"Y": 1, "X": 0.5}, "handle_type": 0, "interpolation": 0}]}, "position": 81.9790625, "replace_image": false, "start": 0, "contrast": {"Points": [{"co": {"Y": 3, "X": 1}, "interpolation": 2}]}, "end": 4.400937499999998, "title": "Transition", "id": "P99NP7TE2U", "layer": 2, "type": "Mask"}}, {"key": ["clips", {"id": "MFS21WEFL5"}], "value": {"position": 21.16125, "start": 0, "end": 18.169999999999998, "id": "MFS21WEFL5", "layer": 2, "image": "C:\\Users\\Luca\\.openshot_qt\\thumbnail\\1V1XR4MF1P.png"}, "type": "update", "partial": false, "old_values": {"duration": 86400.0, "shear_x": {"Points": [{"co": {"Y": 0.0, "X": 1.0}, "interpolation": 2}]}, "position": 21.16125, "crop_height": {"Points": [{"co": {"Y": -1.0, "X": 1.0}, "interpolation": 2}]}, "reader": {"vcodec": "", "audio_timebase": {"num": 1, "den": 1}, "duration": 86400.0, "file_size": "61952", "channels": 0, "pixel_ratio": {"num": 1, "den": 1}, "pixel_format": -1, "width": 121, "video_stream_index": -1, "video_bit_rate": 0, "has_single_image": true, "path": "C:\\Users\\Luca\\Desktop\\autonomous_category_formation\\manuscript\\figs\\6mm.jpg", "display_ratio": {"num": 121, "den": 128}, "channel_layout": 4, "video_length": "2592000", "sample_rate": 0, "has_video": true, "acodec": "", "top_field_first": true, "video_timebase": {"num": 1, "den": 30}, "height": 128, "interlaced_frame": false, "fps": {"num": 30, "den": 1}, "audio_bit_rate": 0, "audio_stream_index": -1, "type": "QtImageReader", "has_audio": false}, "perspective_c3_x": {"Points": [{"co": {"Y": -1.0, "X": 1.0}, "interpolation": 2}]}, "crop_y": {"Points": [{"co": {"Y": 0.0, "X": 1.0}, "interpolation": 2}]}, "anchor": 0, "perspective_c1_y": {"Points": [{"co": {"Y": -1.0, "X": 1.0}, "interpolation": 2}]}, "scale": 1, "perspective_c1_x": {"Points": [{"co": {"Y": -1.0, "X": 1.0}, "interpolation": 2}]}, "volume": {"Points": [{"co": {"Y": 1.0, "X": 1.0}, "interpolation": 2}]}, "time": {"Points": [{"co": {"Y": 1.0, "X": 1.0}, "interpolation": 2}]}, "perspective_c3_y": {"Points": [{"co": {"Y": -1.0, "X": 1.0}, "interpolation": 2}]}, "channel_filter": {"Points": [{"co": {"Y": -1.0, "X": 1.0}, "interpolation": 2}]}, "wave_color": {"alpha": {"Points": [{"handle_right": {"Y": 0.0, "X": 0.5}, "co": {"Y": 255.0, "X": 1.0}, "handle_left": {"Y": 1.0, "X": 0.5}, "handle_type": 0, "interpolation": 0}]}, "blue": {"Points": [{"handle_right": {"Y": 0.0, "X": 0.5}, "co": {"Y": 255.0, "X": 1.0}, "handle_left": {"Y": 1.0, "X": 0.5}, "handle_type": 0, "interpolation": 0}]}, "red": {"Points": [{"handle_right": {"Y": 0.0, "X": 0.5}, "co": {"Y": 0.0, "X": 1.0}, "handle_left": {"Y": 1.0, "X": 0.5}, "handle_type": 0, "interpolation": 0}]}, "green": {"Points": [{"handle_right": {"Y": 0.0, "X": 0.5}, "co": {"Y": 123.0, "X": 1.0}, "handle_left": {"Y": 1.0, "X": 0.5}, "handle_type": 0, "interpolation": 0}]}}, "end": 18.169999999999998, "title": "6mm.jpg", "layer": 2, "crop_x": {"Points": [{"co": {"Y": 0.0, "X": 1.0}, "interpolation": 2}]}, "effects": [], "gravity": 4, "alpha": {"Points": [{"co": {"Y": 1.0, "X": 1.0}, "interpolation": 2}]}, "perspective_c4_y": {"Points": [{"co": {"Y": -1.0, "X": 1.0}, "interpolation": 2}]}, "perspective_c2_x": {"Points": [{"co": {"Y": -1.0, "X": 1.0}, "interpolation": 2}]}, "has_video": {"Points": [{"co": {"Y": -1.0, "X": 1.0}, "interpolation": 2}]}, "scale_x": {"Points": [{"co": {"Y": 1.0, "X": 1.0}, "interpolation": 2}, {"co": {"Y": 0.35, "X": 7}, "interpolation": 0}, {"co": {"Y": 0.2117647283217486, "X": 63}, "interpolation": 0}]}, "file_id": "1V1XR4MF1P", "has_audio": {"Points": [{"co": {"Y": -1.0, "X": 1.0}, "interpolation": 2}]}, "start": 0, "location_x": {"Points": [{"co": {"Y": 0.0, "X": 1.0}, "interpolation": 2}, {"co": {"Y": -0.439705893572639, "X": 63}, "interpolation": 0}]}, "scale_y": {"Points": [{"co": {"Y": 1.0, "X": 1.0}, "interpolation": 2}, {"co": {"Y": 0.06527415143603134, "X": 7}, "interpolation": 0}, {"co": {"Y": 0.21148825485463554, "X": 63}, "interpolation": 0}]}, "waveform": false, "shear_y": {"Points": [{"co": {"Y": 0.0, "X": 1.0}, "interpolation": 2}]}, "rotation": {"Points": [{"co": {"Y": 0.0, "X": 1.0}, "interpolation": 2}]}, "perspective_c4_x": {"Points": [{"co": {"Y": -1.0, "X": 1.0}, "interpolation": 2}]}, "channel_mapping": {"Points": [{"co": {"Y": -1.0, "X": 1.0}, "interpolation": 2}]}, "location_y": {"Points": [{"co": {"Y": 0.0, "X": 1.0}, "interpolation": 2}, {"co": {"Y": -0.38120104648736997, "X": 63}, "interpolation": 0}]}, "image": "C:\\Users\\Luca\\.openshot_qt\\thumbnail\\1V1XR4MF1P.png", "id": "MFS21WEFL5", "perspective_c2_y": {"Points": [{"co": {"Y": -1.0, "X": 1.0}, "interpolation": 2}]}, "crop_width": {"Points": [{"co": {"Y": -1.0, "X": 1.0}, "interpolation": 2}]}, "display": 0}}, {"key": ["effects"], "value": {"reader": {"vcodec": "", "audio_timebase": {"num": 1, "den": 1}, "pixel_format": -1, "duration": 86400.0, "file_size": "1658880", "channels": 0, "pixel_ratio": {"num": 1, "den": 1}, "type": "QtImageReader", "width": 720, "video_stream_index": -1, "video_bit_rate": 0, "has_single_image": true, "path": "C:\\Program Files\\OpenShot Video Editor\\transitions\\common\\fade.svg", "display_ratio": {"num": 5, "den": 4}, "channel_layout": 4, "video_length": "2592000", "sample_rate": 0, "has_video": true, "acodec": "", "video_timebase": {"num": 1, "den": 30}, "height": 576, "interlaced_frame": false, "fps": {"num": 30, "den": 1}, "audio_bit_rate": 0, "audio_stream_index": -1, "top_field_first": true, "has_audio": false}, "brightness": {"Points": [{"handle_right": {"Y": 0.0, "X": 0.5}, "co": {"Y": 1.0, "X": 1.0}, "handle_left": {"Y": 1.0, "X": 0.5}, "handle_type": 0, "interpolation": 0}, {"handle_right": {"Y": 0.0, "X": 0.5}, "co": {"Y": -1.0, "X": 16.0}, "handle_left": {"Y": 1.0, "X": 0.5}, "handle_type": 0, "interpolation": 0}]}, "position": 21.16125, "replace_image": false, "start": 0, "type": "Mask", "contrast": {"Points": [{"co": {"Y": 3.0, "X": 1.0}, "interpolation": 2}]}, "end": 0.6187499999999986, "id": "71QXSAKXS6", "layer": 2, "title": "Transition"}, "type": "insert", "partial": false, "old_values": [{"reader": {"vcodec": "", "audio_timebase": {"num": 1, "den": 1}, "duration": 86400.0, "file_size": "1658880", "channels": 0, "pixel_ratio": {"num": 1, "den": 1}, "pixel_format": -1, "width": 720, "video_stream_index": -1, "video_bit_rate": 0, "has_single_image": true, "path": "C:\\Program Files\\OpenShot Video Editor\\transitions\\common\\fade.svg", "display_ratio": {"num": 5, "den": 4}, "channel_layout": 4, "video_length": "2592000", "sample_rate": 0, "has_video": true, "acodec": "", "top_field_first": true, "video_timebase": {"num": 1, "den": 30}, "height": 576, "interlaced_frame": false, "fps": {"num": 30, "den": 1}, "audio_bit_rate": 0, "audio_stream_index": -1, "type": "QtImageReader", "has_audio": false}, "brightness": {"Points": [{"handle_right": {"Y": 0.0, "X": 0.5}, "co": {"Y": 1.0, "X": 1.0}, "handle_left": {"Y": 1.0, "X": 0.5}, "handle_type": 0, "interpolation": 0}, {"handle_right": {"Y": 0.0, "X": 0.5}, "co": {"Y": -1.0, "X": 23.0}, "handle_left": {"Y": 1.0, "X": 0.5}, "handle_type": 0, "interpolation": 0}]}, "position": 39.21125, "replace_image": false, "start": 0, "type": "Mask", "contrast": {"Points": [{"co": {"Y": 3.0, "X": 1.0}, "interpolation": 2}]}, "end": 0.927500000000002, "id": "3IQ6CIJJ7S", "layer": 2, "title": "Transition"}]}, {"key": ["clips", {"id": "MFS21WEFL5"}], "value": {"position": 19.07125, "start": 0, "end": 18.169999999999998, "id": "MFS21WEFL5", "layer": 2, "image": "C:\\Users\\Luca\\.openshot_qt\\thumbnail\\1V1XR4MF1P.png"}, "type": "update", "partial": false, "old_values": {"duration": 86400.0, "shear_x": {"Points": [{"co": {"Y": 0.0, "X": 1.0}, "interpolation": 2}]}, "position": 21.16125, "crop_height": {"Points": [{"co": {"Y": -1.0, "X": 1.0}, "interpolation": 2}]}, "reader": {"vcodec": "", "audio_timebase": {"num": 1, "den": 1}, "duration": 86400.0, "file_size": "61952", "channels": 0, "pixel_ratio": {"num": 1, "den": 1}, "pixel_format": -1, "width": 121, "video_stream_index": -1, "video_bit_rate": 0, "has_single_image": true, "path": "C:\\Users\\Luca\\Desktop\\autonomous_category_formation\\manuscript\\figs\\6mm.jpg", "display_ratio": {"num": 121, "den": 128}, "channel_layout": 4, "video_length": "2592000", "sample_rate": 0, "has_video": true, "acodec": "", "top_field_first": true, "video_timebase": {"num": 1, "den": 30}, "height": 128, "interlaced_frame": false, "fps": {"num": 30, "den": 1}, "audio_bit_rate": 0, "audio_stream_index": -1, "type": "QtImageReader", "has_audio": false}, "perspective_c3_x": {"Points": [{"co": {"Y": -1.0, "X": 1.0}, "interpolation": 2}]}, "crop_y": {"Points": [{"co": {"Y": 0.0, "X": 1.0}, "interpolation": 2}]}, "anchor": 0, "perspective_c1_y": {"Points": [{"co": {"Y": -1.0, "X": 1.0}, "interpolation": 2}]}, "scale": 1, "perspective_c1_x": {"Points": [{"co": {"Y": -1.0, "X": 1.0}, "interpolation": 2}]}, "volume": {"Points": [{"co": {"Y": 1.0, "X": 1.0}, "interpolation": 2}]}, "time": {"Points": [{"co": {"Y": 1.0, "X": 1.0}, "interpolation": 2}]}, "perspective_c3_y": {"Points": [{"co": {"Y": -1.0, "X": 1.0}, "interpolation": 2}]}, "channel_filter": {"Points": [{"co": {"Y": -1.0, "X": 1.0}, "interpolation": 2}]}, "wave_color": {"alpha": {"Points": [{"handle_right": {"Y": 0.0, "X": 0.5}, "co": {"Y": 255.0, "X": 1.0}, "handle_left": {"Y": 1.0, "X": 0.5}, "handle_type": 0, "interpolation": 0}]}, "blue": {"Points": [{"handle_right": {"Y": 0.0, "X": 0.5}, "co": {"Y": 255.0, "X": 1.0}, "handle_left": {"Y": 1.0, "X": 0.5}, "handle_type": 0, "interpolation": 0}]}, "red": {"Points": [{"handle_right": {"Y": 0.0, "X": 0.5}, "co": {"Y": 0.0, "X": 1.0}, "handle_left": {"Y": 1.0, "X": 0.5}, "handle_type": 0, "interpolation": 0}]}, "green": {"Points": [{"handle_right": {"Y": 0.0, "X": 0.5}, "co": {"Y": 123.0, "X": 1.0}, "handle_left": {"Y": 1.0, "X": 0.5}, "handle_type": 0, "interpolation": 0}]}}, "end": 18.169999999999998, "title": "6mm.jpg", "layer": 2, "crop_x": {"Points": [{"co": {"Y": 0.0, "X": 1.0}, "interpolation": 2}]}, "effects": [], "gravity": 4, "alpha": {"Points": [{"co": {"Y": 1.0, "X": 1.0}, "interpolation": 2}]}, "perspective_c4_y": {"Points": [{"co": {"Y": -1.0, "X": 1.0}, "interpolation": 2}]}, "perspective_c2_x": {"Points": [{"co": {"Y": -1.0, "X": 1.0}, "interpolation": 2}]}, "has_video": {"Points": [{"co": {"Y": -1.0, "X": 1.0}, "interpolation": 2}]}, "scale_x": {"Points": [{"co": {"Y": 1.0, "X": 1.0}, "interpolation": 2}, {"co": {"Y": 0.35, "X": 7}, "interpolation": 0}, {"co": {"Y": 0.2117647283217486, "X": 63}, "interpolation": 0}]}, "file_id": "1V1XR4MF1P", "has_audio": {"Points": [{"co": {"Y": -1.0, "X": 1.0}, "interpolation": 2}]}, "start": 0, "location_x": {"Points": [{"co": {"Y": 0.0, "X": 1.0}, "interpolation": 2}, {"co": {"Y": -0.439705893572639, "X": 63}, "interpolation": 0}]}, "scale_y": {"Points": [{"co": {"Y": 1.0, "X": 1.0}, "interpolation": 2}, {"co": {"Y": 0.06527415143603134, "X": 7}, "interpolation": 0}, {"co": {"Y": 0.21148825485463554, "X": 63}, "interpolation": 0}]}, "waveform": false, "shear_y": {"Points": [{"co": {"Y": 0.0, "X": 1.0}, "interpolation": 2}]}, "rotation": {"Points": [{"co": {"Y": 0.0, "X": 1.0}, "interpolation": 2}]}, "perspective_c4_x": {"Points": [{"co": {"Y": -1.0, "X": 1.0}, "interpolation": 2}]}, "channel_mapping": {"Points": [{"co": {"Y": -1.0, "X": 1.0}, "interpolation": 2}]}, "location_y": {"Points": [{"co": {"Y": 0.0, "X": 1.0}, "interpolation": 2}, {"co": {"Y": -0.38120104648736997, "X": 63}, "interpolation": 0}]}, "image": "C:\\Users\\Luca\\.openshot_qt\\thumbnail\\1V1XR4MF1P.png", "id": "MFS21WEFL5", "perspective_c2_y": {"Points": [{"co": {"Y": -1.0, "X": 1.0}, "interpolation": 2}]}, "crop_width": {"Points": [{"co": {"Y": -1.0, "X": 1.0}, "interpolation": 2}]}, "display": 0}}, {"key": ["clips", {"id": "MFS21WEFL5"}], "value": {"scale_y": {"Points": [{"co": {"Y": 1.0, "X": 1.0}, "interpolation": 2}, {"co": {"Y": 0.06527415143603134, "X": 7}, "interpolation": 0}, {"co": {"Y": 0.21148825485463554, "X": 63}, "interpolation": 0}, {"co": {"Y": 0.24569019604797715, "X": 4}, "interpolation": 0}]}}, "type": "update", "partial": false, "old_values": {"duration": 86400.0, "shear_x": {"Points": [{"co": {"Y": 0.0, "X": 1.0}, "interpolation": 2}]}, "position": 19.07125, "crop_height": {"Points": [{"co": {"Y": -1.0, "X": 1.0}, "interpolation": 2}]}, "reader": {"vcodec": "", "audio_timebase": {"num": 1, "den": 1}, "duration": 86400.0, "file_size": "61952", "channels": 0, "pixel_ratio": {"num": 1, "den": 1}, "pixel_format": -1, "width": 121, "video_stream_index": -1, "video_bit_rate": 0, "has_single_image": true, "path": "C:\\Users\\Luca\\Desktop\\autonomous_category_formation\\manuscript\\figs\\6mm.jpg", "display_ratio": {"num": 121, "den": 128}, "channel_layout": 4, "video_length": "2592000", "sample_rate": 0, "has_video": true, "acodec": "", "top_field_first": true, "video_timebase": {"num": 1, "den": 30}, "height": 128, "interlaced_frame": false, "fps": {"num": 30, "den": 1}, "audio_bit_rate": 0, "audio_stream_index": -1, "type": "QtImageReader", "has_audio": false}, "perspective_c3_x": {"Points": [{"co": {"Y": -1.0, "X": 1.0}, "interpolation": 2}]}, "crop_y": {"Points": [{"co": {"Y": 0.0, "X": 1.0}, "interpolation": 2}]}, "anchor": 0, "perspective_c1_y": {"Points": [{"co": {"Y": -1.0, "X": 1.0}, "interpolation": 2}]}, "scale": 1, "perspective_c1_x": {"Points": [{"co": {"Y": -1.0, "X": 1.0}, "interpolation": 2}]}, "volume": {"Points": [{"co": {"Y": 1.0, "X": 1.0}, "interpolation": 2}]}, "time": {"Points": [{"co": {"Y": 1.0, "X": 1.0}, "interpolation": 2}]}, "perspective_c3_y": {"Points": [{"co": {"Y": -1.0, "X": 1.0}, "interpolation": 2}]}, "channel_filter": {"Points": [{"co": {"Y": -1.0, "X": 1.0}, "interpolation": 2}]}, "wave_color": {"alpha": {"Points": [{"handle_right": {"Y": 0.0, "X": 0.5}, "co": {"Y": 255.0, "X": 1.0}, "handle_left": {"Y": 1.0, "X": 0.5}, "handle_type": 0, "interpolation": 0}]}, "blue": {"Points": [{"handle_right": {"Y": 0.0, "X": 0.5}, "co": {"Y": 255.0, "X": 1.0}, "handle_left": {"Y": 1.0, "X": 0.5}, "handle_type": 0, "interpolation": 0}]}, "red": {"Points": [{"handle_right": {"Y": 0.0, "X": 0.5}, "co": {"Y": 0.0, "X": 1.0}, "handle_left": {"Y": 1.0, "X": 0.5}, "handle_type": 0, "interpolation": 0}]}, "green": {"Points": [{"handle_right": {"Y": 0.0, "X": 0.5}, "co": {"Y": 123.0, "X": 1.0}, "handle_left": {"Y": 1.0, "X": 0.5}, "handle_type": 0, "interpolation": 0}]}}, "end": 18.169999999999998, "title": "6mm.jpg", "layer": 2, "crop_x": {"Points": [{"co": {"Y": 0.0, "X": 1.0}, "interpolation": 2}]}, "effects": [], "gravity": 4, "alpha": {"Points": [{"co": {"Y": 1.0, "X": 1.0}, "interpolation": 2}]}, "perspective_c4_y": {"Points": [{"co": {"Y": -1.0, "X": 1.0}, "interpolation": 2}]}, "perspective_c2_x": {"Points": [{"co": {"Y": -1.0, "X": 1.0}, "interpolation": 2}]}, "has_video": {"Points": [{"co": {"Y": -1.0, "X": 1.0}, "interpolation": 2}]}, "scale_x": {"Points": [{"co": {"Y": 1.0, "X": 1.0}, "interpolation": 2}, {"co": {"Y": 0.35, "X": 7}, "interpolation": 0}, {"co": {"Y": 0.2117647283217486, "X": 63}, "interpolation": 0}]}, "file_id": "1V1XR4MF1P", "has_audio": {"Points": [{"co": {"Y": -1.0, "X": 1.0}, "interpolation": 2}]}, "start": 0, "location_x": {"Points": [{"co": {"Y": 0.0, "X": 1.0}, "interpolation": 2}, {"co": {"Y": -0.439705893572639, "X": 63}, "interpolation": 0}]}, "scale_y": {"Points": [{"co": {"Y": 1.0, "X": 1.0}, "interpolation": 2}, {"co": {"Y": 0.06527415143603134, "X": 7}, "interpolation": 0}, {"co": {"Y": 0.21148825485463554, "X": 63}, "interpolation": 0}]}, "waveform": false, "shear_y": {"Points": [{"co": {"Y": 0.0, "X": 1.0}, "interpolation": 2}]}, "rotation": {"Points": [{"co": {"Y": 0.0, "X": 1.0}, "interpolation": 2}]}, "perspective_c4_x": {"Points": [{"co": {"Y": -1.0, "X": 1.0}, "interpolation": 2}]}, "channel_mapping": {"Points": [{"co": {"Y": -1.0, "X": 1.0}, "interpolation": 2}]}, "location_y": {"Points": [{"co": {"Y": 0.0, "X": 1.0}, "interpolation": 2}, {"co": {"Y": -0.38120104648736997, "X": 63}, "interpolation": 0}]}, "image": "C:\\Users\\Luca\\.openshot_qt\\thumbnail\\1V1XR4MF1P.png", "id": "MFS21WEFL5", "perspective_c2_y": {"Points": [{"co": {"Y": -1.0, "X": 1.0}, "interpolation": 2}]}, "crop_width": {"Points": [{"co": {"Y": -1.0, "X": 1.0}, "interpolation": 2}]}, "display": 0}}, {"key": ["clips", {"id": "MFS21WEFL5"}], "value": {"location_y": {"Points": [{"co": {"Y": 0.0, "X": 1.0}, "interpolation": 2}, {"co": {"Y": -0.38120104648736997, "X": 63}, "interpolation": 0}, {"co": {"Y": -0.39569105102659957, "X": 4}, "interpolation": 0}]}}, "type": "update", "partial": false, "old_values": {"duration": 86400.0, "shear_x": {"Points": [{"co": {"Y": 0.0, "X": 1.0}, "interpolation": 2}]}, "position": 19.07125, "crop_height": {"Points": [{"co": {"Y": -1.0, "X": 1.0}, "interpolation": 2}]}, "reader": {"vcodec": "", "audio_timebase": {"num": 1, "den": 1}, "duration": 86400.0, "file_size": "61952", "channels": 0, "pixel_ratio": {"num": 1, "den": 1}, "pixel_format": -1, "width": 121, "video_stream_index": -1, "video_bit_rate": 0, "has_single_image": true, "path": "C:\\Users\\Luca\\Desktop\\autonomous_category_formation\\manuscript\\figs\\6mm.jpg", "display_ratio": {"num": 121, "den": 128}, "channel_layout": 4, "video_length": "2592000", "sample_rate": 0, "has_video": true, "acodec": "", "top_field_first": true, "video_timebase": {"num": 1, "den": 30}, "height": 128, "interlaced_frame": false, "fps": {"num": 30, "den": 1}, "audio_bit_rate": 0, "audio_stream_index": -1, "type": "QtImageReader", "has_audio": false}, "perspective_c3_x": {"Points": [{"co": {"Y": -1.0, "X": 1.0}, "interpolation": 2}]}, "crop_y": {"Points": [{"co": {"Y": 0.0, "X": 1.0}, "interpolation": 2}]}, "anchor": 0, "perspective_c1_y": {"Points": [{"co": {"Y": -1.0, "X": 1.0}, "interpolation": 2}]}, "scale": 1, "perspective_c1_x": {"Points": [{"co": {"Y": -1.0, "X": 1.0}, "interpolation": 2}]}, "volume": {"Points": [{"co": {"Y": 1.0, "X": 1.0}, "interpolation": 2}]}, "time": {"Points": [{"co": {"Y": 1.0, "X": 1.0}, "interpolation": 2}]}, "perspective_c3_y": {"Points": [{"co": {"Y": -1.0, "X": 1.0}, "interpolation": 2}]}, "channel_filter": {"Points": [{"co": {"Y": -1.0, "X": 1.0}, "interpolation": 2}]}, "wave_color": {"alpha": {"Points": [{"handle_right": {"Y": 0.0, "X": 0.5}, "co": {"Y": 255.0, "X": 1.0}, "handle_left": {"Y": 1.0, "X": 0.5}, "handle_type": 0, "interpolation": 0}]}, "blue": {"Points": [{"handle_right": {"Y": 0.0, "X": 0.5}, "co": {"Y": 255.0, "X": 1.0}, "handle_left": {"Y": 1.0, "X": 0.5}, "handle_type": 0, "interpolation": 0}]}, "red": {"Points": [{"handle_right": {"Y": 0.0, "X": 0.5}, "co": {"Y": 0.0, "X": 1.0}, "handle_left": {"Y": 1.0, "X": 0.5}, "handle_type": 0, "interpolation": 0}]}, "green": {"Points": [{"handle_right": {"Y": 0.0, "X": 0.5}, "co": {"Y": 123.0, "X": 1.0}, "handle_left": {"Y": 1.0, "X": 0.5}, "handle_type": 0, "interpolation": 0}]}}, "end": 18.169999999999998, "title": "6mm.jpg", "layer": 2, "crop_x": {"Points": [{"co": {"Y": 0.0, "X": 1.0}, "interpolation": 2}]}, "effects": [], "gravity": 4, "alpha": {"Points": [{"co": {"Y": 1.0, "X": 1.0}, "interpolation": 2}]}, "perspective_c4_y": {"Points": [{"co": {"Y": -1.0, "X": 1.0}, "interpolation": 2}]}, "perspective_c2_x": {"Points": [{"co": {"Y": -1.0, "X": 1.0}, "interpolation": 2}]}, "has_video": {"Points": [{"co": {"Y": -1.0, "X": 1.0}, "interpolation": 2}]}, "scale_x": {"Points": [{"co": {"Y": 1.0, "X": 1.0}, "interpolation": 2}, {"co": {"Y": 0.35, "X": 7}, "interpolation": 0}, {"co": {"Y": 0.2117647283217486, "X": 63}, "interpolation": 0}, {"co": {"Y": 0.24448735074633185, "X": 4}, "interpolation": 0}]}, "file_id": "1V1XR4MF1P", "has_audio": {"Points": [{"co": {"Y": -1.0, "X": 1.0}, "interpolation": 2}]}, "start": 0, "location_x": {"Points": [{"co": {"Y": 0.0, "X": 1.0}, "interpolation": 2}, {"co": {"Y": -0.439705893572639, "X": 63}, "interpolation": 0}]}, "scale_y": {"Points": [{"co": {"Y": 1.0, "X": 1.0}, "interpolation": 2}, {"co": {"Y": 0.06527415143603134, "X": 7}, "interpolation": 0}, {"co": {"Y": 0.21148825485463554, "X": 63}, "interpolation": 0}, {"co": {"Y": 0.24569019604797715, "X": 4}, "interpolation": 0}]}, "waveform": false, "shear_y": {"Points": [{"co": {"Y": 0.0, "X": 1.0}, "interpolation": 2}]}, "rotation": {"Points": [{"co": {"Y": 0.0, "X": 1.0}, "interpolation": 2}]}, "perspective_c4_x": {"Points": [{"co": {"Y": -1.0, "X": 1.0}, "interpolation": 2}]}, "channel_mapping": {"Points": [{"co": {"Y": -1.0, "X": 1.0}, "interpolation": 2}]}, "location_y": {"Points": [{"co": {"Y": 0.0, "X": 1.0}, "interpolation": 2}, {"co": {"Y": -0.38120104648736997, "X": 63}, "interpolation": 0}]}, "image": "C:\\Users\\Luca\\.openshot_qt\\thumbnail\\1V1XR4MF1P.png", "id": "MFS21WEFL5", "perspective_c2_y": {"Points": [{"co": {"Y": -1.0, "X": 1.0}, "interpolation": 2}]}, "crop_width": {"Points": [{"co": {"Y": -1.0, "X": 1.0}, "interpolation": 2}]}, "display": 0}}, {"key": ["clips", {"id": "MFS21WEFL5"}], "value": {"scale_x": {"Points": [{"co": {"Y": 1.0, "X": 1.0}, "interpolation": 2}, {"co": {"Y": 0.35, "X": 7}, "interpolation": 0}, {"co": {"Y": 0.2117647283217486, "X": 63}, "interpolation": 0}, {"co": {"Y": 0.2180167639956755, "X": 4}, "interpolation": 0}]}}, "type": "update", "partial": false, "old_values": {"duration": 86400.0, "shear_x": {"Points": [{"co": {"Y": 0.0, "X": 1.0}, "interpolation": 2}]}, "position": 19.07125, "crop_height": {"Points": [{"co": {"Y": -1.0, "X": 1.0}, "interpolation": 2}]}, "reader": {"vcodec": "", "audio_timebase": {"num": 1, "den": 1}, "duration": 86400.0, "file_size": "61952", "channels": 0, "pixel_ratio": {"num": 1, "den": 1}, "pixel_format": -1, "width": 121, "video_stream_index": -1, "video_bit_rate": 0, "has_single_image": true, "path": "C:\\Users\\Luca\\Desktop\\autonomous_category_formation\\manuscript\\figs\\6mm.jpg", "display_ratio": {"num": 121, "den": 128}, "channel_layout": 4, "video_length": "2592000", "sample_rate": 0, "has_video": true, "acodec": "", "top_field_first": true, "video_timebase": {"num": 1, "den": 30}, "height": 128, "interlaced_frame": false, "fps": {"num": 30, "den": 1}, "audio_bit_rate": 0, "audio_stream_index": -1, "type": "QtImageReader", "has_audio": false}, "perspective_c3_x": {"Points": [{"co": {"Y": -1.0, "X": 1.0}, "interpolation": 2}]}, "crop_y": {"Points": [{"co": {"Y": 0.0, "X": 1.0}, "interpolation": 2}]}, "anchor": 0, "perspective_c1_y": {"Points": [{"co": {"Y": -1.0, "X": 1.0}, "interpolation": 2}]}, "scale": 1, "perspective_c1_x": {"Points": [{"co": {"Y": -1.0, "X": 1.0}, "interpolation": 2}]}, "volume": {"Points": [{"co": {"Y": 1.0, "X": 1.0}, "interpolation": 2}]}, "time": {"Points": [{"co": {"Y": 1.0, "X": 1.0}, "interpolation": 2}]}, "perspective_c3_y": {"Points": [{"co": {"Y": -1.0, "X": 1.0}, "interpolation": 2}]}, "channel_filter": {"Points": [{"co": {"Y": -1.0, "X": 1.0}, "interpolation": 2}]}, "wave_color": {"alpha": {"Points": [{"handle_right": {"Y": 0.0, "X": 0.5}, "co": {"Y": 255.0, "X": 1.0}, "handle_left": {"Y": 1.0, "X": 0.5}, "handle_type": 0, "interpolation": 0}]}, "blue": {"Points": [{"handle_right": {"Y": 0.0, "X": 0.5}, "co": {"Y": 255.0, "X": 1.0}, "handle_left": {"Y": 1.0, "X": 0.5}, "handle_type": 0, "interpolation": 0}]}, "red": {"Points": [{"handle_right": {"Y": 0.0, "X": 0.5}, "co": {"Y": 0.0, "X": 1.0}, "handle_left": {"Y": 1.0, "X": 0.5}, "handle_type": 0, "interpolation": 0}]}, "green": {"Points": [{"handle_right": {"Y": 0.0, "X": 0.5}, "co": {"Y": 123.0, "X": 1.0}, "handle_left": {"Y": 1.0, "X": 0.5}, "handle_type": 0, "interpolation": 0}]}}, "end": 18.169999999999998, "title": "6mm.jpg", "layer": 2, "crop_x": {"Points": [{"co": {"Y": 0.0, "X": 1.0}, "interpolation": 2}]}, "effects": [], "gravity": 4, "alpha": {"Points": [{"co": {"Y": 1.0, "X": 1.0}, "interpolation": 2}]}, "perspective_c4_y": {"Points": [{"co": {"Y": -1.0, "X": 1.0}, "interpolation": 2}]}, "perspective_c2_x": {"Points": [{"co": {"Y": -1.0, "X": 1.0}, "interpolation": 2}]}, "has_video": {"Points": [{"co": {"Y": -1.0, "X": 1.0}, "interpolation": 2}]}, "scale_x": {"Points": [{"co": {"Y": 1.0, "X": 1.0}, "interpolation": 2}, {"co": {"Y": 0.35, "X": 7}, "interpolation": 0}, {"co": {"Y": 0.2117647283217486, "X": 63}, "interpolation": 0}, {"co": {"Y": 0.24448735074633185, "X": 4}, "interpolation": 0}]}, "file_id": "1V1XR4MF1P", "has_audio": {"Points": [{"co": {"Y": -1.0, "X": 1.0}, "interpolation": 2}]}, "start": 0, "location_x": {"Points": [{"co": {"Y": 0.0, "X": 1.0}, "interpolation": 2}, {"co": {"Y": -0.439705893572639, "X": 63}, "interpolation": 0}, {"co": {"Y": -0.4384201459614012, "X": 4}, "interpolation": 0}]}, "scale_y": {"Points": [{"co": {"Y": 1.0, "X": 1.0}, "interpolation": 2}, {"co": {"Y": 0.06527415143603134, "X": 7}, "interpolation": 0}, {"co": {"Y": 0.21148825485463554, "X": 63}, "interpolation": 0}, {"co": {"Y": 0.24569019604797715, "X": 4}, "interpolation": 0}]}, "waveform": false, "shear_y": {"Points": [{"co": {"Y": 0.0, "X": 1.0}, "interpolation": 2}]}, "rotation": {"Points": [{"co": {"Y": 0.0, "X": 1.0}, "interpolation": 2}]}, "perspective_c4_x": {"Points": [{"co": {"Y": -1.0, "X": 1.0}, "interpolation": 2}]}, "channel_mapping": {"Points": [{"co": {"Y": -1.0, "X": 1.0}, "interpolation": 2}]}, "location_y": {"Points": [{"co": {"Y": 0.0, "X": 1.0}, "interpolation": 2}, {"co": {"Y": -0.38120104648736997, "X": 63}, "interpolation": 0}, {"co": {"Y": -0.39569105102659957, "X": 4}, "interpolation": 0}]}, "image": "C:\\Users\\Luca\\.openshot_qt\\thumbnail\\1V1XR4MF1P.png", "id": "MFS21WEFL5", "perspective_c2_y": {"Points": [{"co": {"Y": -1.0, "X": 1.0}, "interpolation": 2}]}, "crop_width": {"Points": [{"co": {"Y": -1.0, "X": 1.0}, "interpolation": 2}]}, "display": 0}}]}, "version": {"openshot-qt": "2.4.0", "libopenshot": "0.1.8"}, "fps": {"num": 24, "den": 1}, "files": [{"top_field_first": true, "audio_timebase": {"num": 1, "den": 44100}, "duration": 10.51863956451416, "file_size": "4818599", "has_audio": true, "channels": 1, "pixel_ratio": {"num": 1, "den": 1}, "type": "FFmpegReader", "width": 1080, "vcodec": "h264", "video_stream_index": 0, "video_bit_rate": 3664914, "has_single_image": false, "path": "..\\..\\..\\..\\Downloads\\IMG_4764.MOV", "fps": {"num": 30, "den": 1}, "display_ratio": {"num": 9, "den": 16}, "channel_layout": 4, "video_length": "314", "sample_rate": 44100, "has_video": true, "acodec": "aac", "video_timebase": {"num": 1, "den": 15360}, "height": 1920, "interlaced_frame": false, "media_type": "video", "pixel_format": 0, "audio_bit_rate": 143999, "audio_stream_index": 1, "id": "ZAVHCUQR3M"}, {"top_field_first": true, "audio_timebase": {"num": 1, "den": 1}, "duration": 86400.0, "file_size": "102400", "has_audio": false, "channels": 0, "pixel_ratio": {"num": 1, "den": 1}, "type": "QtImageReader", "width": 160, "vcodec": "", "video_stream_index": -1, "video_bit_rate": 0, "has_single_image": true, "path": "..\\figs\\1cm.jpg", "fps": {"num": 30, "den": 1}, "display_ratio": {"num": 1, "den": 1}, "channel_layout": 4, "video_length": "2592000", "sample_rate": 0, "has_video": true, "acodec": "", "video_timebase": {"num": 1, "den": 30}, "height": 160, "interlaced_frame": false, "media_type": "image", "pixel_format": -1, "audio_bit_rate": 0, "audio_stream_index": -1, "id": "OTXVID2TGS"}, {"vcodec": "", "audio_timebase": {"num": 1, "den": 1}, "duration": 86400.0, "file_size": "61952", "has_audio": false, "channels": 0, "pixel_ratio": {"num": 1, "den": 1}, "pixel_format": -1, "width": 121, "video_stream_index": -1, "video_bit_rate": 0, "has_single_image": true, "path": "..\\figs\\6mm.jpg", "top_field_first": true, "channel_layout": 4, "video_length": "2592000", "sample_rate": 0, "display_ratio": {"num": 121, "den": 128}, "has_video": true, "acodec": "", "video_timebase": {"num": 1, "den": 30}, "height": 128, "interlaced_frame": false, "media_type": "image", "fps": {"num": 30, "den": 1}, "audio_bit_rate": 0, "audio_stream_index": -1, "type": "QtImageReader", "id": "1V1XR4MF1P"}, {"vcodec": "", "audio_timebase": {"num": 1, "den": 1}, "duration": 86400.0, "file_size": "61992", "has_audio": false, "channels": 0, "pixel_ratio": {"num": 1, "den": 1}, "pixel_format": -1, "width": 126, "video_stream_index": -1, "video_bit_rate": 0, "has_single_image": true, "path": "..\\figs\\3mm.jpg", "top_field_first": true, "channel_layout": 4, "video_length": "2592000", "sample_rate": 0, "display_ratio": {"num": 42, "den": 41}, "has_video": true, "acodec": "", "video_timebase": {"num": 1, "den": 30}, "height": 123, "interlaced_frame": false, "media_type": "image", "fps": {"num": 30, "den": 1}, "audio_bit_rate": 0, "audio_stream_index": -1, "type": "QtImageReader", "id": "P97PI7OKJ6"}], "width": 1280, "scale": 19, "export_path": "", "progress": [], "playhead_position": 0, "channel_layout": 3, "effects": [{"reader": {"vcodec": "", "audio_timebase": {"num": 1, "den": 1}, "duration": 86400.0, "file_size": "1658880", "channels": 0, "pixel_ratio": {"num": 1, "den": 1}, "pixel_format": -1, "width": 720, "video_stream_index": -1, "video_bit_rate": 0, "has_single_image": true, "path": "@transitions\\common\\fade.svg", "top_field_first": true, "channel_layout": 4, "video_length": "2592000", "sample_rate": 0, "display_ratio": {"num": 5, "den": 4}, "has_video": true, "acodec": "", "video_timebase": {"num": 1, "den": 30}, "height": 576, "interlaced_frame": false, "fps": {"num": 30, "den": 1}, "audio_bit_rate": 0, "audio_stream_index": -1, "type": "QtImageReader", "has_audio": false}, "brightness": {"Points": [{"handle_right": {"Y": 0.0, "X": 0.5}, "co": {"Y": 1.0, "X": 1.0}, "handle_left": {"Y": 1.0, "X": 0.5}, "handle_type": 0, "interpolation": 0}, {"handle_right": {"Y": 0.0, "X": 0.5}, "co": {"Y": -1.0, "X": 23.0}, "handle_left": {"Y": 1.0, "X": 0.5}, "handle_type": 0, "interpolation": 0}]}, "position": 39.21125, "id": "3IQ6CIJJ7S", "replace_image": false, "start": 0, "contrast": {"Points": [{"co": {"Y": 3.0, "X": 1.0}, "interpolation": 2}]}, "end": 0.927500000000002, "layer": 2, "type": "Mask", "title": "Transition"}, {"reader": {"vcodec": "", "audio_timebase": {"num": 1, "den": 1}, "duration": 86400.0, "file_size": "1658880", "channels": 0, "pixel_ratio": {"num": 1, "den": 1}, "pixel_format": -1, "width": 720, "video_stream_index": -1, "video_bit_rate": 0, "has_single_image": true, "path": "@transitions\\common\\fade.svg", "top_field_first": true, "channel_layout": 4, "video_length": "2592000", "sample_rate": 0, "display_ratio": {"num": 5, "den": 4}, "has_video": true, "acodec": "", "video_timebase": {"num": 1, "den": 30}, "height": 576, "interlaced_frame": false, "fps": {"num": 30, "den": 1}, "audio_bit_rate": 0, "audio_stream_index": -1, "type": "QtImageReader", "has_audio": false}, "brightness": {"Points": [{"handle_right": {"Y": 0.0, "X": 0.5}, "co": {"Y": 1.0, "X": 1.0}, "handle_left": {"Y": 1.0, "X": 0.5}, "handle_type": 0, "interpolation": 0}, {"handle_right": {"Y": 0.0, "X": 0.5}, "co": {"Y": -1.0, "X": 16.0}, "handle_left": {"Y": 1.0, "X": 0.5}, "handle_type": 0, "interpolation": 0}]}, "position": 21.16125, "id": "71QXSAKXS6", "replace_image": false, "start": 0, "contrast": {"Points": [{"co": {"Y": 3.0, "X": 1.0}, "interpolation": 2}]}, "end": 0.6187499999999986, "layer": 2, "type": "Mask", "title": "Transition"}], "clips": [{"duration": 10.51863956451416, "volume": {"Points": [{"co": {"Y": 1.0, "X": 1.0}, "interpolation": 2}]}, "shear_y": {"Points": [{"co": {"Y": 0.0, "X": 1.0}, "interpolation": 2}]}, "crop_height": {"Points": [{"co": {"Y": -1.0, "X": 1.0}, "interpolation": 2}]}, "reader": {"top_field_first": true, "audio_timebase": {"num": 1, "den": 44100}, "duration": 10.51863956451416, "file_size": "4818599", "channels": 1, "pixel_ratio": {"num": 1, "den": 1}, "pixel_format": 0, "type": "FFmpegReader", "vcodec": "h264", "video_stream_index": 0, "video_bit_rate": 3664914, "has_single_image": false, "path": "..\\..\\..\\..\\Downloads\\IMG_4764.MOV", "display_ratio": {"num": 9, "den": 16}, "channel_layout": 4, "video_length": "314", "sample_rate": 44100, "width": 1080, "has_video": true, "acodec": "aac", "video_timebase": {"num": 1, "den": 15360}, "height": 1920, "interlaced_frame": false, "fps": {"num": 30, "den": 1}, "audio_bit_rate": 143999, "audio_stream_index": 1, "has_audio": true}, "crop_y": {"Points": [{"co": {"Y": 0.0, "X": 1.0}, "interpolation": 2}]}, "crop_x": {"Points": [{"co": {"Y": 0.0, "X": 1.0}, "interpolation": 2}]}, "anchor": 0, "perspective_c1_y": {"Points": [{"co": {"Y": -1.0, "X": 1.0}, "interpolation": 2}]}, "scale": 1, "perspective_c1_x": {"Points": [{"co": {"Y": -1.0, "X": 1.0}, "interpolation": 2}]}, "shear_x": {"Points": [{"co": {"Y": 0.0, "X": 1.0}, "interpolation": 2}]}, "time": {"Points": [{"co": {"Y": 1.0, "X": 1.0}, "interpolation": 2}]}, "perspective_c3_y": {"Points": [{"co": {"Y": -1.0, "X": 1.0}, "interpolation": 2}]}, "channel_filter": {"Points": [{"co": {"Y": -1.0, "X": 1.0}, "interpolation": 2}]}, "image": "..\\..\\..\\..\\.openshot_qt\\thumbnail\\ZAVHCUQR3M.png", "position": 0, "location_x": {"Points": [{"handle_right": {"Y": 0.0, "X": 0.5}, "co": {"Y": -0.33971483022011373, "X": 1.0}, "handle_left": {"Y": 1.0, "X": 0.5}, "handle_type": 0, "interpolation": 0}, {"co": {"Y": -0.34264706092722275, "X": 120}, "interpolation": 0}]}, "title": "IMG_4764.MOV", "layer": 1, "effects": [], "gravity": 4, "alpha": {"Points": [{"co": {"Y": 1.0, "X": 1.0}, "interpolation": 2}]}, "perspective_c4_y": {"Points": [{"co": {"Y": -1.0, "X": 1.0}, "interpolation": 2}]}, "perspective_c2_x": {"Points": [{"co": {"Y": -1.0, "X": 1.0}, "interpolation": 2}]}, "has_video": {"Points": [{"co": {"Y": -1.0, "X": 1.0}, "interpolation": 2}]}, "scale_x": {"Points": [{"handle_right": {"Y": 0.0, "X": 0.5}, "co": {"Y": 1.0, "X": 1.0}, "handle_left": {"Y": 1.0, "X": 0.5}, "handle_type": 0, "interpolation": 0}]}, "start": 0, "has_audio": {"Points": [{"co": {"Y": -1.0, "X": 1.0}, "interpolation": 2}]}, "wave_color": {"alpha": {"Points": [{"handle_right": {"Y": 0.0, "X": 0.5}, "co": {"Y": 255.0, "X": 1.0}, "handle_left": {"Y": 1.0, "X": 0.5}, "handle_type": 0, "interpolation": 0}]}, "blue": {"Points": [{"handle_right": {"Y": 0.0, "X": 0.5}, "co": {"Y": 255.0, "X": 1.0}, "handle_left": {"Y": 1.0, "X": 0.5}, "handle_type": 0, "interpolation": 0}]}, "green": {"Points": [{"handle_right": {"Y": 0.0, "X": 0.5}, "co": {"Y": 123.0, "X": 1.0}, "handle_left": {"Y": 1.0, "X": 0.5}, "handle_type": 0, "interpolation": 0}]}, "red": {"Points": [{"handle_right": {"Y": 0.0, "X": 0.5}, "co": {"Y": 0.0, "X": 1.0}, "handle_left": {"Y": 1.0, "X": 0.5}, "handle_type": 0, "interpolation": 0}]}}, "file_id": "ZAVHCUQR3M", "scale_y": {"Points": [{"handle_right": {"Y": 0.0, "X": 0.5}, "co": {"Y": 1.0, "X": 1.0}, "handle_left": {"Y": 1.0, "X": 0.5}, "handle_type": 0, "interpolation": 0}]}, "waveform": false, "perspective_c3_x": {"Points": [{"co": {"Y": -1.0, "X": 1.0}, "interpolation": 2}]}, "rotation": {"Points": [{"co": {"Y": 0.0, "X": 1.0}, "interpolation": 2}]}, "end": 7.416666666666667, "perspective_c4_x": {"Points": [{"co": {"Y": -1.0, "X": 1.0}, "interpolation": 2}]}, "channel_mapping": {"Points": [{"co": {"Y": -1.0, "X": 1.0}, "interpolation": 2}]}, "location_y": {"Points": [{"handle_right": {"Y": 0.0, "X": 0.5}, "co": {"Y": 0.0, "X": 1.0}, "handle_left": {"Y": 1.0, "X": 0.5}, "handle_type": 0, "interpolation": 0}, {"co": {"Y": 0.0, "X": 120}, "interpolation": 0}]}, "id": "R6HGN4OGEK", "perspective_c2_y": {"Points": [{"co": {"Y": -1.0, "X": 1.0}, "interpolation": 2}]}, "crop_width": {"Points": [{"co": {"Y": -1.0, "X": 1.0}, "interpolation": 2}]}, "display": 0}, {"duration": 10.51863956451416, "shear_x": {"Points": [{"co": {"Y": 0.0, "X": 1.0}, "interpolation": 2}]}, "shear_y": {"Points": [{"co": {"Y": 0.0, "X": 1.0}, "interpolation": 2}]}, "crop_height": {"Points": [{"co": {"Y": -1.0, "X": 1.0}, "interpolation": 2}]}, "alpha": {"Points": [{"co": {"Y": 1.0, "X": 1.0}, "interpolation": 2}]}, "has_audio": {"Points": [{"co": {"Y": -1.0, "X": 1.0}, "interpolation": 2}]}, "crop_y": {"Points": [{"co": {"Y": 0.0, "X": 1.0}, "interpolation": 2}]}, "crop_x": {"Points": [{"co": {"Y": 0.0, "X": 1.0}, "interpolation": 2}]}, "anchor": 0, "perspective_c1_y": {"Points": [{"co": {"Y": -1.0, "X": 1.0}, "interpolation": 2}]}, "reader": {"top_field_first": true, "audio_timebase": {"num": 1, "den": 44100}, "duration": 10.51863956451416, "file_size": "4818599", "channels": 1, "pixel_ratio": {"num": 1, "den": 1}, "type": "FFmpegReader", "width": 1080, "vcodec": "h264", "video_stream_index": 0, "video_bit_rate": 3664914, "has_single_image": false, "path": "..\\..\\..\\..\\Downloads\\IMG_4764.MOV", "fps": {"num": 30, "den": 1}, "display_ratio": {"num": 9, "den": 16}, "channel_layout": 4, "video_length": "314", "sample_rate": 44100, "has_video": true, "acodec": "aac", "video_timebase": {"num": 1, "den": 15360}, "height": 1920, "interlaced_frame": false, "pixel_format": 0, "audio_bit_rate": 143999, "audio_stream_index": 1, "has_audio": true}, "perspective_c1_x": {"Points": [{"co": {"Y": -1.0, "X": 1.0}, "interpolation": 2}]}, "volume": {"Points": [{"co": {"Y": 1.0, "X": 1.0}, "interpolation": 2}]}, "time": {"Points": [{"co": {"Y": 1.0, "X": 1.0}, "interpolation": 2}]}, "perspective_c3_y": {"Points": [{"co": {"Y": -1.0, "X": 1.0}, "interpolation": 2}]}, "channel_filter": {"Points": [{"co": {"Y": -1.0, "X": 1.0}, "interpolation": 2}]}, "image": "..\\..\\..\\..\\.openshot_qt\\thumbnail\\8BPTV6658Z-41.png", "position": 7.415937499999999, "end": 5.866458333333337, "title": "IMG_4764.MOV", "layer": 1, "effects": [], "gravity": 4, "scale": 1, "perspective_c4_y": {"Points": [{"co": {"Y": -1.0, "X": 1.0}, "interpolation": 2}]}, "perspective_c2_x": {"Points": [{"co": {"Y": -1.0, "X": 1.0}, "interpolation": 2}]}, "has_video": {"Points": [{"co": {"Y": -1.0, "X": 1.0}, "interpolation": 2}]}, "scale_x": {"Points": [{"handle_right": {"Y": 0.0, "X": 0.5}, "co": {"Y": 1.0, "X": 1.0}, "handle_left": {"Y": 1.0, "X": 0.5}, "handle_type": 0, "interpolation": 0}]}, "file_id": "ZAVHCUQR3M", "id": "8BPTV6658Z", "wave_color": {"alpha": {"Points": [{"handle_right": {"Y": 0.0, "X": 0.5}, "co": {"Y": 255.0, "X": 1.0}, "handle_left": {"Y": 1.0, "X": 0.5}, "handle_type": 0, "interpolation": 0}]}, "blue": {"Points": [{"handle_right": {"Y": 0.0, "X": 0.5}, "co": {"Y": 255.0, "X": 1.0}, "handle_left": {"Y": 1.0, "X": 0.5}, "handle_type": 0, "interpolation": 0}]}, "green": {"Points": [{"handle_right": {"Y": 0.0, "X": 0.5}, "co": {"Y": 123.0, "X": 1.0}, "handle_left": {"Y": 1.0, "X": 0.5}, "handle_type": 0, "interpolation": 0}]}, "red": {"Points": [{"handle_right": {"Y": 0.0, "X": 0.5}, "co": {"Y": 0.0, "X": 1.0}, "handle_left": {"Y": 1.0, "X": 0.5}, "handle_type": 0, "interpolation": 0}]}}, "start": 1.324062500000002, "scale_y": {"Points": [{"handle_right": {"Y": 0.0, "X": 0.5}, "co": {"Y": 1.0, "X": 1.0}, "handle_left": {"Y": 1.0, "X": 0.5}, "handle_type": 0, "interpolation": 0}]}, "waveform": false, "perspective_c3_x": {"Points": [{"co": {"Y": -1.0, "X": 1.0}, "interpolation": 2}]}, "rotation": {"Points": [{"co": {"Y": 0.0, "X": 1.0}, "interpolation": 2}]}, "perspective_c4_x": {"Points": [{"co": {"Y": -1.0, "X": 1.0}, "interpolation": 2}]}, "channel_mapping": {"Points": [{"co": {"Y": -1.0, "X": 1.0}, "interpolation": 2}]}, "location_y": {"Points": [{"handle_right": {"Y": 0.0, "X": 0.5}, "co": {"Y": 0.0, "X": 1.0}, "handle_left": {"Y": 1.0, "X": 0.5}, "handle_type": 0, "interpolation": 0}, {"co": {"Y": -0.0026109660574412533, "X": 106}, "interpolation": 0}, {"co": {"Y": 0.0020305883553056606, "X": 37}, "interpolation": 0}]}, "location_x": {"Points": [{"handle_right": {"Y": 0.0, "X": 0.5}, "co": {"Y": 0.0, "X": 1.0}, "handle_left": {"Y": 1.0, "X": 0.5}, "handle_type": 0, "interpolation": 0}, {"co": {"Y": -0.3411764705882353, "X": 106}, "interpolation": 0}, {"co": {"Y": -0.3405441725078751, "X": 37}, "interpolation": 0}]}, "perspective_c2_y": {"Points": [{"co": {"Y": -1.0, "X": 1.0}, "interpolation": 2}]}, "crop_width": {"Points": [{"co": {"Y": -1.0, "X": 1.0}, "interpolation": 2}]}, "display": 0}, {"duration": 86400.0, "shear_x": {"Points": [{"co": {"Y": 0.0, "X": 1.0}, "interpolation": 2}]}, "wave_color": {"alpha": {"Points": [{"handle_right": {"Y": 0.0, "X": 0.5}, "co": {"Y": 255.0, "X": 1.0}, "handle_left": {"Y": 1.0, "X": 0.5}, "handle_type": 0, "interpolation": 0}]}, "blue": {"Points": [{"handle_right": {"Y": 0.0, "X": 0.5}, "co": {"Y": 255.0, "X": 1.0}, "handle_left": {"Y": 1.0, "X": 0.5}, "handle_type": 0, "interpolation": 0}]}, "green": {"Points": [{"handle_right": {"Y": 0.0, "X": 0.5}, "co": {"Y": 123.0, "X": 1.0}, "handle_left": {"Y": 1.0, "X": 0.5}, "handle_type": 0, "interpolation": 0}]}, "red": {"Points": [{"handle_right": {"Y": 0.0, "X": 0.5}, "co": {"Y": 0.0, "X": 1.0}, "handle_left": {"Y": 1.0, "X": 0.5}, "handle_type": 0, "interpolation": 0}]}}, "channel_mapping": {"Points": [{"co": {"Y": -1.0, "X": 1.0}, "interpolation": 2}]}, "reader": {"top_field_first": true, "audio_timebase": {"num": 1, "den": 1}, "duration": 86400.0, "file_size": "102400", "channels": 0, "pixel_ratio": {"num": 1, "den": 1}, "pixel_format": -1, "type": "QtImageReader", "vcodec": "", "video_stream_index": -1, "video_bit_rate": 0, "has_single_image": true, "path": "..\\figs\\1cm.jpg", "display_ratio": {"num": 1, "den": 1}, "channel_layout": 4, "video_length": "2592000", "sample_rate": 0, "width": 160, "has_video": true, "acodec": "", "video_timebase": {"num": 1, "den": 30}, "height": 160, "interlaced_frame": false, "fps": {"num": 30, "den": 1}, "audio_bit_rate": 0, "audio_stream_index": -1, "has_audio": false}, "layer": 2, "crop_y": {"Points": [{"co": {"Y": 0.0, "X": 1.0}, "interpolation": 2}]}, "anchor": 0, "perspective_c1_y": {"Points": [{"co": {"Y": -1.0, "X": 1.0}, "interpolation": 2}]}, "scale": 1, "perspective_c1_x": {"Points": [{"co": {"Y": -1.0, "X": 1.0}, "interpolation": 2}]}, "volume": {"Points": [{"co": {"Y": 1.0, "X": 1.0}, "interpolation": 2}]}, "time": {"Points": [{"co": {"Y": 1.0, "X": 1.0}, "interpolation": 2}]}, "perspective_c3_y": {"Points": [{"co": {"Y": -1.0, "X": 1.0}, "interpolation": 2}]}, "channel_filter": {"Points": [{"co": {"Y": -1.0, "X": 1.0}, "interpolation": 2}]}, "file_id": "OTXVID2TGS", "shear_y": {"Points": [{"co": {"Y": 0.0, "X": 1.0}, "interpolation": 2}]}, "end": 21.97, "waveform": false, "crop_x": {"Points": [{"co": {"Y": 0.0, "X": 1.0}, "interpolation": 2}]}, "effects": [], "gravity": 4, "alpha": {"Points": [{"co": {"Y": 1.0, "X": 1.0}, "interpolation": 2}]}, "perspective_c2_y": {"Points": [{"co": {"Y": -1.0, "X": 1.0}, "interpolation": 2}]}, "has_video": {"Points": [{"co": {"Y": -1.0, "X": 1.0}, "interpolation": 2}]}, "scale_x": {"Points": [{"handle_right": {"Y": 0.0, "X": 0.5}, "co": {"Y": 1.0, "X": 1.0}, "handle_left": {"Y": 1.0, "X": 0.5}, "handle_type": 0, "interpolation": 0}, {"co": {"Y": 0.19705882352941176, "X": 6}, "interpolation": 0}]}, "start": 0.18999999999999997, "perspective_c2_x": {"Points": [{"co": {"Y": -1.0, "X": 1.0}, "interpolation": 2}]}, "has_audio": {"Points": [{"co": {"Y": -1.0, "X": 1.0}, "interpolation": 2}]}, "crop_width": {"Points": [{"co": {"Y": -1.0, "X": 1.0}, "interpolation": 2}]}, "scale_y": {"Points": [{"handle_right": {"Y": 0.0, "X": 0.5}, "co": {"Y": 1.0, "X": 1.0}, "handle_left": {"Y": 1.0, "X": 0.5}, "handle_type": 0, "interpolation": 0}, {"co": {"Y": 0.206266318537859, "X": 6}, "interpolation": 0}]}, "title": "1cm.jpg", "perspective_c4_y": {"Points": [{"co": {"Y": -1.0, "X": 1.0}, "interpolation": 2}]}, "rotation": {"Points": [{"co": {"Y": 0.0, "X": 1.0}, "interpolation": 2}]}, "position": 0, "perspective_c4_x": {"Points": [{"co": {"Y": -1.0, "X": 1.0}, "interpolation": 2}]}, "crop_height": {"Points": [{"co": {"Y": -1.0, "X": 1.0}, "interpolation": 2}]}, "location_y": {"Points": [{"handle_right": {"Y": 0.0, "X": 0.5}, "co": {"Y": 0.0, "X": 1.0}, "handle_left": {"Y": 1.0, "X": 0.5}, "handle_type": 0, "interpolation": 0}, {"co": {"Y": -0.3916449094721294, "X": 6}, "interpolation": 0}]}, "image": "..\\..\\..\\..\\.openshot_qt\\thumbnail\\OTXVID2TGS.png", "id": "1VOTH685P8", "location_x": {"Points": [{"handle_right": {"Y": 0.0, "X": 0.5}, "co": {"Y": 0.0, "X": 1.0}, "handle_left": {"Y": 1.0, "X": 0.5}, "handle_type": 0, "interpolation": 0}, {"co": {"Y": -0.4411764814573176, "X": 6}, "interpolation": 0}]}, "perspective_c3_x": {"Points": [{"co": {"Y": -1.0, "X": 1.0}, "interpolation": 2}]}, "display": 0}, {"duration": 10.51863956451416, "shear_x": {"Points": [{"co": {"Y": 0.0, "X": 1.0}, "interpolation": 2}]}, "position": 11.958124999999999, "crop_height": {"Points": [{"co": {"Y": -1.0, "X": 1.0}, "interpolation": 2}]}, "alpha": {"Points": [{"co": {"Y": 1.0, "X": 1.0}, "interpolation": 2}]}, "has_audio": {"Points": [{"co": {"Y": -1.0, "X": 1.0}, "interpolation": 2}]}, "crop_y": {"Points": [{"co": {"Y": 0.0, "X": 1.0}, "interpolation": 2}]}, "crop_x": {"Points": [{"co": {"Y": 0.0, "X": 1.0}, "interpolation": 2}]}, "anchor": 0, "perspective_c1_y": {"Points": [{"co": {"Y": -1.0, "X": 1.0}, "interpolation": 2}]}, "scale": 1, "perspective_c1_x": {"Points": [{"co": {"Y": -1.0, "X": 1.0}, "interpolation": 2}]}, "volume": {"Points": [{"co": {"Y": 1.0, "X": 1.0}, "interpolation": 2}]}, "time": {"Points": [{"co": {"Y": 1.0, "X": 1.0}, "interpolation": 2}]}, "perspective_c3_y": {"Points": [{"co": {"Y": -1.0, "X": 1.0}, "interpolation": 2}]}, "channel_filter": {"Points": [{"co": {"Y": -1.0, "X": 1.0}, "interpolation": 2}]}, "image": "..\\..\\..\\..\\.openshot_qt\\thumbnail\\8BPTV6658Z-41.png", "shear_y": {"Points": [{"co": {"Y": 0.0, "X": 1.0}, "interpolation": 2}]}, "end": 5.866458333333337, "title": "IMG_4764.MOV", "layer": 1, "effects": [], "gravity": 4, "reader": {"top_field_first": true, "audio_timebase": {"num": 1, "den": 44100}, "duration": 10.51863956451416, "file_size": "4818599", "channels": 1, "pixel_ratio": {"num": 1, "den": 1}, "pixel_format": 0, "type": "FFmpegReader", "vcodec": "h264", "video_stream_index": 0, "video_bit_rate": 3664914, "has_single_image": false, "path": "..\\..\\..\\..\\Downloads\\IMG_4764.MOV", "display_ratio": {"num": 9, "den": 16}, "channel_layout": 4, "video_length": "314", "sample_rate": 44100, "width": 1080, "has_video": true, "acodec": "aac", "video_timebase": {"num": 1, "den": 15360}, "height": 1920, "interlaced_frame": false, "fps": {"num": 30, "den": 1}, "audio_bit_rate": 143999, "audio_stream_index": 1, "has_audio": true}, "perspective_c4_y": {"Points": [{"co": {"Y": -1.0, "X": 1.0}, "interpolation": 2}]}, "perspective_c2_x": {"Points": [{"co": {"Y": -1.0, "X": 1.0}, "interpolation": 2}]}, "has_video": {"Points": [{"co": {"Y": -1.0, "X": 1.0}, "interpolation": 2}]}, "scale_x": {"Points": [{"handle_right": {"Y": 0.0, "X": 0.5}, "co": {"Y": 1.0, "X": 1.0}, "handle_left": {"Y": 1.0, "X": 0.5}, "handle_type": 0, "interpolation": 0}]}, "file_id": "ZAVHCUQR3M", "id": "02JFG2KTUY", "wave_color": {"alpha": {"Points": [{"handle_right": {"Y": 0.0, "X": 0.5}, "co": {"Y": 255.0, "X": 1.0}, "handle_left": {"Y": 1.0, "X": 0.5}, "handle_type": 0, "interpolation": 0}]}, "blue": {"Points": [{"handle_right": {"Y": 0.0, "X": 0.5}, "co": {"Y": 255.0, "X": 1.0}, "handle_left": {"Y": 1.0, "X": 0.5}, "handle_type": 0, "interpolation": 0}]}, "green": {"Points": [{"handle_right": {"Y": 0.0, "X": 0.5}, "co": {"Y": 123.0, "X": 1.0}, "handle_left": {"Y": 1.0, "X": 0.5}, "handle_type": 0, "interpolation": 0}]}, "red": {"Points": [{"handle_right": {"Y": 0.0, "X": 0.5}, "co": {"Y": 0.0, "X": 1.0}, "handle_left": {"Y": 1.0, "X": 0.5}, "handle_type": 0, "interpolation": 0}]}}, "start": 1.324062500000002, "scale_y": {"Points": [{"handle_right": {"Y": 0.0, "X": 0.5}, "co": {"Y": 1.0, "X": 1.0}, "handle_left": {"Y": 1.0, "X": 0.5}, "handle_type": 0, "interpolation": 0}]}, "waveform": false, "perspective_c3_x": {"Points": [{"co": {"Y": -1.0, "X": 1.0}, "interpolation": 2}]}, "rotation": {"Points": [{"co": {"Y": 0.0, "X": 1.0}, "interpolation": 2}]}, "perspective_c4_x": {"Points": [{"co": {"Y": -1.0, "X": 1.0}, "interpolation": 2}]}, "channel_mapping": {"Points": [{"co": {"Y": -1.0, "X": 1.0}, "interpolation": 2}]}, "location_y": {"Points": [{"handle_right": {"Y": 0.0, "X": 0.5}, "co": {"Y": 0.0, "X": 1.0}, "handle_left": {"Y": 1.0, "X": 0.5}, "handle_type": 0, "interpolation": 0}, {"co": {"Y": -0.0026109660574412533, "X": 106}, "interpolation": 0}, {"co": {"Y": 0.0020305883553056606, "X": 37}, "interpolation": 0}]}, "location_x": {"Points": [{"handle_right": {"Y": 0.0, "X": 0.5}, "co": {"Y": 0.0, "X": 1.0}, "handle_left": {"Y": 1.0, "X": 0.5}, "handle_type": 0, "interpolation": 0}, {"co": {"Y": -0.3411764705882353, "X": 106}, "interpolation": 0}, {"co": {"Y": -0.3405441725078751, "X": 37}, "interpolation": 0}]}, "perspective_c2_y": {"Points": [{"co": {"Y": -1.0, "X": 1.0}, "interpolation": 2}]}, "crop_width": {"Points": [{"co": {"Y": -1.0, "X": 1.0}, "interpolation": 2}]}, "display": 0}, {"duration": 10.51863956451416, "shear_x": {"Points": [{"co": {"Y": 0.0, "X": 1.0}, "interpolation": 2}]}, "position": 16.5003125, "crop_height": {"Points": [{"co": {"Y": -1.0, "X": 1.0}, "interpolation": 2}]}, "alpha": {"Points": [{"co": {"Y": 1.0, "X": 1.0}, "interpolation": 2}]}, "has_audio": {"Points": [{"co": {"Y": -1.0, "X": 1.0}, "interpolation": 2}]}, "crop_y": {"Points": [{"co": {"Y": 0.0, "X": 1.0}, "interpolation": 2}]}, "crop_x": {"Points": [{"co": {"Y": 0.0, "X": 1.0}, "interpolation": 2}]}, "anchor": 0, "perspective_c1_y": {"Points": [{"co": {"Y": -1.0, "X": 1.0}, "interpolation": 2}]}, "scale": 1, "perspective_c1_x": {"Points": [{"co": {"Y": -1.0, "X": 1.0}, "interpolation": 2}]}, "volume": {"Points": [{"co": {"Y": 1.0, "X": 1.0}, "interpolation": 2}]}, "time": {"Points": [{"co": {"Y": 1.0, "X": 1.0}, "interpolation": 2}]}, "perspective_c3_y": {"Points": [{"co": {"Y": -1.0, "X": 1.0}, "interpolation": 2}]}, "channel_filter": {"Points": [{"co": {"Y": -1.0, "X": 1.0}, "interpolation": 2}]}, "image": "..\\..\\..\\..\\.openshot_qt\\thumbnail\\8BPTV6658Z-41.png", "shear_y": {"Points": [{"co": {"Y": 0.0, "X": 1.0}, "interpolation": 2}]}, "end": 5.866458333333337, "title": "IMG_4764.MOV", "layer": 1, "effects": [], "gravity": 4, "reader": {"top_field_first": true, "audio_timebase": {"num": 1, "den": 44100}, "duration": 10.51863956451416, "file_size": "4818599", "channels": 1, "pixel_ratio": {"num": 1, "den": 1}, "pixel_format": 0, "type": "FFmpegReader", "vcodec": "h264", "video_stream_index": 0, "video_bit_rate": 3664914, "has_single_image": false, "path": "..\\..\\..\\..\\Downloads\\IMG_4764.MOV", "display_ratio": {"num": 9, "den": 16}, "channel_layout": 4, "video_length": "314", "sample_rate": 44100, "width": 1080, "has_video": true, "acodec": "aac", "video_timebase": {"num": 1, "den": 15360}, "height": 1920, "interlaced_frame": false, "fps": {"num": 30, "den": 1}, "audio_bit_rate": 143999, "audio_stream_index": 1, "has_audio": true}, "perspective_c4_y": {"Points": [{"co": {"Y": -1.0, "X": 1.0}, "interpolation": 2}]}, "perspective_c2_x": {"Points": [{"co": {"Y": -1.0, "X": 1.0}, "interpolation": 2}]}, "has_video": {"Points": [{"co": {"Y": -1.0, "X": 1.0}, "interpolation": 2}]}, "scale_x": {"Points": [{"handle_right": {"Y": 0.0, "X": 0.5}, "co": {"Y": 1.0, "X": 1.0}, "handle_left": {"Y": 1.0, "X": 0.5}, "handle_type": 0, "interpolation": 0}]}, "file_id": "ZAVHCUQR3M", "id": "G5XXA3WPBF", "wave_color": {"alpha": {"Points": [{"handle_right": {"Y": 0.0, "X": 0.5}, "co": {"Y": 255.0, "X": 1.0}, "handle_left": {"Y": 1.0, "X": 0.5}, "handle_type": 0, "interpolation": 0}]}, "blue": {"Points": [{"handle_right": {"Y": 0.0, "X": 0.5}, "co": {"Y": 255.0, "X": 1.0}, "handle_left": {"Y": 1.0, "X": 0.5}, "handle_type": 0, "interpolation": 0}]}, "green": {"Points": [{"handle_right": {"Y": 0.0, "X": 0.5}, "co": {"Y": 123.0, "X": 1.0}, "handle_left": {"Y": 1.0, "X": 0.5}, "handle_type": 0, "interpolation": 0}]}, "red": {"Points": [{"handle_right": {"Y": 0.0, "X": 0.5}, "co": {"Y": 0.0, "X": 1.0}, "handle_left": {"Y": 1.0, "X": 0.5}, "handle_type": 0, "interpolation": 0}]}}, "start": 1.324062500000002, "scale_y": {"Points": [{"handle_right": {"Y": 0.0, "X": 0.5}, "co": {"Y": 1.0, "X": 1.0}, "handle_left": {"Y": 1.0, "X": 0.5}, "handle_type": 0, "interpolation": 0}]}, "waveform": false, "perspective_c3_x": {"Points": [{"co": {"Y": -1.0, "X": 1.0}, "interpolation": 2}]}, "rotation": {"Points": [{"co": {"Y": 0.0, "X": 1.0}, "interpolation": 2}]}, "perspective_c4_x": {"Points": [{"co": {"Y": -1.0, "X": 1.0}, "interpolation": 2}]}, "channel_mapping": {"Points": [{"co": {"Y": -1.0, "X": 1.0}, "interpolation": 2}]}, "location_y": {"Points": [{"handle_right": {"Y": 0.0, "X": 0.5}, "co": {"Y": 0.0, "X": 1.0}, "handle_left": {"Y": 1.0, "X": 0.5}, "handle_type": 0, "interpolation": 0}, {"co": {"Y": -0.0026109660574412533, "X": 106}, "interpolation": 0}, {"co": {"Y": 0.0020305883553056606, "X": 37}, "interpolation": 0}]}, "location_x": {"Points": [{"handle_right": {"Y": 0.0, "X": 0.5}, "co": {"Y": 0.0, "X": 1.0}, "handle_left": {"Y": 1.0, "X": 0.5}, "handle_type": 0, "interpolation": 0}, {"co": {"Y": -0.3411764705882353, "X": 106}, "interpolation": 0}, {"co": {"Y": -0.3405441725078751, "X": 37}, "interpolation": 0}]}, "perspective_c2_y": {"Points": [{"co": {"Y": -1.0, "X": 1.0}, "interpolation": 2}]}, "crop_width": {"Points": [{"co": {"Y": -1.0, "X": 1.0}, "interpolation": 2}]}, "display": 0}, {"duration": 10.51863956451416, "shear_x": {"Points": [{"co": {"Y": 0.0, "X": 1.0}, "interpolation": 2}]}, "position": 21.042499999999997, "crop_height": {"Points": [{"co": {"Y": -1.0, "X": 1.0}, "interpolation": 2}]}, "alpha": {"Points": [{"co": {"Y": 1.0, "X": 1.0}, "interpolation": 2}]}, "has_audio": {"Points": [{"co": {"Y": -1.0, "X": 1.0}, "interpolation": 2}]}, "crop_y": {"Points": [{"co": {"Y": 0.0, "X": 1.0}, "interpolation": 2}]}, "crop_x": {"Points": [{"co": {"Y": 0.0, "X": 1.0}, "interpolation": 2}]}, "anchor": 0, "perspective_c1_y": {"Points": [{"co": {"Y": -1.0, "X": 1.0}, "interpolation": 2}]}, "scale": 1, "perspective_c1_x": {"Points": [{"co": {"Y": -1.0, "X": 1.0}, "interpolation": 2}]}, "volume": {"Points": [{"co": {"Y": 1.0, "X": 1.0}, "interpolation": 2}]}, "time": {"Points": [{"co": {"Y": 1.0, "X": 1.0}, "interpolation": 2}]}, "perspective_c3_y": {"Points": [{"co": {"Y": -1.0, "X": 1.0}, "interpolation": 2}]}, "channel_filter": {"Points": [{"co": {"Y": -1.0, "X": 1.0}, "interpolation": 2}]}, "image": "..\\..\\..\\..\\.openshot_qt\\thumbnail\\8BPTV6658Z-41.png", "shear_y": {"Points": [{"co": {"Y": 0.0, "X": 1.0}, "interpolation": 2}]}, "end": 5.866458333333337, "title": "IMG_4764.MOV", "layer": 1, "effects": [], "gravity": 4, "reader": {"top_field_first": true, "audio_timebase": {"num": 1, "den": 44100}, "duration": 10.51863956451416, "file_size": "4818599", "channels": 1, "pixel_ratio": {"num": 1, "den": 1}, "pixel_format": 0, "type": "FFmpegReader", "vcodec": "h264", "video_stream_index": 0, "video_bit_rate": 3664914, "has_single_image": false, "path": "..\\..\\..\\..\\Downloads\\IMG_4764.MOV", "display_ratio": {"num": 9, "den": 16}, "channel_layout": 4, "video_length": "314", "sample_rate": 44100, "width": 1080, "has_video": true, "acodec": "aac", "video_timebase": {"num": 1, "den": 15360}, "height": 1920, "interlaced_frame": false, "fps": {"num": 30, "den": 1}, "audio_bit_rate": 143999, "audio_stream_index": 1, "has_audio": true}, "perspective_c4_y": {"Points": [{"co": {"Y": -1.0, "X": 1.0}, "interpolation": 2}]}, "perspective_c2_x": {"Points": [{"co": {"Y": -1.0, "X": 1.0}, "interpolation": 2}]}, "has_video": {"Points": [{"co": {"Y": -1.0, "X": 1.0}, "interpolation": 2}]}, "scale_x": {"Points": [{"handle_right": {"Y": 0.0, "X": 0.5}, "co": {"Y": 1.0, "X": 1.0}, "handle_left": {"Y": 1.0, "X": 0.5}, "handle_type": 0, "interpolation": 0}]}, "file_id": "ZAVHCUQR3M", "id": "U4KIUMGGMK", "wave_color": {"alpha": {"Points": [{"handle_right": {"Y": 0.0, "X": 0.5}, "co": {"Y": 255.0, "X": 1.0}, "handle_left": {"Y": 1.0, "X": 0.5}, "handle_type": 0, "interpolation": 0}]}, "blue": {"Points": [{"handle_right": {"Y": 0.0, "X": 0.5}, "co": {"Y": 255.0, "X": 1.0}, "handle_left": {"Y": 1.0, "X": 0.5}, "handle_type": 0, "interpolation": 0}]}, "green": {"Points": [{"handle_right": {"Y": 0.0, "X": 0.5}, "co": {"Y": 123.0, "X": 1.0}, "handle_left": {"Y": 1.0, "X": 0.5}, "handle_type": 0, "interpolation": 0}]}, "red": {"Points": [{"handle_right": {"Y": 0.0, "X": 0.5}, "co": {"Y": 0.0, "X": 1.0}, "handle_left": {"Y": 1.0, "X": 0.5}, "handle_type": 0, "interpolation": 0}]}}, "start": 1.324062500000002, "scale_y": {"Points": [{"handle_right": {"Y": 0.0, "X": 0.5}, "co": {"Y": 1.0, "X": 1.0}, "handle_left": {"Y": 1.0, "X": 0.5}, "handle_type": 0, "interpolation": 0}]}, "waveform": false, "perspective_c3_x": {"Points": [{"co": {"Y": -1.0, "X": 1.0}, "interpolation": 2}]}, "rotation": {"Points": [{"co": {"Y": 0.0, "X": 1.0}, "interpolation": 2}]}, "perspective_c4_x": {"Points": [{"co": {"Y": -1.0, "X": 1.0}, "interpolation": 2}]}, "channel_mapping": {"Points": [{"co": {"Y": -1.0, "X": 1.0}, "interpolation": 2}]}, "location_y": {"Points": [{"handle_right": {"Y": 0.0, "X": 0.5}, "co": {"Y": 0.0, "X": 1.0}, "handle_left": {"Y": 1.0, "X": 0.5}, "handle_type": 0, "interpolation": 0}, {"co": {"Y": -0.0026109660574412533, "X": 106}, "interpolation": 0}, {"co": {"Y": 0.0020305883553056606, "X": 37}, "interpolation": 0}]}, "location_x": {"Points": [{"handle_right": {"Y": 0.0, "X": 0.5}, "co": {"Y": 0.0, "X": 1.0}, "handle_left": {"Y": 1.0, "X": 0.5}, "handle_type": 0, "interpolation": 0}, {"co": {"Y": -0.3411764705882353, "X": 106}, "interpolation": 0}, {"co": {"Y": -0.3405441725078751, "X": 37}, "interpolation": 0}]}, "perspective_c2_y": {"Points": [{"co": {"Y": -1.0, "X": 1.0}, "interpolation": 2}]}, "crop_width": {"Points": [{"co": {"Y": -1.0, "X": 1.0}, "interpolation": 2}]}, "display": 0}, {"duration": 10.51863956451416, "shear_x": {"Points": [{"co": {"Y": 0.0, "X": 1.0}, "interpolation": 2}]}, "position": 25.584687499999998, "crop_height": {"Points": [{"co": {"Y": -1.0, "X": 1.0}, "interpolation": 2}]}, "alpha": {"Points": [{"co": {"Y": 1.0, "X": 1.0}, "interpolation": 2}]}, "has_audio": {"Points": [{"co": {"Y": -1.0, "X": 1.0}, "interpolation": 2}]}, "crop_y": {"Points": [{"co": {"Y": 0.0, "X": 1.0}, "interpolation": 2}]}, "crop_x": {"Points": [{"co": {"Y": 0.0, "X": 1.0}, "interpolation": 2}]}, "anchor": 0, "perspective_c1_y": {"Points": [{"co": {"Y": -1.0, "X": 1.0}, "interpolation": 2}]}, "scale": 1, "perspective_c1_x": {"Points": [{"co": {"Y": -1.0, "X": 1.0}, "interpolation": 2}]}, "volume": {"Points": [{"co": {"Y": 1.0, "X": 1.0}, "interpolation": 2}]}, "time": {"Points": [{"co": {"Y": 1.0, "X": 1.0}, "interpolation": 2}]}, "perspective_c3_y": {"Points": [{"co": {"Y": -1.0, "X": 1.0}, "interpolation": 2}]}, "channel_filter": {"Points": [{"co": {"Y": -1.0, "X": 1.0}, "interpolation": 2}]}, "image": "..\\..\\..\\..\\.openshot_qt\\thumbnail\\8BPTV6658Z-41.png", "shear_y": {"Points": [{"co": {"Y": 0.0, "X": 1.0}, "interpolation": 2}]}, "end": 5.866458333333337, "title": "IMG_4764.MOV", "layer": 1, "effects": [], "gravity": 4, "reader": {"top_field_first": true, "audio_timebase": {"num": 1, "den": 44100}, "duration": 10.51863956451416, "file_size": "4818599", "channels": 1, "pixel_ratio": {"num": 1, "den": 1}, "pixel_format": 0, "type": "FFmpegReader", "vcodec": "h264", "video_stream_index": 0, "video_bit_rate": 3664914, "has_single_image": false, "path": "..\\..\\..\\..\\Downloads\\IMG_4764.MOV", "display_ratio": {"num": 9, "den": 16}, "channel_layout": 4, "video_length": "314", "sample_rate": 44100, "width": 1080, "has_video": true, "acodec": "aac", "video_timebase": {"num": 1, "den": 15360}, "height": 1920, "interlaced_frame": false, "fps": {"num": 30, "den": 1}, "audio_bit_rate": 143999, "audio_stream_index": 1, "has_audio": true}, "perspective_c4_y": {"Points": [{"co": {"Y": -1.0, "X": 1.0}, "interpolation": 2}]}, "perspective_c2_x": {"Points": [{"co": {"Y": -1.0, "X": 1.0}, "interpolation": 2}]}, "has_video": {"Points": [{"co": {"Y": -1.0, "X": 1.0}, "interpolation": 2}]}, "scale_x": {"Points": [{"handle_right": {"Y": 0.0, "X": 0.5}, "co": {"Y": 1.0, "X": 1.0}, "handle_left": {"Y": 1.0, "X": 0.5}, "handle_type": 0, "interpolation": 0}]}, "file_id": "ZAVHCUQR3M", "id": "PA71JHI0FU", "wave_color": {"alpha": {"Points": [{"handle_right": {"Y": 0.0, "X": 0.5}, "co": {"Y": 255.0, "X": 1.0}, "handle_left": {"Y": 1.0, "X": 0.5}, "handle_type": 0, "interpolation": 0}]}, "blue": {"Points": [{"handle_right": {"Y": 0.0, "X": 0.5}, "co": {"Y": 255.0, "X": 1.0}, "handle_left": {"Y": 1.0, "X": 0.5}, "handle_type": 0, "interpolation": 0}]}, "green": {"Points": [{"handle_right": {"Y": 0.0, "X": 0.5}, "co": {"Y": 123.0, "X": 1.0}, "handle_left": {"Y": 1.0, "X": 0.5}, "handle_type": 0, "interpolation": 0}]}, "red": {"Points": [{"handle_right": {"Y": 0.0, "X": 0.5}, "co": {"Y": 0.0, "X": 1.0}, "handle_left": {"Y": 1.0, "X": 0.5}, "handle_type": 0, "interpolation": 0}]}}, "start": 1.324062500000002, "scale_y": {"Points": [{"handle_right": {"Y": 0.0, "X": 0.5}, "co": {"Y": 1.0, "X": 1.0}, "handle_left": {"Y": 1.0, "X": 0.5}, "handle_type": 0, "interpolation": 0}]}, "waveform": false, "perspective_c3_x": {"Points": [{"co": {"Y": -1.0, "X": 1.0}, "interpolation": 2}]}, "rotation": {"Points": [{"co": {"Y": 0.0, "X": 1.0}, "interpolation": 2}]}, "perspective_c4_x": {"Points": [{"co": {"Y": -1.0, "X": 1.0}, "interpolation": 2}]}, "channel_mapping": {"Points": [{"co": {"Y": -1.0, "X": 1.0}, "interpolation": 2}]}, "location_y": {"Points": [{"handle_right": {"Y": 0.0, "X": 0.5}, "co": {"Y": 0.0, "X": 1.0}, "handle_left": {"Y": 1.0, "X": 0.5}, "handle_type": 0, "interpolation": 0}, {"co": {"Y": -0.0026109660574412533, "X": 106}, "interpolation": 0}, {"co": {"Y": 0.0020305883553056606, "X": 37}, "interpolation": 0}]}, "location_x": {"Points": [{"handle_right": {"Y": 0.0, "X": 0.5}, "co": {"Y": 0.0, "X": 1.0}, "handle_left": {"Y": 1.0, "X": 0.5}, "handle_type": 0, "interpolation": 0}, {"co": {"Y": -0.3411764705882353, "X": 106}, "interpolation": 0}, {"co": {"Y": -0.3405441725078751, "X": 37}, "interpolation": 0}]}, "perspective_c2_y": {"Points": [{"co": {"Y": -1.0, "X": 1.0}, "interpolation": 2}]}, "crop_width": {"Points": [{"co": {"Y": -1.0, "X": 1.0}, "interpolation": 2}]}, "display": 0}, {"duration": 10.51863956451416, "shear_x": {"Points": [{"co": {"Y": 0.0, "X": 1.0}, "interpolation": 2}]}, "position": 30.126875, "crop_height": {"Points": [{"co": {"Y": -1.0, "X": 1.0}, "interpolation": 2}]}, "alpha": {"Points": [{"co": {"Y": 1.0, "X": 1.0}, "interpolation": 2}]}, "has_audio": {"Points": [{"co": {"Y": -1.0, "X": 1.0}, "interpolation": 2}]}, "crop_y": {"Points": [{"co": {"Y": 0.0, "X": 1.0}, "interpolation": 2}]}, "crop_x": {"Points": [{"co": {"Y": 0.0, "X": 1.0}, "interpolation": 2}]}, "anchor": 0, "perspective_c1_y": {"Points": [{"co": {"Y": -1.0, "X": 1.0}, "interpolation": 2}]}, "scale": 1, "perspective_c1_x": {"Points": [{"co": {"Y": -1.0, "X": 1.0}, "interpolation": 2}]}, "volume": {"Points": [{"co": {"Y": 1.0, "X": 1.0}, "interpolation": 2}]}, "time": {"Points": [{"co": {"Y": 1.0, "X": 1.0}, "interpolation": 2}]}, "perspective_c3_y": {"Points": [{"co": {"Y": -1.0, "X": 1.0}, "interpolation": 2}]}, "channel_filter": {"Points": [{"co": {"Y": -1.0, "X": 1.0}, "interpolation": 2}]}, "image": "..\\..\\..\\..\\.openshot_qt\\thumbnail\\8BPTV6658Z-41.png", "shear_y": {"Points": [{"co": {"Y": 0.0, "X": 1.0}, "interpolation": 2}]}, "end": 5.866458333333337, "title": "IMG_4764.MOV", "layer": 1, "effects": [], "gravity": 4, "reader": {"top_field_first": true, "audio_timebase": {"num": 1, "den": 44100}, "duration": 10.51863956451416, "file_size": "4818599", "channels": 1, "pixel_ratio": {"num": 1, "den": 1}, "pixel_format": 0, "type": "FFmpegReader", "vcodec": "h264", "video_stream_index": 0, "video_bit_rate": 3664914, "has_single_image": false, "path": "..\\..\\..\\..\\Downloads\\IMG_4764.MOV", "display_ratio": {"num": 9, "den": 16}, "channel_layout": 4, "video_length": "314", "sample_rate": 44100, "width": 1080, "has_video": true, "acodec": "aac", "video_timebase": {"num": 1, "den": 15360}, "height": 1920, "interlaced_frame": false, "fps": {"num": 30, "den": 1}, "audio_bit_rate": 143999, "audio_stream_index": 1, "has_audio": true}, "perspective_c4_y": {"Points": [{"co": {"Y": -1.0, "X": 1.0}, "interpolation": 2}]}, "perspective_c2_x": {"Points": [{"co": {"Y": -1.0, "X": 1.0}, "interpolation": 2}]}, "has_video": {"Points": [{"co": {"Y": -1.0, "X": 1.0}, "interpolation": 2}]}, "scale_x": {"Points": [{"handle_right": {"Y": 0.0, "X": 0.5}, "co": {"Y": 1.0, "X": 1.0}, "handle_left": {"Y": 1.0, "X": 0.5}, "handle_type": 0, "interpolation": 0}]}, "file_id": "ZAVHCUQR3M", "id": "KNE6AZ8D6P", "wave_color": {"alpha": {"Points": [{"handle_right": {"Y": 0.0, "X": 0.5}, "co": {"Y": 255.0, "X": 1.0}, "handle_left": {"Y": 1.0, "X": 0.5}, "handle_type": 0, "interpolation": 0}]}, "blue": {"Points": [{"handle_right": {"Y": 0.0, "X": 0.5}, "co": {"Y": 255.0, "X": 1.0}, "handle_left": {"Y": 1.0, "X": 0.5}, "handle_type": 0, "interpolation": 0}]}, "green": {"Points": [{"handle_right": {"Y": 0.0, "X": 0.5}, "co": {"Y": 123.0, "X": 1.0}, "handle_left": {"Y": 1.0, "X": 0.5}, "handle_type": 0, "interpolation": 0}]}, "red": {"Points": [{"handle_right": {"Y": 0.0, "X": 0.5}, "co": {"Y": 0.0, "X": 1.0}, "handle_left": {"Y": 1.0, "X": 0.5}, "handle_type": 0, "interpolation": 0}]}}, "start": 1.324062500000002, "scale_y": {"Points": [{"handle_right": {"Y": 0.0, "X": 0.5}, "co": {"Y": 1.0, "X": 1.0}, "handle_left": {"Y": 1.0, "X": 0.5}, "handle_type": 0, "interpolation": 0}]}, "waveform": false, "perspective_c3_x": {"Points": [{"co": {"Y": -1.0, "X": 1.0}, "interpolation": 2}]}, "rotation": {"Points": [{"co": {"Y": 0.0, "X": 1.0}, "interpolation": 2}]}, "perspective_c4_x": {"Points": [{"co": {"Y": -1.0, "X": 1.0}, "interpolation": 2}]}, "channel_mapping": {"Points": [{"co": {"Y": -1.0, "X": 1.0}, "interpolation": 2}]}, "location_y": {"Points": [{"handle_right": {"Y": 0.0, "X": 0.5}, "co": {"Y": 0.0, "X": 1.0}, "handle_left": {"Y": 1.0, "X": 0.5}, "handle_type": 0, "interpolation": 0}, {"co": {"Y": -0.0026109660574412533, "X": 106}, "interpolation": 0}, {"co": {"Y": 0.0020305883553056606, "X": 37}, "interpolation": 0}]}, "location_x": {"Points": [{"handle_right": {"Y": 0.0, "X": 0.5}, "co": {"Y": 0.0, "X": 1.0}, "handle_left": {"Y": 1.0, "X": 0.5}, "handle_type": 0, "interpolation": 0}, {"co": {"Y": -0.3411764705882353, "X": 106}, "interpolation": 0}, {"co": {"Y": -0.3405441725078751, "X": 37}, "interpolation": 0}]}, "perspective_c2_y": {"Points": [{"co": {"Y": -1.0, "X": 1.0}, "interpolation": 2}]}, "crop_width": {"Points": [{"co": {"Y": -1.0, "X": 1.0}, "interpolation": 2}]}, "display": 0}, {"duration": 10.51863956451416, "shear_x": {"Points": [{"co": {"Y": 0.0, "X": 1.0}, "interpolation": 2}]}, "position": 34.669062499999995, "crop_height": {"Points": [{"co": {"Y": -1.0, "X": 1.0}, "interpolation": 2}]}, "alpha": {"Points": [{"co": {"Y": 1.0, "X": 1.0}, "interpolation": 2}]}, "has_audio": {"Points": [{"co": {"Y": -1.0, "X": 1.0}, "interpolation": 2}]}, "crop_y": {"Points": [{"co": {"Y": 0.0, "X": 1.0}, "interpolation": 2}]}, "crop_x": {"Points": [{"co": {"Y": 0.0, "X": 1.0}, "interpolation": 2}]}, "anchor": 0, "perspective_c1_y": {"Points": [{"co": {"Y": -1.0, "X": 1.0}, "interpolation": 2}]}, "scale": 1, "perspective_c1_x": {"Points": [{"co": {"Y": -1.0, "X": 1.0}, "interpolation": 2}]}, "volume": {"Points": [{"co": {"Y": 1.0, "X": 1.0}, "interpolation": 2}]}, "time": {"Points": [{"co": {"Y": 1.0, "X": 1.0}, "interpolation": 2}]}, "perspective_c3_y": {"Points": [{"co": {"Y": -1.0, "X": 1.0}, "interpolation": 2}]}, "channel_filter": {"Points": [{"co": {"Y": -1.0, "X": 1.0}, "interpolation": 2}]}, "image": "..\\..\\..\\..\\.openshot_qt\\thumbnail\\8BPTV6658Z-41.png", "shear_y": {"Points": [{"co": {"Y": 0.0, "X": 1.0}, "interpolation": 2}]}, "end": 5.866458333333337, "title": "IMG_4764.MOV", "layer": 1, "effects": [], "gravity": 4, "reader": {"top_field_first": true, "audio_timebase": {"num": 1, "den": 44100}, "duration": 10.51863956451416, "file_size": "4818599", "channels": 1, "pixel_ratio": {"num": 1, "den": 1}, "pixel_format": 0, "type": "FFmpegReader", "vcodec": "h264", "video_stream_index": 0, "video_bit_rate": 3664914, "has_single_image": false, "path": "..\\..\\..\\..\\Downloads\\IMG_4764.MOV", "display_ratio": {"num": 9, "den": 16}, "channel_layout": 4, "video_length": "314", "sample_rate": 44100, "width": 1080, "has_video": true, "acodec": "aac", "video_timebase": {"num": 1, "den": 15360}, "height": 1920, "interlaced_frame": false, "fps": {"num": 30, "den": 1}, "audio_bit_rate": 143999, "audio_stream_index": 1, "has_audio": true}, "perspective_c4_y": {"Points": [{"co": {"Y": -1.0, "X": 1.0}, "interpolation": 2}]}, "perspective_c2_x": {"Points": [{"co": {"Y": -1.0, "X": 1.0}, "interpolation": 2}]}, "has_video": {"Points": [{"co": {"Y": -1.0, "X": 1.0}, "interpolation": 2}]}, "scale_x": {"Points": [{"handle_right": {"Y": 0.0, "X": 0.5}, "co": {"Y": 1.0, "X": 1.0}, "handle_left": {"Y": 1.0, "X": 0.5}, "handle_type": 0, "interpolation": 0}]}, "file_id": "ZAVHCUQR3M", "id": "Y5XQTK40R4", "wave_color": {"alpha": {"Points": [{"handle_right": {"Y": 0.0, "X": 0.5}, "co": {"Y": 255.0, "X": 1.0}, "handle_left": {"Y": 1.0, "X": 0.5}, "handle_type": 0, "interpolation": 0}]}, "blue": {"Points": [{"handle_right": {"Y": 0.0, "X": 0.5}, "co": {"Y": 255.0, "X": 1.0}, "handle_left": {"Y": 1.0, "X": 0.5}, "handle_type": 0, "interpolation": 0}]}, "green": {"Points": [{"handle_right": {"Y": 0.0, "X": 0.5}, "co": {"Y": 123.0, "X": 1.0}, "handle_left": {"Y": 1.0, "X": 0.5}, "handle_type": 0, "interpolation": 0}]}, "red": {"Points": [{"handle_right": {"Y": 0.0, "X": 0.5}, "co": {"Y": 0.0, "X": 1.0}, "handle_left": {"Y": 1.0, "X": 0.5}, "handle_type": 0, "interpolation": 0}]}}, "start": 1.324062500000002, "scale_y": {"Points": [{"handle_right": {"Y": 0.0, "X": 0.5}, "co": {"Y": 1.0, "X": 1.0}, "handle_left": {"Y": 1.0, "X": 0.5}, "handle_type": 0, "interpolation": 0}]}, "waveform": false, "perspective_c3_x": {"Points": [{"co": {"Y": -1.0, "X": 1.0}, "interpolation": 2}]}, "rotation": {"Points": [{"co": {"Y": 0.0, "X": 1.0}, "interpolation": 2}]}, "perspective_c4_x": {"Points": [{"co": {"Y": -1.0, "X": 1.0}, "interpolation": 2}]}, "channel_mapping": {"Points": [{"co": {"Y": -1.0, "X": 1.0}, "interpolation": 2}]}, "location_y": {"Points": [{"handle_right": {"Y": 0.0, "X": 0.5}, "co": {"Y": 0.0, "X": 1.0}, "handle_left": {"Y": 1.0, "X": 0.5}, "handle_type": 0, "interpolation": 0}, {"co": {"Y": -0.0026109660574412533, "X": 106}, "interpolation": 0}, {"co": {"Y": 0.0020305883553056606, "X": 37}, "interpolation": 0}]}, "location_x": {"Points": [{"handle_right": {"Y": 0.0, "X": 0.5}, "co": {"Y": 0.0, "X": 1.0}, "handle_left": {"Y": 1.0, "X": 0.5}, "handle_type": 0, "interpolation": 0}, {"co": {"Y": -0.3411764705882353, "X": 106}, "interpolation": 0}, {"co": {"Y": -0.3405441725078751, "X": 37}, "interpolation": 0}]}, "perspective_c2_y": {"Points": [{"co": {"Y": -1.0, "X": 1.0}, "interpolation": 2}]}, "crop_width": {"Points": [{"co": {"Y": -1.0, "X": 1.0}, "interpolation": 2}]}, "display": 0}, {"duration": 10.51863956451416, "shear_x": {"Points": [{"co": {"Y": 0.0, "X": 1.0}, "interpolation": 2}]}, "position": 39.21125, "crop_height": {"Points": [{"co": {"Y": -1.0, "X": 1.0}, "interpolation": 2}]}, "alpha": {"Points": [{"co": {"Y": 1.0, "X": 1.0}, "interpolation": 2}]}, "has_audio": {"Points": [{"co": {"Y": -1.0, "X": 1.0}, "interpolation": 2}]}, "crop_y": {"Points": [{"co": {"Y": 0.0, "X": 1.0}, "interpolation": 2}]}, "crop_x": {"Points": [{"co": {"Y": 0.0, "X": 1.0}, "interpolation": 2}]}, "anchor": 0, "perspective_c1_y": {"Points": [{"co": {"Y": -1.0, "X": 1.0}, "interpolation": 2}]}, "scale": 1, "perspective_c1_x": {"Points": [{"co": {"Y": -1.0, "X": 1.0}, "interpolation": 2}]}, "volume": {"Points": [{"co": {"Y": 1.0, "X": 1.0}, "interpolation": 2}]}, "time": {"Points": [{"co": {"Y": 1.0, "X": 1.0}, "interpolation": 2}]}, "perspective_c3_y": {"Points": [{"co": {"Y": -1.0, "X": 1.0}, "interpolation": 2}]}, "channel_filter": {"Points": [{"co": {"Y": -1.0, "X": 1.0}, "interpolation": 2}]}, "image": "..\\..\\..\\..\\.openshot_qt\\thumbnail\\8BPTV6658Z-41.png", "shear_y": {"Points": [{"co": {"Y": 0.0, "X": 1.0}, "interpolation": 2}]}, "end": 5.866458333333337, "title": "IMG_4764.MOV", "layer": 1, "effects": [], "gravity": 4, "reader": {"top_field_first": true, "audio_timebase": {"num": 1, "den": 44100}, "duration": 10.51863956451416, "file_size": "4818599", "channels": 1, "pixel_ratio": {"num": 1, "den": 1}, "pixel_format": 0, "type": "FFmpegReader", "vcodec": "h264", "video_stream_index": 0, "video_bit_rate": 3664914, "has_single_image": false, "path": "..\\..\\..\\..\\Downloads\\IMG_4764.MOV", "display_ratio": {"num": 9, "den": 16}, "channel_layout": 4, "video_length": "314", "sample_rate": 44100, "width": 1080, "has_video": true, "acodec": "aac", "video_timebase": {"num": 1, "den": 15360}, "height": 1920, "interlaced_frame": false, "fps": {"num": 30, "den": 1}, "audio_bit_rate": 143999, "audio_stream_index": 1, "has_audio": true}, "perspective_c4_y": {"Points": [{"co": {"Y": -1.0, "X": 1.0}, "interpolation": 2}]}, "perspective_c2_x": {"Points": [{"co": {"Y": -1.0, "X": 1.0}, "interpolation": 2}]}, "has_video": {"Points": [{"co": {"Y": -1.0, "X": 1.0}, "interpolation": 2}]}, "scale_x": {"Points": [{"handle_right": {"Y": 0.0, "X": 0.5}, "co": {"Y": 1.0, "X": 1.0}, "handle_left": {"Y": 1.0, "X": 0.5}, "handle_type": 0, "interpolation": 0}]}, "file_id": "ZAVHCUQR3M", "id": "OL62SYYMK3", "wave_color": {"alpha": {"Points": [{"handle_right": {"Y": 0.0, "X": 0.5}, "co": {"Y": 255.0, "X": 1.0}, "handle_left": {"Y": 1.0, "X": 0.5}, "handle_type": 0, "interpolation": 0}]}, "blue": {"Points": [{"handle_right": {"Y": 0.0, "X": 0.5}, "co": {"Y": 255.0, "X": 1.0}, "handle_left": {"Y": 1.0, "X": 0.5}, "handle_type": 0, "interpolation": 0}]}, "green": {"Points": [{"handle_right": {"Y": 0.0, "X": 0.5}, "co": {"Y": 123.0, "X": 1.0}, "handle_left": {"Y": 1.0, "X": 0.5}, "handle_type": 0, "interpolation": 0}]}, "red": {"Points": [{"handle_right": {"Y": 0.0, "X": 0.5}, "co": {"Y": 0.0, "X": 1.0}, "handle_left": {"Y": 1.0, "X": 0.5}, "handle_type": 0, "interpolation": 0}]}}, "start": 1.324062500000002, "scale_y": {"Points": [{"handle_right": {"Y": 0.0, "X": 0.5}, "co": {"Y": 1.0, "X": 1.0}, "handle_left": {"Y": 1.0, "X": 0.5}, "handle_type": 0, "interpolation": 0}]}, "waveform": false, "perspective_c3_x": {"Points": [{"co": {"Y": -1.0, "X": 1.0}, "interpolation": 2}]}, "rotation": {"Points": [{"co": {"Y": 0.0, "X": 1.0}, "interpolation": 2}]}, "perspective_c4_x": {"Points": [{"co": {"Y": -1.0, "X": 1.0}, "interpolation": 2}]}, "channel_mapping": {"Points": [{"co": {"Y": -1.0, "X": 1.0}, "interpolation": 2}]}, "location_y": {"Points": [{"handle_right": {"Y": 0.0, "X": 0.5}, "co": {"Y": 0.0, "X": 1.0}, "handle_left": {"Y": 1.0, "X": 0.5}, "handle_type": 0, "interpolation": 0}, {"co": {"Y": -0.0026109660574412533, "X": 106}, "interpolation": 0}, {"co": {"Y": 0.0020305883553056606, "X": 37}, "interpolation": 0}]}, "location_x": {"Points": [{"handle_right": {"Y": 0.0, "X": 0.5}, "co": {"Y": 0.0, "X": 1.0}, "handle_left": {"Y": 1.0, "X": 0.5}, "handle_type": 0, "interpolation": 0}, {"co": {"Y": -0.3411764705882353, "X": 106}, "interpolation": 0}, {"co": {"Y": -0.3405441725078751, "X": 37}, "interpolation": 0}]}, "perspective_c2_y": {"Points": [{"co": {"Y": -1.0, "X": 1.0}, "interpolation": 2}]}, "crop_width": {"Points": [{"co": {"Y": -1.0, "X": 1.0}, "interpolation": 2}]}, "display": 0}, {"duration": 10.51863956451416, "shear_x": {"Points": [{"co": {"Y": 0.0, "X": 1.0}, "interpolation": 2}]}, "position": 43.7534375, "crop_height": {"Points": [{"co": {"Y": -1.0, "X": 1.0}, "interpolation": 2}]}, "alpha": {"Points": [{"co": {"Y": 1.0, "X": 1.0}, "interpolation": 2}]}, "has_audio": {"Points": [{"co": {"Y": -1.0, "X": 1.0}, "interpolation": 2}]}, "crop_y": {"Points": [{"co": {"Y": 0.0, "X": 1.0}, "interpolation": 2}]}, "crop_x": {"Points": [{"co": {"Y": 0.0, "X": 1.0}, "interpolation": 2}]}, "anchor": 0, "perspective_c1_y": {"Points": [{"co": {"Y": -1.0, "X": 1.0}, "interpolation": 2}]}, "scale": 1, "perspective_c1_x": {"Points": [{"co": {"Y": -1.0, "X": 1.0}, "interpolation": 2}]}, "volume": {"Points": [{"co": {"Y": 1.0, "X": 1.0}, "interpolation": 2}]}, "time": {"Points": [{"co": {"Y": 1.0, "X": 1.0}, "interpolation": 2}]}, "perspective_c3_y": {"Points": [{"co": {"Y": -1.0, "X": 1.0}, "interpolation": 2}]}, "channel_filter": {"Points": [{"co": {"Y": -1.0, "X": 1.0}, "interpolation": 2}]}, "image": "..\\..\\..\\..\\.openshot_qt\\thumbnail\\8BPTV6658Z-41.png", "shear_y": {"Points": [{"co": {"Y": 0.0, "X": 1.0}, "interpolation": 2}]}, "end": 5.866458333333337, "title": "IMG_4764.MOV", "layer": 1, "effects": [], "gravity": 4, "reader": {"top_field_first": true, "audio_timebase": {"num": 1, "den": 44100}, "duration": 10.51863956451416, "file_size": "4818599", "channels": 1, "pixel_ratio": {"num": 1, "den": 1}, "pixel_format": 0, "type": "FFmpegReader", "vcodec": "h264", "video_stream_index": 0, "video_bit_rate": 3664914, "has_single_image": false, "path": "..\\..\\..\\..\\Downloads\\IMG_4764.MOV", "display_ratio": {"num": 9, "den": 16}, "channel_layout": 4, "video_length": "314", "sample_rate": 44100, "width": 1080, "has_video": true, "acodec": "aac", "video_timebase": {"num": 1, "den": 15360}, "height": 1920, "interlaced_frame": false, "fps": {"num": 30, "den": 1}, "audio_bit_rate": 143999, "audio_stream_index": 1, "has_audio": true}, "perspective_c4_y": {"Points": [{"co": {"Y": -1.0, "X": 1.0}, "interpolation": 2}]}, "perspective_c2_x": {"Points": [{"co": {"Y": -1.0, "X": 1.0}, "interpolation": 2}]}, "has_video": {"Points": [{"co": {"Y": -1.0, "X": 1.0}, "interpolation": 2}]}, "scale_x": {"Points": [{"handle_right": {"Y": 0.0, "X": 0.5}, "co": {"Y": 1.0, "X": 1.0}, "handle_left": {"Y": 1.0, "X": 0.5}, "handle_type": 0, "interpolation": 0}]}, "file_id": "ZAVHCUQR3M", "id": "NJH1YZFWDU", "wave_color": {"alpha": {"Points": [{"handle_right": {"Y": 0.0, "X": 0.5}, "co": {"Y": 255.0, "X": 1.0}, "handle_left": {"Y": 1.0, "X": 0.5}, "handle_type": 0, "interpolation": 0}]}, "blue": {"Points": [{"handle_right": {"Y": 0.0, "X": 0.5}, "co": {"Y": 255.0, "X": 1.0}, "handle_left": {"Y": 1.0, "X": 0.5}, "handle_type": 0, "interpolation": 0}]}, "green": {"Points": [{"handle_right": {"Y": 0.0, "X": 0.5}, "co": {"Y": 123.0, "X": 1.0}, "handle_left": {"Y": 1.0, "X": 0.5}, "handle_type": 0, "interpolation": 0}]}, "red": {"Points": [{"handle_right": {"Y": 0.0, "X": 0.5}, "co": {"Y": 0.0, "X": 1.0}, "handle_left": {"Y": 1.0, "X": 0.5}, "handle_type": 0, "interpolation": 0}]}}, "start": 1.324062500000002, "scale_y": {"Points": [{"handle_right": {"Y": 0.0, "X": 0.5}, "co": {"Y": 1.0, "X": 1.0}, "handle_left": {"Y": 1.0, "X": 0.5}, "handle_type": 0, "interpolation": 0}]}, "waveform": false, "perspective_c3_x": {"Points": [{"co": {"Y": -1.0, "X": 1.0}, "interpolation": 2}]}, "rotation": {"Points": [{"co": {"Y": 0.0, "X": 1.0}, "interpolation": 2}]}, "perspective_c4_x": {"Points": [{"co": {"Y": -1.0, "X": 1.0}, "interpolation": 2}]}, "channel_mapping": {"Points": [{"co": {"Y": -1.0, "X": 1.0}, "interpolation": 2}]}, "location_y": {"Points": [{"handle_right": {"Y": 0.0, "X": 0.5}, "co": {"Y": 0.0, "X": 1.0}, "handle_left": {"Y": 1.0, "X": 0.5}, "handle_type": 0, "interpolation": 0}, {"co": {"Y": -0.0026109660574412533, "X": 106}, "interpolation": 0}, {"co": {"Y": 0.0020305883553056606, "X": 37}, "interpolation": 0}]}, "location_x": {"Points": [{"handle_right": {"Y": 0.0, "X": 0.5}, "co": {"Y": 0.0, "X": 1.0}, "handle_left": {"Y": 1.0, "X": 0.5}, "handle_type": 0, "interpolation": 0}, {"co": {"Y": -0.3411764705882353, "X": 106}, "interpolation": 0}, {"co": {"Y": -0.3405441725078751, "X": 37}, "interpolation": 0}]}, "perspective_c2_y": {"Points": [{"co": {"Y": -1.0, "X": 1.0}, "interpolation": 2}]}, "crop_width": {"Points": [{"co": {"Y": -1.0, "X": 1.0}, "interpolation": 2}]}, "display": 0}, {"duration": 10.51863956451416, "shear_x": {"Points": [{"co": {"Y": 0.0, "X": 1.0}, "interpolation": 2}]}, "position": 48.295624999999994, "crop_height": {"Points": [{"co": {"Y": -1.0, "X": 1.0}, "interpolation": 2}]}, "alpha": {"Points": [{"co": {"Y": 1.0, "X": 1.0}, "interpolation": 2}]}, "has_audio": {"Points": [{"co": {"Y": -1.0, "X": 1.0}, "interpolation": 2}]}, "crop_y": {"Points": [{"co": {"Y": 0.0, "X": 1.0}, "interpolation": 2}]}, "crop_x": {"Points": [{"co": {"Y": 0.0, "X": 1.0}, "interpolation": 2}]}, "anchor": 0, "perspective_c1_y": {"Points": [{"co": {"Y": -1.0, "X": 1.0}, "interpolation": 2}]}, "scale": 1, "perspective_c1_x": {"Points": [{"co": {"Y": -1.0, "X": 1.0}, "interpolation": 2}]}, "volume": {"Points": [{"co": {"Y": 1.0, "X": 1.0}, "interpolation": 2}]}, "time": {"Points": [{"co": {"Y": 1.0, "X": 1.0}, "interpolation": 2}]}, "perspective_c3_y": {"Points": [{"co": {"Y": -1.0, "X": 1.0}, "interpolation": 2}]}, "channel_filter": {"Points": [{"co": {"Y": -1.0, "X": 1.0}, "interpolation": 2}]}, "image": "..\\..\\..\\..\\.openshot_qt\\thumbnail\\8BPTV6658Z-41.png", "shear_y": {"Points": [{"co": {"Y": 0.0, "X": 1.0}, "interpolation": 2}]}, "end": 5.866458333333337, "title": "IMG_4764.MOV", "layer": 1, "effects": [], "gravity": 4, "reader": {"top_field_first": true, "audio_timebase": {"num": 1, "den": 44100}, "duration": 10.51863956451416, "file_size": "4818599", "channels": 1, "pixel_ratio": {"num": 1, "den": 1}, "pixel_format": 0, "type": "FFmpegReader", "vcodec": "h264", "video_stream_index": 0, "video_bit_rate": 3664914, "has_single_image": false, "path": "..\\..\\..\\..\\Downloads\\IMG_4764.MOV", "display_ratio": {"num": 9, "den": 16}, "channel_layout": 4, "video_length": "314", "sample_rate": 44100, "width": 1080, "has_video": true, "acodec": "aac", "video_timebase": {"num": 1, "den": 15360}, "height": 1920, "interlaced_frame": false, "fps": {"num": 30, "den": 1}, "audio_bit_rate": 143999, "audio_stream_index": 1, "has_audio": true}, "perspective_c4_y": {"Points": [{"co": {"Y": -1.0, "X": 1.0}, "interpolation": 2}]}, "perspective_c2_x": {"Points": [{"co": {"Y": -1.0, "X": 1.0}, "interpolation": 2}]}, "has_video": {"Points": [{"co": {"Y": -1.0, "X": 1.0}, "interpolation": 2}]}, "scale_x": {"Points": [{"handle_right": {"Y": 0.0, "X": 0.5}, "co": {"Y": 1.0, "X": 1.0}, "handle_left": {"Y": 1.0, "X": 0.5}, "handle_type": 0, "interpolation": 0}]}, "file_id": "ZAVHCUQR3M", "id": "Z9R98IQ4SI", "wave_color": {"alpha": {"Points": [{"handle_right": {"Y": 0.0, "X": 0.5}, "co": {"Y": 255.0, "X": 1.0}, "handle_left": {"Y": 1.0, "X": 0.5}, "handle_type": 0, "interpolation": 0}]}, "blue": {"Points": [{"handle_right": {"Y": 0.0, "X": 0.5}, "co": {"Y": 255.0, "X": 1.0}, "handle_left": {"Y": 1.0, "X": 0.5}, "handle_type": 0, "interpolation": 0}]}, "green": {"Points": [{"handle_right": {"Y": 0.0, "X": 0.5}, "co": {"Y": 123.0, "X": 1.0}, "handle_left": {"Y": 1.0, "X": 0.5}, "handle_type": 0, "interpolation": 0}]}, "red": {"Points": [{"handle_right": {"Y": 0.0, "X": 0.5}, "co": {"Y": 0.0, "X": 1.0}, "handle_left": {"Y": 1.0, "X": 0.5}, "handle_type": 0, "interpolation": 0}]}}, "start": 1.324062500000002, "scale_y": {"Points": [{"handle_right": {"Y": 0.0, "X": 0.5}, "co": {"Y": 1.0, "X": 1.0}, "handle_left": {"Y": 1.0, "X": 0.5}, "handle_type": 0, "interpolation": 0}]}, "waveform": false, "perspective_c3_x": {"Points": [{"co": {"Y": -1.0, "X": 1.0}, "interpolation": 2}]}, "rotation": {"Points": [{"co": {"Y": 0.0, "X": 1.0}, "interpolation": 2}]}, "perspective_c4_x": {"Points": [{"co": {"Y": -1.0, "X": 1.0}, "interpolation": 2}]}, "channel_mapping": {"Points": [{"co": {"Y": -1.0, "X": 1.0}, "interpolation": 2}]}, "location_y": {"Points": [{"handle_right": {"Y": 0.0, "X": 0.5}, "co": {"Y": 0.0, "X": 1.0}, "handle_left": {"Y": 1.0, "X": 0.5}, "handle_type": 0, "interpolation": 0}, {"co": {"Y": -0.0026109660574412533, "X": 106}, "interpolation": 0}, {"co": {"Y": 0.0020305883553056606, "X": 37}, "interpolation": 0}]}, "location_x": {"Points": [{"handle_right": {"Y": 0.0, "X": 0.5}, "co": {"Y": 0.0, "X": 1.0}, "handle_left": {"Y": 1.0, "X": 0.5}, "handle_type": 0, "interpolation": 0}, {"co": {"Y": -0.3411764705882353, "X": 106}, "interpolation": 0}, {"co": {"Y": -0.3405441725078751, "X": 37}, "interpolation": 0}]}, "perspective_c2_y": {"Points": [{"co": {"Y": -1.0, "X": 1.0}, "interpolation": 2}]}, "crop_width": {"Points": [{"co": {"Y": -1.0, "X": 1.0}, "interpolation": 2}]}, "display": 0}, {"duration": 10.51863956451416, "shear_x": {"Points": [{"co": {"Y": 0.0, "X": 1.0}, "interpolation": 2}]}, "position": 52.8378125, "crop_height": {"Points": [{"co": {"Y": -1.0, "X": 1.0}, "interpolation": 2}]}, "alpha": {"Points": [{"co": {"Y": 1.0, "X": 1.0}, "interpolation": 2}]}, "has_audio": {"Points": [{"co": {"Y": -1.0, "X": 1.0}, "interpolation": 2}]}, "crop_y": {"Points": [{"co": {"Y": 0.0, "X": 1.0}, "interpolation": 2}]}, "crop_x": {"Points": [{"co": {"Y": 0.0, "X": 1.0}, "interpolation": 2}]}, "anchor": 0, "perspective_c1_y": {"Points": [{"co": {"Y": -1.0, "X": 1.0}, "interpolation": 2}]}, "scale": 1, "perspective_c1_x": {"Points": [{"co": {"Y": -1.0, "X": 1.0}, "interpolation": 2}]}, "volume": {"Points": [{"co": {"Y": 1.0, "X": 1.0}, "interpolation": 2}]}, "time": {"Points": [{"co": {"Y": 1.0, "X": 1.0}, "interpolation": 2}]}, "perspective_c3_y": {"Points": [{"co": {"Y": -1.0, "X": 1.0}, "interpolation": 2}]}, "channel_filter": {"Points": [{"co": {"Y": -1.0, "X": 1.0}, "interpolation": 2}]}, "image": "..\\..\\..\\..\\.openshot_qt\\thumbnail\\8BPTV6658Z-41.png", "shear_y": {"Points": [{"co": {"Y": 0.0, "X": 1.0}, "interpolation": 2}]}, "end": 5.866458333333337, "title": "IMG_4764.MOV", "layer": 1, "effects": [], "gravity": 4, "reader": {"top_field_first": true, "audio_timebase": {"num": 1, "den": 44100}, "duration": 10.51863956451416, "file_size": "4818599", "channels": 1, "pixel_ratio": {"num": 1, "den": 1}, "pixel_format": 0, "type": "FFmpegReader", "vcodec": "h264", "video_stream_index": 0, "video_bit_rate": 3664914, "has_single_image": false, "path": "..\\..\\..\\..\\Downloads\\IMG_4764.MOV", "display_ratio": {"num": 9, "den": 16}, "channel_layout": 4, "video_length": "314", "sample_rate": 44100, "width": 1080, "has_video": true, "acodec": "aac", "video_timebase": {"num": 1, "den": 15360}, "height": 1920, "interlaced_frame": false, "fps": {"num": 30, "den": 1}, "audio_bit_rate": 143999, "audio_stream_index": 1, "has_audio": true}, "perspective_c4_y": {"Points": [{"co": {"Y": -1.0, "X": 1.0}, "interpolation": 2}]}, "perspective_c2_x": {"Points": [{"co": {"Y": -1.0, "X": 1.0}, "interpolation": 2}]}, "has_video": {"Points": [{"co": {"Y": -1.0, "X": 1.0}, "interpolation": 2}]}, "scale_x": {"Points": [{"handle_right": {"Y": 0.0, "X": 0.5}, "co": {"Y": 1.0, "X": 1.0}, "handle_left": {"Y": 1.0, "X": 0.5}, "handle_type": 0, "interpolation": 0}]}, "file_id": "ZAVHCUQR3M", "id": "P6ZYG24D1E", "wave_color": {"alpha": {"Points": [{"handle_right": {"Y": 0.0, "X": 0.5}, "co": {"Y": 255.0, "X": 1.0}, "handle_left": {"Y": 1.0, "X": 0.5}, "handle_type": 0, "interpolation": 0}]}, "blue": {"Points": [{"handle_right": {"Y": 0.0, "X": 0.5}, "co": {"Y": 255.0, "X": 1.0}, "handle_left": {"Y": 1.0, "X": 0.5}, "handle_type": 0, "interpolation": 0}]}, "green": {"Points": [{"handle_right": {"Y": 0.0, "X": 0.5}, "co": {"Y": 123.0, "X": 1.0}, "handle_left": {"Y": 1.0, "X": 0.5}, "handle_type": 0, "interpolation": 0}]}, "red": {"Points": [{"handle_right": {"Y": 0.0, "X": 0.5}, "co": {"Y": 0.0, "X": 1.0}, "handle_left": {"Y": 1.0, "X": 0.5}, "handle_type": 0, "interpolation": 0}]}}, "start": 1.324062500000002, "scale_y": {"Points": [{"handle_right": {"Y": 0.0, "X": 0.5}, "co": {"Y": 1.0, "X": 1.0}, "handle_left": {"Y": 1.0, "X": 0.5}, "handle_type": 0, "interpolation": 0}]}, "waveform": false, "perspective_c3_x": {"Points": [{"co": {"Y": -1.0, "X": 1.0}, "interpolation": 2}]}, "rotation": {"Points": [{"co": {"Y": 0.0, "X": 1.0}, "interpolation": 2}]}, "perspective_c4_x": {"Points": [{"co": {"Y": -1.0, "X": 1.0}, "interpolation": 2}]}, "channel_mapping": {"Points": [{"co": {"Y": -1.0, "X": 1.0}, "interpolation": 2}]}, "location_y": {"Points": [{"handle_right": {"Y": 0.0, "X": 0.5}, "co": {"Y": 0.0, "X": 1.0}, "handle_left": {"Y": 1.0, "X": 0.5}, "handle_type": 0, "interpolation": 0}, {"co": {"Y": -0.0026109660574412533, "X": 106}, "interpolation": 0}, {"co": {"Y": 0.0020305883553056606, "X": 37}, "interpolation": 0}]}, "location_x": {"Points": [{"handle_right": {"Y": 0.0, "X": 0.5}, "co": {"Y": 0.0, "X": 1.0}, "handle_left": {"Y": 1.0, "X": 0.5}, "handle_type": 0, "interpolation": 0}, {"co": {"Y": -0.3411764705882353, "X": 106}, "interpolation": 0}, {"co": {"Y": -0.3405441725078751, "X": 37}, "interpolation": 0}]}, "perspective_c2_y": {"Points": [{"co": {"Y": -1.0, "X": 1.0}, "interpolation": 2}]}, "crop_width": {"Points": [{"co": {"Y": -1.0, "X": 1.0}, "interpolation": 2}]}, "display": 0}, {"duration": 86400.0, "volume": {"Points": [{"co": {"Y": 1.0, "X": 1.0}, "interpolation": 2}]}, "wave_color": {"alpha": {"Points": [{"handle_right": {"Y": 0.0, "X": 0.5}, "co": {"Y": 255.0, "X": 1.0}, "handle_left": {"Y": 1.0, "X": 0.5}, "handle_type": 0, "interpolation": 0}]}, "blue": {"Points": [{"handle_right": {"Y": 0.0, "X": 0.5}, "co": {"Y": 255.0, "X": 1.0}, "handle_left": {"Y": 1.0, "X": 0.5}, "handle_type": 0, "interpolation": 0}]}, "green": {"Points": [{"handle_right": {"Y": 0.0, "X": 0.5}, "co": {"Y": 123.0, "X": 1.0}, "handle_left": {"Y": 1.0, "X": 0.5}, "handle_type": 0, "interpolation": 0}]}, "red": {"Points": [{"handle_right": {"Y": 0.0, "X": 0.5}, "co": {"Y": 0.0, "X": 1.0}, "handle_left": {"Y": 1.0, "X": 0.5}, "handle_type": 0, "interpolation": 0}]}}, "channel_mapping": {"Points": [{"co": {"Y": -1.0, "X": 1.0}, "interpolation": 2}]}, "reader": {"vcodec": "", "audio_timebase": {"num": 1, "den": 1}, "duration": 86400.0, "file_size": "61992", "channels": 0, "pixel_ratio": {"num": 1, "den": 1}, "pixel_format": -1, "width": 126, "video_stream_index": -1, "video_bit_rate": 0, "has_single_image": true, "path": "..\\figs\\3mm.jpg", "top_field_first": true, "channel_layout": 4, "video_length": "2592000", "sample_rate": 0, "display_ratio": {"num": 42, "den": 41}, "has_video": true, "acodec": "", "video_timebase": {"num": 1, "den": 30}, "height": 123, "interlaced_frame": false, "fps": {"num": 30, "den": 1}, "audio_bit_rate": 0, "audio_stream_index": -1, "type": "QtImageReader", "has_audio": false}, "crop_y": {"Points": [{"co": {"Y": 0.0, "X": 1.0}, "interpolation": 2}]}, "anchor": 0, "perspective_c1_y": {"Points": [{"co": {"Y": -1.0, "X": 1.0}, "interpolation": 2}]}, "scale": 1, "perspective_c1_x": {"Points": [{"co": {"Y": -1.0, "X": 1.0}, "interpolation": 2}]}, "shear_x": {"Points": [{"co": {"Y": 0.0, "X": 1.0}, "interpolation": 2}]}, "time": {"Points": [{"co": {"Y": 1.0, "X": 1.0}, "interpolation": 2}]}, "perspective_c3_y": {"Points": [{"co": {"Y": -1.0, "X": 1.0}, "interpolation": 2}]}, "channel_filter": {"Points": [{"co": {"Y": -1.0, "X": 1.0}, "interpolation": 2}]}, "file_id": "P97PI7OKJ6", "shear_y": {"Points": [{"co": {"Y": 0.0, "X": 1.0}, "interpolation": 2}]}, "end": 18.740000000000002, "title": "3mm.jpg", "layer": 2, "crop_x": {"Points": [{"co": {"Y": 0.0, "X": 1.0}, "interpolation": 2}]}, "effects": [], "gravity": 4, "alpha": {"Points": [{"co": {"Y": 1.0, "X": 1.0}, "interpolation": 2}]}, "perspective_c2_y": {"Points": [{"co": {"Y": -1.0, "X": 1.0}, "interpolation": 2}]}, "has_video": {"Points": [{"co": {"Y": -1.0, "X": 1.0}, "interpolation": 2}]}, "scale_x": {"Points": [{"co": {"Y": 1.0, "X": 1.0}, "interpolation": 2}]}, "start": 0, "perspective_c2_x": {"Points": [{"co": {"Y": -1.0, "X": 1.0}, "interpolation": 2}]}, "has_audio": {"Points": [{"co": {"Y": -1.0, "X": 1.0}, "interpolation": 2}]}, "crop_width": {"Points": [{"co": {"Y": -1.0, "X": 1.0}, "interpolation": 2}]}, "scale_y": {"Points": [{"co": {"Y": 1.0, "X": 1.0}, "interpolation": 2}]}, "waveform": false, "perspective_c4_y": {"Points": [{"co": {"Y": -1.0, "X": 1.0}, "interpolation": 2}]}, "rotation": {"Points": [{"co": {"Y": 0.0, "X": 1.0}, "interpolation": 2}]}, "position": 39.21125, "perspective_c4_x": {"Points": [{"co": {"Y": -1.0, "X": 1.0}, "interpolation": 2}]}, "crop_height": {"Points": [{"co": {"Y": -1.0, "X": 1.0}, "interpolation": 2}]}, "location_y": {"Points": [{"co": {"Y": 0.0, "X": 1.0}, "interpolation": 2}]}, "display": 0, "id": "3WU466KKNC", "location_x": {"Points": [{"co": {"Y": 0.0, "X": 1.0}, "interpolation": 2}]}, "perspective_c3_x": {"Points": [{"co": {"Y": -1.0, "X": 1.0}, "interpolation": 2}]}, "image": "..\\..\\..\\..\\.openshot_qt\\thumbnail\\P97PI7OKJ6.png"}, {"duration": 86400.0, "wave_color": {"alpha": {"Points": [{"handle_right": {"Y": 0.0, "X": 0.5}, "co": {"Y": 255.0, "X": 1.0}, "handle_left": {"Y": 1.0, "X": 0.5}, "handle_type": 0, "interpolation": 0}]}, "blue": {"Points": [{"handle_right": {"Y": 0.0, "X": 0.5}, "co": {"Y": 255.0, "X": 1.0}, "handle_left": {"Y": 1.0, "X": 0.5}, "handle_type": 0, "interpolation": 0}]}, "red": {"Points": [{"handle_right": {"Y": 0.0, "X": 0.5}, "co": {"Y": 0.0, "X": 1.0}, "handle_left": {"Y": 1.0, "X": 0.5}, "handle_type": 0, "interpolation": 0}]}, "green": {"Points": [{"handle_right": {"Y": 0.0, "X": 0.5}, "co": {"Y": 123.0, "X": 1.0}, "handle_left": {"Y": 1.0, "X": 0.5}, "handle_type": 0, "interpolation": 0}]}}, "anchor": 0, "reader": {"vcodec": "", "audio_timebase": {"num": 1, "den": 1}, "duration": 86400.0, "file_size": "61952", "channels": 0, "pixel_ratio": {"num": 1, "den": 1}, "pixel_format": -1, "width": 121, "video_stream_index": -1, "video_bit_rate": 0, "has_single_image": true, "path": "..\\figs\\6mm.jpg", "display_ratio": {"num": 121, "den": 128}, "channel_layout": 4, "video_length": "2592000", "sample_rate": 0, "has_video": true, "acodec": "", "top_field_first": true, "video_timebase": {"num": 1, "den": 30}, "height": 128, "interlaced_frame": false, "fps": {"num": 30, "den": 1}, "audio_bit_rate": 0, "audio_stream_index": -1, "type": "QtImageReader", "has_audio": false}, "perspective_c1_x": {"Points": [{"co": {"Y": -1.0, "X": 1.0}, "interpolation": 2}]}, "shear_y": {"Points": [{"co": {"Y": 0.0, "X": 1.0}, "interpolation": 2}]}, "file_id": "1V1XR4MF1P", "waveform": false, "crop_height": {"Points": [{"co": {"Y": -1.0, "X": 1.0}, "interpolation": 2}]}, "perspective_c3_x": {"Points": [{"co": {"Y": -1.0, "X": 1.0}, "interpolation": 2}]}, "crop_y": {"Points": [{"co": {"Y": 0.0, "X": 1.0}, "interpolation": 2}]}, "scale": 1, "time": {"Points": [{"co": {"Y": 1.0, "X": 1.0}, "interpolation": 2}]}, "gravity": 4, "title": "6mm.jpg", "perspective_c4_y": {"Points": [{"co": {"Y": -1.0, "X": 1.0}, "interpolation": 2}]}, "rotation": {"Points": [{"co": {"Y": 0.0, "X": 1.0}, "interpolation": 2}]}, "channel_mapping": {"Points": [{"co": {"Y": -1.0, "X": 1.0}, "interpolation": 2}]}, "has_audio": {"Points": [{"co": {"Y": -1.0, "X": 1.0}, "interpolation": 2}]}, "volume": {"Points": [{"co": {"Y": 1.0, "X": 1.0}, "interpolation": 2}]}, "perspective_c1_y": {"Points": [{"co": {"Y": -1.0, "X": 1.0}, "interpolation": 2}]}, "perspective_c3_y": {"Points": [{"co": {"Y": -1.0, "X": 1.0}, "interpolation": 2}]}, "end": 18.169999999999998, "location_x": {"Points": [{"co": {"Y": 0.0, "X": 1.0}, "interpolation": 2}, {"co": {"Y": -0.439705893572639, "X": 63}, "interpolation": 0}, {"co": {"Y": -0.4384201459614012, "X": 4}, "interpolation": 0}]}, "effects": [], "scale_x": {"Points": [{"co": {"Y": 1.0, "X": 1.0}, "interpolation": 2}, {"co": {"Y": 0.35, "X": 7}, "interpolation": 0}, {"co": {"Y": 0.2117647283217486, "X": 63}, "interpolation": 0}, {"co": {"Y": 0.2180167639956755, "X": 4}, "interpolation": 0}]}, "scale_y": {"Points": [{"co": {"Y": 1.0, "X": 1.0}, "interpolation": 2}, {"co": {"Y": 0.06527415143603134, "X": 7}, "interpolation": 0}, {"co": {"Y": 0.21148825485463554, "X": 63}, "interpolation": 0}, {"co": {"Y": 0.24569019604797715, "X": 4}, "interpolation": 0}]}, "crop_width": {"Points": [{"co": {"Y": -1.0, "X": 1.0}, "interpolation": 2}]}, "display": 0, "shear_x": {"Points": [{"co": {"Y": 0.0, "X": 1.0}, "interpolation": 2}]}, "position": 19.07125, "crop_x": {"Points": [{"co": {"Y": 0.0, "X": 1.0}, "interpolation": 2}]}, "channel_filter": {"Points": [{"co": {"Y": -1.0, "X": 1.0}, "interpolation": 2}]}, "layer": 2, "alpha": {"Points": [{"co": {"Y": 1.0, "X": 1.0}, "interpolation": 2}]}, "perspective_c2_x": {"Points": [{"co": {"Y": -1.0, "X": 1.0}, "interpolation": 2}]}, "has_video": {"Points": [{"co": {"Y": -1.0, "X": 1.0}, "interpolation": 2}]}, "start": 0, "perspective_c4_x": {"Points": [{"co": {"Y": -1.0, "X": 1.0}, "interpolation": 2}]}, "location_y": {"Points": [{"co": {"Y": 0.0, "X": 1.0}, "interpolation": 2}, {"co": {"Y": -0.38120104648736997, "X": 63}, "interpolation": 0}, {"co": {"Y": -0.39569105102659957, "X": 4}, "interpolation": 0}]}, "id": "MFS21WEFL5", "perspective_c2_y": {"Points": [{"co": {"Y": -1.0, "X": 1.0}, "interpolation": 2}]}, "image": "..\\..\\..\\..\\.openshot_qt\\thumbnail\\1V1XR4MF1P.png"}], "sample_rate": 44100, "height": 720, "markers": [], "tick_pixels": 100, "profile": "HDV 720 24p", "settings": {}, "channels": 2, "layers": [{"y": 0, "number": 0, "id": "L0", "lock": false, "label": ""}, {"y": 0, "number": 1, "id": "L1", "lock": false, "label": ""}, {"y": 0, "number": 2, "id": "L2", "lock": false, "label": ""}, {"y": 0, "number": 3, "id": "L3", "lock": false, "label": ""}, {"y": 0, "number": 4, "id": "L4", "lock": false, "label": ""}], "id": "T0"}